<?xml version="1.0" encoding="UTF-8"?>
<!-- Created with Inkscape (http://www.inkscape.org/) -->
<svg width="80mm" height="80mm" version="1.1" viewBox="0 0 80 80" xmlns="http://www.w3.org/2000/svg">
 <g>
  <g transform="matrix(.35278 0 0 -.35278 -206.94 299.21)">
   <path d="m734.54 767.73c0-3.582-2.897-6.48-6.479-6.48-3.577 0-6.48 2.898-6.48 6.48v27.645c0 3.581 2.903 6.48 6.48 6.48 3.582 0 6.479-2.899 6.479-6.48v-27.645m-25.083 0c0-3.582-2.903-6.48-6.48-6.48-3.578 0-6.48 2.898-6.48 6.48v27.645c0 3.581 2.902 6.48 6.48 6.48 3.577 0 6.48-2.899 6.48-6.48v-27.645m-25.085 0c0-3.582-2.902-6.48-6.479-6.48s-6.48 2.898-6.48 6.48v27.645c0 3.581 2.903 6.48 6.48 6.48s6.479-2.899 6.479-6.48v-27.645m-25.083 0c0-3.582-2.903-6.48-6.48-6.48-3.578 0-6.48 2.898-6.48 6.48v27.645c0 3.581 2.902 6.48 6.48 6.48 3.577 0 6.48-2.899 6.48-6.48v-27.645m114.64 29.215-24.786 26.923c-4.438 4.806-12.711 8.446-19.266 8.446h-96.258c-8.337 0-15.119-6.793-15.119-15.12v-164.86c0-8.337 6.782-15.119 15.119-15.119h132.76c8.338 0 15.12 6.782 15.11 15.119v125.22c0 6.372-3.251 14.699-7.56 19.386" fill="#393536"/>
   <path d="m766.38 637.22h-132.76c-3.457 0-6.646 1.166-9.196 3.125-0.012 0.016-0.025 0.032-0.037 0.048-3.504 2.714-5.796 6.919-5.884 11.662 0 0.018 0 0.036-1e-3 0.053v0.01 0.042c0 6e-3 0 0.012-1e-3 0.017v0.037 0.018 0.037 0.017 0.053 164.86c0 8.327 6.782 15.12 15.119 15.12h96.258c6.555 0 14.828-3.64 19.266-8.446l24.786-26.923c4.309-4.687 7.56-13.014 7.56-19.386v-125.22c0.01-8.337-6.772-15.119-15.11-15.119m-38.32 164.64c-3.577 0-6.48-2.899-6.48-6.48v-27.645c0-3.582 2.903-6.48 6.48-6.48 3.582 0 6.479 2.898 6.479 6.48v27.645c0 3.581-2.897 6.48-6.479 6.48m-25.084 0c-3.578 0-6.48-2.899-6.48-6.48v-27.645c0-3.582 2.902-6.48 6.48-6.48 3.577 0 6.48 2.898 6.48 6.48v27.645c0 3.581-2.903 6.48-6.48 6.48m-25.084 0c-3.577 0-6.48-2.899-6.48-6.48v-27.645c0-3.582 2.903-6.48 6.48-6.48s6.479 2.898 6.479 6.48v27.645c0 3.581-2.902 6.48-6.479 6.48m-25.084 0c-3.578 0-6.48-2.899-6.48-6.48v-27.645c0-3.582 2.902-6.48 6.48-6.48 3.577 0 6.48 2.898 6.48 6.48v27.645c0 3.581-2.903 6.48-6.48 6.48" fill="#302d2d"/>
  </g>
 </g>
</svg>
