<svg xmlns="http://www.w3.org/2000/svg" width="336" height="163.2" viewBox="0 0 88.9 43.18"><desc>Image generated by Eeschema-SVG</desc><rect width="7.62" height="19.05" x="24.765" y="3.175" rx="0" style="fill:#ffffc2;fill-opacity:1;stroke:none"/><rect width="8.89" height="12.7" x="3.175" y="27.305" rx="0" style="fill:#ffffc2;fill-opacity:1;stroke:none"/><rect width="7.62" height="19.05" x="15.875" y="3.175" rx="0" style="fill:#ffffc2;fill-opacity:1;stroke:none"/><rect width="7.62" height="19.05" x="33.655" y="3.175" rx="0" style="fill:#ffffc2;fill-opacity:1;stroke:none"/><rect width="7.62" height="19.05" x="51.435" y="3.175" rx="0" style="fill:#ffffc2;fill-opacity:1;stroke:none"/><rect width="7.62" height="19.05" x="42.545" y="3.175" rx="0" style="fill:#ffffc2;fill-opacity:1;stroke:none"/><rect width="7.62" height="19.05" x="60.325" y="3.175" rx="0" style="fill:#ffffc2;fill-opacity:1;stroke:none"/><rect width="7.62" height="19.05" x="78.105" y="3.175" rx="0" style="fill:#ffffc2;fill-opacity:1;stroke:none"/><rect width="69.85" height="12.7" x="15.875" y="27.305" rx="0" style="fill:#ffffc2;fill-opacity:1;stroke:none"/><rect width="7.62" height="19.05" x="69.215" y="3.175" rx="0" style="fill:#ffffc2;fill-opacity:1;stroke:none"/><path d="M22.225 22.225v5.08m50.8-5.08v5.08m8.89-5.08v5.08m-17.78-5.08v5.08m-27.94-5.08v5.08m2.54-5.08v5.08m16.51-5.08v5.08m-8.89-5.08v5.08m-19.05-5.08v5.08m-15.24 6.35h3.81m13.97-11.43v5.08m-10.16-5.08v5.08m-2.54-5.08v5.08" style="fill:none;stroke:#0000c2;stroke-width:.1524;stroke-opacity:1;stroke-linecap:round;stroke-linejoin:round"/><g style="fill:none;stroke:#c20000;stroke-width:.127;stroke-opacity:1;stroke-linecap:round;stroke-linejoin:round"><rect width="7.62" height="19.05" x="24.765" y="3.175" rx="0"/><rect width="7.62" height="19.05" x="24.765" y="3.175" rx="0"/></g><g style="fill:none;stroke:#000084;stroke-width:.1524;stroke-opacity:1;stroke-linecap:round;stroke-linejoin:round"><g class="stroked-text"><desc>Expansion</desc><path d="M27.467 17.175v-.423m.665-.182v.605m0 0h-1.27m0 0v-.605m1.27-.423-.846-.665m0 .665.846-.665m-.846-.484h1.27m-1.21 0-.06-.121m0 0v-.242m0 0 .06-.12m0-.001.06-.06m.001 0 .12-.06m.001-.001h.362m0 0 .121.06m0 .001.06.06m.001 0 .06.121m0 0v.242m0 0-.06.121m.06-1.693h-.665m0 0-.121.06m0 0-.06.121m0 0v.242m0 0 .06.121m.726-.544.06.12m0 .001v.302m0 0-.06.121m0 0-.121.06m-.001.001h-.12m0 0-.121-.061m0 0-.06-.121m-.001 0v-.302m0 0-.06-.121m-.302-.605h.846m-.725 0-.061-.06m0 0-.06-.122m0 .001v-.182m0 0 .06-.12m0-.001.121-.06m0 0h.665m-.06-.545.06-.12m0-.001v-.241m0 0-.06-.121m0 0-.121-.06m-.001-.001h-.06m0 0-.12.06m0 .001-.061.12m0 .001v.181m0 0-.06.121m-.001 0-.12.06m0 0h-.061m0 0-.121-.06m0 0-.06-.121m0 0v-.181m0 0 .06-.121m.786-.605h-.846m-.424 0 .06.06m.001 0 .06-.06m0 0-.06-.06m0-.001-.06.06m-.001.001h.121m1.149-.786-.06.12m0 .001-.06.06m-.001 0-.12.06m-.001.001h-.363m.001 0-.121-.06m0-.001-.061-.06m0 0-.06-.121m0 0v-.182m0 0 .06-.12m0-.001.06-.06m.001 0 .12-.06m.001-.001h.362m0 0 .121.06m0 .001.06.06m.001 0 .06.121m0 0v.182m-.846-.967h.846m-.725 0-.061-.061m0 0-.06-.121m0 0v-.182m0 0 .06-.12m0-.001.121-.06m0 0h.665"/></g><g class="stroked-text"><desc>(Video)</desc><path d="m30.66 15.421-.06.06m0 .001-.181.12m0 .001-.121.06m0 0-.182.06m0 .001-.302.06m0 0h-.242m0 0-.302-.06m0 0-.182-.06m0-.001-.12-.06m-.001 0-.181-.121m0 0-.06-.06m.181-.303 1.27-.423m0 0-1.27-.424m1.27-.423h-.847m-.423 0 .06.06m0 .001.06-.061m.001 0-.06-.06m-.001 0-.06.06m0 0h.12m1.15-1.149h-1.27m1.209 0 .06.12m.001 0v.243m0 0-.06.12m-.001.001-.06.06m0 0-.121.06m0 .001h-.363m0 0-.12-.06m-.001-.001-.06-.06m-.001 0-.06-.121m0 0v-.242m0-.001.06-.12m.726-1.089.06.121m.001 0v.242m0 0-.06.121m-.001 0-.12.06m-.001.001h-.483m0 0-.121-.06m-.001-.001-.06-.12m0-.001v-.242m0 0 .06-.12m0-.001.122-.06m0-.001h.12m.001 0 .12.606m.424-1.331-.06.121m-.001 0-.06.06m0 .001-.121.06m0 0h-.363m0 0-.12-.06m-.001 0-.06-.06m-.001-.001-.06-.12m0-.001v-.181m0 0 .06-.121m0 0 .061-.06m0-.001.121-.06m0 0h.363m0 0 .12.06m.001 0 .06.06m0 .001.06.12m.001.001v.181m.483-.846-.06-.061m0 0-.181-.12m0-.001-.121-.06m0 0-.182-.06m0-.001-.302-.06m0 0h-.242m0 0-.302.06m0 0-.182.06m0 .001-.12.06m-.001 0-.181.121m0 0-.06.06"/></g></g><g style="fill:none;stroke:#c20000;stroke-width:.127;stroke-opacity:1;stroke-linecap:round;stroke-linejoin:round"><rect width="8.89" height="12.7" x="3.175" y="27.305" rx="0"/><rect width="8.89" height="12.7" x="3.175" y="27.305" rx="0"/></g><g style="fill:none;stroke:#000084;stroke-width:.1524;stroke-opacity:1;stroke-linecap:round;stroke-linejoin:round"><g class="stroked-text"><desc>Power</desc><path d="M7.177 36.165h-1.27m0 0v-.484m0-.001.06-.12m.001 0 .06-.06m0 0 .121-.061m.001 0h.18m0 0 .122.06m0 .001.06.06m0 0 .06.12m.001 0v.485m.604-1.452-.06.121m0 0-.06.06m-.001.001-.12.06m-.001 0h-.362m0 0-.122-.06m.001 0-.061-.06m0-.001-.06-.12m-.001-.001v-.181m0 0 .061-.121m0-.001.06-.06m.001 0 .12-.06m.001 0h.362m0 0 .121.06m0 0 .06.06m.001 0 .06.122m0 0v.181m-.847-.846.847-.242m0 0-.604-.242m0 0 .604-.242m0-.001-.846-.241m.786-.968.06.121m0 0v.242m0 0-.06.121m0 0-.121.06m0 .001h-.484m0 0-.121-.06m0-.001-.06-.12m-.001-.001v-.242m0 0 .061-.12m0-.001.121-.06m0-.001h.12m.001 0 .12.606m.424-1.149h-.846m.242 0-.122-.06m.001-.001-.061-.06m0 0-.06-.121m-.001 0v-.121"/></g><g class="stroked-text"><desc>Supply</desc><path d="m9.161 36.558.06-.182m.001 0v-.302m0 0-.06-.121m-.001 0-.06-.06m-.001-.001-.12-.06m0 0h-.121m0 0-.121.06m0 0-.06.06m0 .001-.06.12m-.001.001-.06.242m0 0-.06.12m-.001.001-.06.06m0 0-.121.06m0 .001h-.121m0 0-.121-.06m0-.001-.06-.06m-.001 0-.06-.121m0 0v-.303m0 0 .06-.181m.363-1.089h.847m-.847.545h.665m0 0 .121-.06m0-.001.06-.12m.001-.001v-.181m0 0-.06-.121m-.001 0-.06-.06m-.726-.605h1.27m-1.209 0-.06-.121m-.001 0v-.242m0 0 .06-.121m.001 0 .06-.06m0-.001.121-.06m0 0h.363m0 0 .12.06m0 0 .061.06m0 .001.06.12m.001.001v.242m0 0-.06.12m-.787-1.148h1.27m-1.209 0-.06-.121m-.001 0v-.242m0 0 .06-.121m.001 0 .06-.06m0-.001.121-.06m0 0h.363m0 0 .12.06m0 0 .061.06m0 .001.06.12m.001.001v.242m0 0-.06.12m.06-1.329-.06.12m-.001 0-.12.06m-.001 0H7.952m.423-.544.847-.302m-.847-.302.847.302m0 0 .302.121m0 0 .06.06m.001.001.06.12"/></g></g><g style="fill:none;stroke:#c20000;stroke-width:.127;stroke-opacity:1;stroke-linecap:round;stroke-linejoin:round"><rect width="7.62" height="19.05" x="15.875" y="3.175" rx="0"/><rect width="7.62" height="19.05" x="15.875" y="3.175" rx="0"/></g><g class="stroked-text" style="fill:none;stroke:#000084;stroke-width:.1524;stroke-opacity:1;stroke-linecap:round;stroke-linejoin:round"><desc>Mainboard</desc><path d="M20.265 17.266h-1.27m0 0 .907-.424m0 0-.908-.423m.001.001h1.27m0-1.15h-.666m.001 0-.122.06m0 0-.06.121m0 .001v.241m0 0 .06.121m.726-.544.06.121m.001 0v.302m0 0-.06.121m-.001 0-.12.06m-.001.001h-.12m-.001 0-.12-.06m-.001-.001-.06-.12m-.001-.001v-.302m0 0-.06-.12m.545-.606h-.847m-.423 0 .06.06m0 .001.06-.06m.001-.001-.061-.06m0 0-.06.06m0 0h.12m.303-.605h.847m-.726 0-.06-.06m-.001 0-.06-.12m0 0v-.182m0 0 .06-.121m0 0 .121-.06m.001-.001h.665m0-.604h-1.27m.483 0-.06-.121m0-.001v-.241m0 0 .06-.121m0 0 .06-.06m.001-.001.12-.06m.001 0h.363m0 0 .12.06m.001 0 .06.06m0 .001.06.12m.001.001v.242m0-.001-.06.122m.06-1.331-.06.121m-.001 0-.06.06m0 .001-.121.06m0 0h-.363m0 0-.121-.06m0 0-.06-.06m-.001-.001-.06-.12m0-.001V11.4m0 0 .06-.121m0 0 .06-.06m.001-.001.12-.06m.001 0h.363m0 0 .12.06m.001 0 .06.06m0 .001.06.12m.001.001v.181m0-1.511h-.666m.001 0-.122.06m0 0-.06.12m0 0v.243m0 0 .06.12m.726-.543.06.12m.001 0v.303m0 0-.06.12m-.001.001-.12.06m-.001 0h-.12m-.001 0-.12-.06m-.001 0-.06-.121m-.001 0v-.303m0 0-.06-.12m.545-.605h-.847m.242 0-.121-.06m0-.001-.06-.06m-.001 0-.06-.121m0 0v-.121m.847-.968h-1.27m1.209 0 .06.121m.001 0v.242m0 0-.06.12m-.001.001-.06.06m0 0-.121.06m0 .001h-.363m0 0-.121-.06m0-.001-.06-.06m-.001 0-.06-.121m0 0v-.242m0 0 .06-.12"/></g><g style="fill:none;stroke:#c20000;stroke-width:.127;stroke-opacity:1;stroke-linecap:round;stroke-linejoin:round"><rect width="7.62" height="19.05" x="33.655" y="3.175" rx="0"/><rect width="7.62" height="19.05" x="33.655" y="3.175" rx="0"/></g><g style="fill:none;stroke:#000084;stroke-width:.1524;stroke-opacity:1;stroke-linecap:round;stroke-linejoin:round"><g class="stroked-text"><desc>Expansion</desc><path d="M36.357 17.175v-.423m.665-.182v.605m0 0h-1.27m0 0v-.605m1.27-.423-.846-.665m0 .665.846-.665m-.846-.484h1.27m-1.21 0-.06-.121m0 0v-.242m0 0 .06-.12m0-.001.06-.06m.001 0 .12-.06m.001-.001h.362m0 0 .121.06m0 .001.06.06m.001 0 .06.121m0 0v.242m0 0-.06.121m.06-1.693h-.665m0 0-.121.06m0 0-.06.121m0 0v.242m0 0 .06.121m.726-.544.06.12m0 .001v.302m0 0-.06.121m0 0-.121.06m-.001.001h-.12m0 0-.121-.061m0 0-.06-.121m-.001 0v-.302m0 0-.06-.121m-.302-.605h.846m-.725 0-.061-.06m0 0-.06-.122m0 .001v-.182m0 0 .06-.12m0-.001.121-.06m0 0h.665m-.06-.545.06-.12m0-.001v-.241m0 0-.06-.121m0 0-.121-.06m-.001-.001h-.06m0 0-.12.06m0 .001-.061.12m0 .001v.181m0 0-.06.121m-.001 0-.12.06m0 0h-.061m0 0-.121-.06m0 0-.06-.121m0 0v-.181m0 0 .06-.121m.786-.605h-.846m-.424 0 .06.06m.001 0 .06-.06m0 0-.06-.06m0-.001-.06.06m-.001.001h.121m1.149-.786-.06.12m0 .001-.06.06m-.001 0-.12.06m-.001.001h-.363m.001 0-.121-.06m0-.001-.061-.06m0 0-.06-.121m0 0v-.182m0 0 .06-.12m0-.001.06-.06m.001 0 .12-.06m.001-.001h.362m0 0 .121.06m0 .001.06.06m.001 0 .06.121m0 0v.182m-.846-.967h.846m-.725 0-.061-.061m0 0-.06-.121m0 0v-.182m0 0 .06-.12m0-.001.121-.06m0 0h.665"/></g><g class="stroked-text"><desc>(Audio)</desc><path d="m39.55 15.452-.06.06m0 0-.181.121m0 0-.121.06m0 .001-.182.06m0 0-.302.06m0 .001h-.242m0 0-.302-.061m0 0-.182-.06m0 0-.12-.061m-.001 0-.181-.12m0-.001-.06-.06m1.088-.424v-.604m.363.726-1.27-.424m0 0 1.27-.424m-.847-.967h.847m-.847.545h.665m0 0 .121-.061m0 0 .06-.121m.001 0v-.182m0 0-.06-.12m-.001-.001-.06-.06m.121-1.149h-1.27m1.209 0 .06.12m.001.001v.242m0 0-.06.12m-.001.001-.06.06m0 0-.121.06m0 0h-.363m0 0-.12-.06m-.001 0-.06-.06m-.001 0-.06-.121m0 0v-.242m0 0 .06-.121m.787-.605h-.847m-.423 0 .06.06m0 .001.06-.06m.001-.001-.06-.06m-.001-.001-.06.061m0 0h.12m1.15-.786-.06.12m-.001.001-.06.06m0 0-.121.06m0 .001h-.363m0 0-.12-.06m-.001-.001-.06-.06m-.001 0-.06-.121m0 0v-.181m0 0 .06-.121m0 0 .061-.06m0-.001.121-.06m0 0h.363m0 0 .12.06m.001 0 .06.06m0 .001.06.12m.001.001v.18m.483-.846-.06-.06m0 0-.181-.121m0 0-.121-.06m0-.001-.182-.06m0 0-.302-.06m0 0h-.242m0 0-.302.06m0 0-.182.06m0 0-.12.06m-.001.001-.181.12m0 .001-.06.06"/></g></g><g style="fill:none;stroke:#c20000;stroke-width:.127;stroke-opacity:1;stroke-linecap:round;stroke-linejoin:round"><rect width="7.62" height="19.05" x="51.435" y="3.175" rx="0"/><rect width="7.62" height="19.05" x="51.435" y="3.175" rx="0"/></g><g style="fill:none;stroke:#000084;stroke-width:.1524;stroke-opacity:1;stroke-linecap:round;stroke-linejoin:round"><g class="stroked-text"><desc>Expansion</desc><path d="M54.137 17.175v-.423m.665-.182v.605m0 0h-1.27m0 0v-.605m1.27-.423-.846-.665m0 .665.846-.665m-.846-.484h1.27m-1.21 0-.06-.121m0 0v-.242m0 0 .06-.12m0-.001.06-.06m.001 0 .12-.06m.001-.001h.362m0 0 .121.06m0 .001.06.06m.001 0 .06.121m0 0v.242m0 0-.06.121m.06-1.693h-.665m0 0-.121.06m0 0-.06.121m0 0v.242m0 0 .06.121m.726-.544.06.12m0 .001v.302m0 0-.06.121m0 0-.121.06m-.001.001h-.12m0 0-.121-.061m0 0-.06-.121m-.001 0v-.302m0 0-.06-.121m-.302-.605h.846m-.725 0-.061-.06m0 0-.06-.122m0 .001v-.182m0 0 .06-.12m0-.001.121-.06m0 0h.665m-.06-.545.06-.12m0-.001v-.241m0 0-.06-.121m0 0-.121-.06m-.001-.001h-.06m0 0-.12.06m0 .001-.061.12m0 .001v.181m0 0-.06.121m-.001 0-.12.06m0 0h-.061m0 0-.121-.06m0 0-.06-.121m0 0v-.181m0 0 .06-.121m.786-.605h-.846m-.424 0 .06.06m.001 0 .06-.06m0 0-.06-.06m0-.001-.06.06m-.001.001h.121m1.149-.786-.06.12m0 .001-.06.06m-.001 0-.12.06m-.001.001h-.363m.001 0-.121-.06m0-.001-.061-.06m0 0-.06-.121m0 0v-.182m0 0 .06-.12m0-.001.06-.06m.001 0 .12-.06m.001-.001h.362m0 0 .121.06m0 .001.06.06m.001 0 .06.121m0 0v.182m-.846-.967h.846m-.725 0-.061-.061m0 0-.06-.121m0 0v-.182m0 0 .06-.12m0-.001.121-.06m0 0h.665"/></g><g class="stroked-text"><desc>(Generic)</desc><path d="m57.33 16.42-.06.06m0 0-.181.12m0 0-.121.061m0 0-.182.06m0 .001-.302.06m0 0h-.242m0 0-.302-.06m0 0-.182-.06m0-.001-.12-.06m-.001-.001-.181-.12m0 0-.06-.06m.241-1.15-.06.121m0 0v.182m0 0 .06.181m0 0 .121.121m0 0 .121.06m.001.001.241.06m0 0h.181m.001 0 .241-.06m0 0 .121-.061m0 0 .121-.121m0 0 .06-.181m.001 0v-.121m0 0-.06-.182m-.001 0-.06-.06m0 0h-.423m0 0v.242m.483-1.27.06.12m.001.001v.241m0 .001-.06.12m-.001.001-.12.06m-.001 0h-.483m0 0-.121-.06m-.001 0-.06-.122m0 .001v-.242m0 0 .06-.121m0 0 .122-.06m0-.001h.12m.001 0 .12.605M56 13.577h.847m-.726 0-.06-.06m-.001-.001-.06-.12m0-.001v-.181m0 0 .06-.12m0-.001.122-.06m0 0h.665m-.061-1.089.06.121m.001 0v.242m0 0-.06.12m-.001.001-.12.06m-.001 0h-.483m0 0-.121-.06m-.001 0-.06-.121m0 0v-.242m0 0 .06-.12m0-.001.122-.06m0 0h.12m.001 0 .12.604m.424-1.148H56m.242 0-.12-.061m-.001 0-.06-.06m-.001-.001-.06-.12m0-.001v-.12m.847-.424H56m-.423 0 .06.06m0 .001.06-.06m.001-.001-.06-.06m-.001 0-.06.06m0 0h.12m1.089-1.149.06.12m.001.001v.242m0 0-.06.12m-.001.001-.06.06m0 0-.121.06m0 .001h-.363m0 0-.12-.06m-.001-.001-.06-.06m-.001 0L56 9.767m0 0v-.242m0 0 .06-.121m1.27-.424-.06-.06m0 0-.181-.12m0 0-.121-.061m0 0-.182-.06m0-.001-.302-.06m0 0h-.242m0 0-.302.06m0 0-.182.06m0 .001-.12.06m-.001.001-.181.12m0 0-.06.06"/></g></g><g style="fill:none;stroke:#c20000;stroke-width:.127;stroke-opacity:1;stroke-linecap:round;stroke-linejoin:round"><rect width="7.62" height="19.05" x="42.545" y="3.175" rx="0"/><rect width="7.62" height="19.05" x="42.545" y="3.175" rx="0"/></g><g style="fill:none;stroke:#000084;stroke-width:.1524;stroke-opacity:1;stroke-linecap:round;stroke-linejoin:round"><g class="stroked-text"><desc>Expansion</desc><path d="M45.247 17.175v-.423m.665-.182v.605m0 0h-1.27m0 0v-.605m1.27-.423-.846-.665m0 .665.846-.665m-.846-.484h1.27m-1.21 0-.06-.121m0 0v-.242m0 0 .06-.12m0-.001.06-.06m.001 0 .12-.06m.001-.001h.362m0 0 .121.06m0 .001.06.06m.001 0 .06.121m0 0v.242m0 0-.06.121m.06-1.693h-.665m0 0-.121.06m0 0-.06.121m0 0v.242m0 0 .06.121m.726-.544.06.12m0 .001v.302m0 0-.06.121m0 0-.121.06m-.001.001h-.12m0 0-.121-.061m0 0-.06-.121m-.001 0v-.302m0 0-.06-.121m-.302-.605h.846m-.725 0-.061-.06m0 0-.06-.122m0 .001v-.182m0 0 .06-.12m0-.001.121-.06m0 0h.665m-.06-.545.06-.12m0-.001v-.241m0 0-.06-.121m0 0-.121-.06m-.001-.001h-.06m0 0-.12.06m0 .001-.061.12m0 .001v.181m0 0-.06.121m-.001 0-.12.06m0 0h-.061m0 0-.121-.06m0 0-.06-.121m0 0v-.181m0 0 .06-.121m.786-.605h-.846m-.424 0 .06.06m.001 0 .06-.06m0 0-.06-.06m0-.001-.06.06m-.001.001h.121m1.149-.786-.06.12m0 .001-.06.06m-.001 0-.12.06m-.001.001h-.363m.001 0-.121-.06m0-.001-.061-.06m0 0-.06-.121m0 0v-.182m0 0 .06-.12m0-.001.06-.06m.001 0 .12-.06m.001-.001h.362m0 0 .121.06m0 .001.06.06m.001 0 .06.121m0 0v.182m-.846-.967h.846m-.725 0-.061-.061m0 0-.06-.121m0 0v-.182m0 0 .06-.12m0-.001.121-.06m0 0h.665"/></g><g class="stroked-text"><desc>(Generic)</desc><path d="m48.44 16.42-.06.06m0 0-.181.12m0 0-.121.061m0 0-.182.06m0 .001-.302.06m0 0h-.242m0 0-.302-.06m0 0-.182-.06m0-.001-.12-.06m-.001-.001-.181-.12m0 0-.06-.06m.241-1.15-.06.121m0 0v.182m0 0 .06.181m0 0 .121.121m0 0 .121.06m.001.001.241.06m0 0h.181m.001 0 .241-.06m0 0 .121-.061m0 0 .121-.121m0 0 .06-.181m.001 0v-.121m0 0-.06-.182m-.001 0-.06-.06m0 0h-.423m0 0v.242m.483-1.27.06.12m.001.001v.241m0 .001-.06.12m-.001.001-.12.06m-.001 0h-.483m0 0-.121-.06m-.001 0-.06-.122m0 .001v-.242m0 0 .06-.121m0 0 .122-.06m0-.001h.12m.001 0 .12.605m-.423-1.149h.847m-.726 0-.06-.06m-.001-.001-.06-.12m0-.001v-.181m0 0 .06-.12m0-.001.122-.06m0 0h.665m-.061-1.089.06.121m.001 0v.242m0 0-.06.12m-.001.001-.12.06m-.001 0h-.483m0 0-.121-.06m-.001 0-.06-.121m0 0v-.242m0 0 .06-.12m0-.001.122-.06m0 0h.12m.001 0 .12.604m.424-1.148h-.847m.242 0-.12-.061m-.001 0-.06-.06m-.001-.001-.06-.12m0-.001v-.12m.847-.424h-.847m-.423 0 .06.06m0 .001.06-.06m.001-.001-.06-.06m-.001 0-.06.06m0 0h.12m1.089-1.149.06.12m.001.001v.242m0 0-.06.12m-.001.001-.06.06m0 0-.121.06m0 .001h-.363m0 0-.12-.06m-.001-.001-.06-.06m-.001 0-.06-.121m0 0v-.242m0 0 .06-.121m1.27-.424-.06-.06m0 0-.18-.12m-.001 0-.121-.061m0 0-.182-.06m0-.001-.302-.06m0 0h-.242m0 0-.302.06m0 0-.182.06m0 .001-.12.06m-.001.001-.181.12m0 0-.06.06"/></g></g><g style="fill:none;stroke:#c20000;stroke-width:.127;stroke-opacity:1;stroke-linecap:round;stroke-linejoin:round"><rect width="7.62" height="19.05" x="60.325" y="3.175" rx="0"/><rect width="7.62" height="19.05" x="60.325" y="3.175" rx="0"/></g><g style="fill:none;stroke:#000084;stroke-width:.1524;stroke-opacity:1;stroke-linecap:round;stroke-linejoin:round"><g class="stroked-text"><desc>Expansion</desc><path d="M63.027 17.175v-.423m.665-.182v.605m0 0h-1.27m0 0v-.605m1.27-.423-.846-.665m0 .665.846-.665m-.846-.484h1.27m-1.21 0-.06-.121m0 0v-.242m0 0 .06-.12m0-.001.06-.06m.001 0 .12-.06m.001-.001h.362m0 0 .121.06m0 .001.06.06m.001 0 .06.121m0 0v.242m0 0-.06.121m.06-1.693h-.665m0 0-.121.06m0 0-.06.121m0 0v.242m0 0 .06.121m.726-.544.06.12m0 .001v.302m0 0-.06.121m0 0-.121.06m-.001.001h-.12m0 0-.121-.061m0 0-.06-.121m-.001 0v-.302m0 0-.06-.121m-.302-.605h.846m-.725 0-.061-.06m0 0-.06-.122m0 .001v-.182m0 0 .06-.12m0-.001.121-.06m0 0h.665m-.06-.545.06-.12m0-.001v-.241m0 0-.06-.121m0 0-.121-.06m-.001-.001h-.06m0 0-.12.06m0 .001-.061.12m0 .001v.181m0 0-.06.121m-.001 0-.12.06m0 0h-.061m0 0-.121-.06m0 0-.06-.121m0 0v-.181m0 0 .06-.121m.786-.605h-.846m-.424 0 .06.06m.001 0 .06-.06m0 0-.06-.06m0-.001-.06.06m-.001.001h.121m1.149-.786-.06.12m0 .001-.06.06m-.001 0-.12.06m-.001.001h-.363m.001 0-.121-.06m0-.001-.061-.06m0 0-.06-.121m0 0v-.182m0 0 .06-.12m0-.001.06-.06m.001 0 .12-.06m.001-.001h.362m0 0 .121.06m0 .001.06.06m.001 0 .06.121m0 0v.182m-.846-.967h.846m-.725 0-.061-.061m0 0-.06-.121m0 0v-.182m0 0 .06-.12m0-.001.121-.06m0 0h.665"/></g><g class="stroked-text"><desc>(Generic)</desc><path d="m66.22 16.42-.06.06m0 0-.181.12m0 0-.121.061m0 0-.182.06m0 .001-.302.06m0 0h-.242m0 0-.302-.06m0 0-.182-.06m0-.001-.12-.06m-.001-.001-.181-.12m0 0-.06-.06m.241-1.15-.06.121m0 0v.182m0 0 .06.181m0 0 .121.121m0 0 .121.06m.001.001.241.06m0 0h.181m0 0 .242-.06m0 0 .121-.061m0 0 .121-.121m0 0 .06-.181m.001 0v-.121m0 0-.06-.182m-.001 0-.06-.06m0 0h-.424m0 0v.242m.484-1.27.06.12m.001.001v.241m0 .001-.06.12m-.001.001-.12.06m-.001 0h-.483m0 0-.121-.06m-.001 0-.06-.122m0 .001v-.242m0 0 .06-.121m0 0 .122-.06m0-.001h.12m0 0 .122.605m-.424-1.149h.847m-.726 0-.06-.06m-.001-.001-.06-.12m0-.001v-.181m0 0 .06-.12m0-.001.122-.06m0 0h.665m-.061-1.089.06.121m.001 0v.242m0 0-.06.12m-.001.001-.12.06m-.001 0h-.483m0 0-.121-.06m-.001 0-.06-.121m0 0v-.242m0 0 .06-.12m0-.001.122-.06m0 0h.12m0 0 .122.604m.423-1.148h-.847m.242 0-.12-.061m-.001 0-.06-.06m-.001-.001-.06-.12m0-.001v-.12m.847-.424h-.847m-.423 0 .06.06m0 .001.06-.06m.001-.001-.06-.06m-.001 0-.06.06m0 0h.12m1.089-1.149.06.12m.001.001v.242m0 0-.06.12m-.001.001-.06.06m0 0-.121.06m0 .001h-.363m0 0-.12-.06m-.001-.001-.06-.06m-.001 0-.06-.121m0 0v-.242m0 0 .06-.121m1.27-.424-.06-.06m0 0-.181-.12m0 0-.121-.061m0 0-.182-.06m0-.001-.302-.06m0 0h-.242m0 0-.302.06m0 0-.182.06m0 .001-.12.06m-.001.001-.181.12m0 0-.06.06"/></g></g><g style="fill:none;stroke:#c20000;stroke-width:.127;stroke-opacity:1;stroke-linecap:round;stroke-linejoin:round"><rect width="7.62" height="19.05" x="78.105" y="3.175" rx="0"/><rect width="7.62" height="19.05" x="78.105" y="3.175" rx="0"/></g><g style="fill:none;stroke:#000084;stroke-width:.1524;stroke-opacity:1;stroke-linecap:round;stroke-linejoin:round"><g class="stroked-text"><desc>Expansion</desc><path d="M80.807 17.175v-.423m.665-.182v.605m0 0h-1.27m0 0v-.605m1.27-.423-.846-.665m0 .665.846-.665m-.846-.484h1.27m-1.21 0-.06-.121m0 0v-.242m0 0 .06-.12m0-.001.06-.06m.001 0 .12-.06m.001-.001h.362m0 0 .121.06m0 .001.06.06m.001 0 .06.121m0 0v.242m0 0-.06.121m.06-1.693h-.665m0 0-.121.06m0 0-.06.121m0 0v.242m0 0 .06.121m.726-.544.06.12m0 .001v.302m0 0-.06.121m0 0-.121.06m-.001.001h-.12m0 0-.121-.061m0 0-.06-.121m-.001 0v-.302m0 0-.06-.121m-.302-.605h.846m-.725 0-.061-.06m0 0-.06-.122m0 .001v-.182m0 0 .06-.12m0-.001.121-.06m0 0h.665m-.06-.545.06-.12m0-.001v-.241m0 0-.06-.121m0 0-.121-.06m-.001-.001h-.06m0 0-.12.06m0 .001-.061.12m0 .001v.181m0 0-.06.121m-.001 0-.12.06m0 0h-.061m0 0-.121-.06m0 0-.06-.121m0 0v-.181m0 0 .06-.121m.786-.605h-.846m-.424 0 .06.06m.001 0 .06-.06m0 0-.06-.06m0-.001-.06.06m-.001.001h.121m1.149-.786-.06.12m0 .001-.06.06m-.001 0-.12.06m-.001.001h-.362m0 0-.121-.06m0-.001-.061-.06m0 0-.06-.121m0 0v-.182m0 0 .06-.12m0-.001.06-.06m.001 0 .12-.06m.001-.001h.362m0 0 .121.06m0 .001.06.06m.001 0 .06.121m0 0v.182m-.846-.967h.846m-.725 0-.061-.061m0 0-.06-.121m0 0v-.182m0 0 .06-.12m0-.001.121-.06m0 0h.665"/></g><g class="stroked-text"><desc>(Generic)</desc><path d="m84 16.42-.06.06m0 0-.181.12m0 0-.121.061m0 0-.182.06m0 .001-.302.06m0 0h-.242m0 0-.302-.06m0 0-.182-.06m0-.001-.12-.06m-.001-.001-.181-.12m0 0-.06-.06m.241-1.15-.06.121m0 0v.182m0 0 .06.181m0 0 .121.121m0 0 .121.06m.001.001.241.06m0 0h.181m.001 0 .241-.06m0 0 .121-.061m0 0 .121-.121m0 0 .06-.181m.001 0v-.121m0 0-.06-.182m-.001 0-.06-.06m0 0h-.424m.001 0v.242m.483-1.27.06.12m.001.001v.241m0 .001-.06.12m-.001.001-.12.06m-.001 0h-.483m0 0-.121-.06m-.001 0-.06-.122m0 .001v-.242m0 0 .06-.121m0 0 .122-.06m0-.001h.12m.001 0 .12.605m-.423-1.149h.847m-.726 0-.06-.06m-.001-.001-.06-.12m0-.001v-.181m0 0 .06-.12m0-.001.122-.06m0 0h.665m-.061-1.089.06.121m.001 0v.242m0 0-.06.12m-.001.001-.12.06m-.001 0h-.483m0 0-.121-.06m-.001 0-.06-.121m0 0v-.242m0 0 .06-.12m0-.001.122-.06m0 0h.12m.001 0 .12.604m.424-1.148h-.847m.242 0-.12-.061m-.001 0-.06-.06m-.001-.001-.06-.12m0-.001v-.12m.847-.424h-.847m-.423 0 .06.06m0 .001.06-.06m.001-.001-.06-.06m-.001 0-.06.06m0 0h.12m1.089-1.149.06.12m.001.001v.242m0 0-.06.12m-.001.001-.06.06m0 0-.121.06m0 .001h-.363m0 0-.12-.06m-.001-.001-.06-.06m-.001 0-.06-.121m0 0v-.242m0 0 .06-.121M84 8.98l-.06-.06m0 0-.181-.12m0 0-.121-.061m0 0-.182-.06m0-.001-.302-.06m0 0h-.242m0 0-.302.06m0 0-.182.06m0 .001-.12.06m-.001.001-.181.12m0 0-.06.06"/></g></g><g style="fill:none;stroke:#c20000;stroke-width:.127;stroke-opacity:1;stroke-linecap:round;stroke-linejoin:round"><rect width="69.85" height="12.7" x="15.875" y="27.305" rx="0"/><rect width="69.85" height="12.7" x="15.875" y="27.305" rx="0"/></g><g class="stroked-text" style="fill:none;stroke:#000084;stroke-width:.1524;stroke-opacity:1;stroke-linecap:round;stroke-linejoin:round"><desc>Backplane</desc><path d="m46.658 33.57.18.06m.001 0 .06.06m.001 0 .06.121m0 0v.182m0 0-.06.12m0 .001-.061.06m0 0-.121.06m0 .001h-.484m0 0v-1.27m0 0h.423m.001 0 .12.06m0 0 .06.06m.001.001.06.12m.001 0v.121m0 0-.061.121m0 0-.06.06m-.001.001-.12.06m0 .001h-.424m1.814.665v-.666m0 .001-.06-.122m0 0-.121-.06m0 0h-.242m0 0-.12.06m.543.726-.12.06m0 .001h-.303m0 0-.12-.06m-.001-.001-.06-.12m0-.001v-.12m0-.001.06-.12m0-.001.121-.06m0-.001h.303m0 0 .12-.06m1.149.484-.12.06m0 .001h-.242m0 0-.121-.06m0-.001-.06-.06m-.001 0-.06-.121m0 0v-.363m0 0 .06-.121m0 0 .06-.06m.001-.001.12-.06m.001 0h.242m0 0 .12.06m.545.787v-1.27m.121.785.362.484m.001-.846-.484.484m1.028-.484v1.27m0-1.21.12-.06m0 0h.243m0 0 .12.06m.001 0 .06.06m0 .001.06.12m.001.001v.363m0 0-.06.12m-.001.001-.06.06m0 0-.121.06m0 .001h-.242m-.001 0-.12-.06m1.33.06-.12-.06m0-.001-.061-.12m0-.001v-1.088m1.209 1.27v-.666m0 .001-.06-.122m0 0-.121-.06m0 0h-.242m0 0-.121.06m.544.726-.12.06m-.001.001h-.302m0 0-.121-.06m0-.001-.06-.12m0-.001v-.12m0-.001.06-.12m0-.001.121-.06m0-.001h.302m0 0 .121-.06m.605-.302v.846m0-.725.06-.06m.001-.001.12-.06m.001 0h.18m.001 0 .12.06m.001 0 .06.121m0 .001v.664m1.089-.06-.121.06m0 .001h-.242m0 0-.121-.06m0-.001-.06-.12m0-.001v-.484m0 .001.06-.122m0 0 .121-.06m0 0h.242m0 0 .12.06m.001 0 .06.121m0 .001v.12m0 0-.604.121"/></g><g style="fill:none;stroke:#c20000;stroke-width:.127;stroke-opacity:1;stroke-linecap:round;stroke-linejoin:round"><rect width="7.62" height="19.05" x="69.215" y="3.175" rx="0"/><rect width="7.62" height="19.05" x="69.215" y="3.175" rx="0"/></g><g style="fill:none;stroke:#000084;stroke-width:.1524;stroke-opacity:1;stroke-linecap:round;stroke-linejoin:round"><g class="stroked-text"><desc>Expansion</desc><path d="M71.917 17.175v-.423m.665-.182v.605m0 0h-1.27m0 0v-.605m1.27-.423-.846-.665m0 .665.846-.665m-.846-.484h1.27m-1.21 0-.06-.121m0 0v-.242m0 0 .06-.12m0-.001.06-.06m.001 0 .12-.06m.001-.001h.362m0 0 .121.06m0 .001.06.06m.001 0 .06.121m0 0v.242m0 0-.06.121m.06-1.693h-.665m0 0-.121.06m0 0-.06.121m0 0v.242m0 0 .06.121m.726-.544.06.12m0 .001v.302m0 0-.06.121m0 0-.121.06m-.001.001h-.12m0 0-.121-.061m0 0-.06-.121m-.001 0v-.302m0 0-.06-.121m-.302-.605h.846m-.725 0-.061-.06m0 0-.06-.122m0 .001v-.182m0 0 .06-.12m0-.001.121-.06m0 0h.665m-.06-.545.06-.12m0-.001v-.241m0 0-.06-.121m0 0-.121-.06m-.001-.001h-.06m0 0-.12.06m0 .001-.061.12m0 .001v.181m0 0-.06.121m-.001 0-.12.06m0 0h-.061m0 0-.121-.06m0 0-.06-.121m0 0v-.181m0 0 .06-.121m.786-.605h-.846m-.424 0 .06.06m.001 0 .06-.06m0 0-.06-.06m0-.001-.06.06m-.001.001h.121m1.149-.786-.06.12m0 .001-.06.06m-.001 0-.12.06m-.001.001h-.362m0 0-.121-.06m0-.001-.061-.06m0 0-.06-.121m0 0v-.182m0 0 .06-.12m0-.001.06-.06m.001 0 .12-.06m.001-.001h.362m0 0 .121.06m0 .001.06.06m.001 0 .06.121m0 0v.182m-.846-.967h.846m-.725 0-.061-.061m0 0-.06-.121m0 0v-.182m0 0 .06-.12m0-.001.121-.06m0 0h.665"/></g><g class="stroked-text"><desc>(Generic)</desc><path d="m75.11 16.42-.06.06m0 0-.181.12m0 0-.121.061m0 0-.182.06m0 .001-.302.06m0 0h-.242m0 0-.302-.06m0 0-.182-.06m0-.001-.12-.06m-.001-.001-.181-.12m0 0-.06-.06m.241-1.15-.06.121m0 0v.182m0 0 .06.181m0 0 .121.121m0 0 .121.06m.001.001.241.06m0 0h.181m.001 0 .241-.06m0 0 .121-.061m0 0 .121-.121m0 0 .06-.181m.001 0v-.121m0 0-.06-.182m-.001 0-.06-.06m0 0h-.424m.001 0v.242m.483-1.27.06.12m.001.001v.241m0 .001-.06.12m-.001.001-.12.06m-.001 0h-.483m0 0-.121-.06m-.001 0-.06-.122m0 .001v-.242m0 0 .06-.121m0 0 .122-.06m0-.001h.12m.001 0 .12.605m-.423-1.149h.847m-.726 0-.06-.06m-.001-.001-.06-.12m0-.001v-.181m0 0 .06-.12m0-.001.122-.06m0 0h.665m-.061-1.089.06.121m.001 0v.242m0 0-.06.12m-.001.001-.12.06m-.001 0h-.483m0 0-.121-.06m-.001 0-.06-.121m0 0v-.242m0 0 .06-.12m0-.001.122-.06m0 0h.12m.001 0 .12.604m.424-1.148h-.847m.242 0-.12-.061m-.001 0-.06-.06m-.001-.001-.06-.12m0-.001v-.12m.847-.424h-.847m-.423 0 .06.06m0 .001.06-.06m.001-.001-.06-.06m-.001 0-.06.06m0 0h.12m1.089-1.149.06.12m.001.001v.242m0 0-.06.12m-.001.001-.06.06m0 0-.121.06m0 .001h-.363m0 0-.12-.06m-.001-.001-.06-.06m-.001 0-.06-.121m0 0v-.242m0 0 .06-.121m1.27-.424-.06-.06m0 0-.181-.12m0 0-.121-.061m0 0-.182-.06m0-.001-.302-.06m0 0h-.242m0 0-.302.06m0 0-.182.06m0 .001-.12.06m-.001.001-.181.12m0 0-.06.06"/></g></g><g class="stroked-text" style="fill:none;stroke:#0000c2;stroke-width:.1524;stroke-opacity:1;stroke-linecap:round;stroke-linejoin:round"><desc>E-Bus</desc><path stroke="none" d="M72.484 25.797v-.353h-.073v.353h-.207v-.366h-.073v.449h.648v-.465h-.073v.382Zm.018-.664v.214h.064v-.214Zm.132-.593.041.013.018.01.017.01.015.014.014.015.012.017.01.018.007.02.006.023.004.023.001.026v.292h-.648v-.243h.073v.16h.207v-.16l-.001-.025-.003-.016h.077v.201h.222v-.204l-.001-.02-.004-.019-.006-.016-.007-.014-.01-.013-.012-.01-.016-.01-.016-.006-.02-.005h-.033l-.033.007-.026.016-.011.01-.01.012-.007.015-.005.016-.004.019-.001.02h-.077l-.004-.022-.013-.028-.02-.02-.011-.007-.015-.006-.017-.003-.02-.001-.036.004-.014.006-.012.007-.011.01-.01.011-.008.016-.006.018-.004.028-.002.03h-.073v-.021l.001-.024.003-.026.005-.023.008-.022.009-.019.011-.017.013-.015.015-.013.016-.011.02-.01.02-.006.023-.005.021-.001h.02l.039.01.017.007.015.01.015.012.013.014.012.017.01.02.023-.046.024-.032.029-.022.017-.008.018-.005.022-.004.025-.002Zm.146-.462h-.468v.074h.265l.025.001.023.004.021.005.02.008.016.01.014.01.012.013.01.014.007.015.005.016.004.031-.001.018-.004.017-.005.014-.008.013-.01.01-.01.01-.027.01-.026.004h-.33v.074h.359l.019-.001.018-.004.016-.006.014-.008.025-.021.02-.03.011-.038.004-.04-.001-.026-.004-.023-.005-.02-.008-.017-.023-.032-.035-.031-.009-.007h.065Zm-.14-.161v.078l.026-.002.023-.005.02-.006.017-.008.015-.01.013-.012.021-.029.015-.037.008-.048v-.058l-.004-.027-.006-.024-.007-.022-.01-.02-.011-.016-.012-.015-.014-.012-.015-.01-.016-.008-.017-.005-.019-.003h-.036l-.018.004-.016.006-.013.008-.023.022-.02.033-.017.049-.002.009-.017.07-.008.03-.01.023-.008.013-.01.01-.008.006-.01.004-.012.001-.013-.001-.012-.004-.02-.014-.015-.022-.009-.032-.001-.026v-.021l.005-.019.005-.014.007-.012.009-.01.01-.007.025-.009.013-.001v-.078l-.022.001-.02.004-.018.006-.016.008-.014.01-.012.012-.02.029-.014.037-.007.048v.014l.001.027.004.025.006.023.007.02.01.019.011.016.013.014.013.01.015.01.017.007.017.005.019.002h.03l.02-.005.015-.006.013-.008.023-.022.02-.034.017-.054.005-.018.017-.07.007-.024.009-.019.008-.011.009-.009.02-.008h.024l.011.004.02.014.016.023.01.034.004.033-.002.024-.003.02-.005.016-.007.014-.017.02-.024.012Z" style="fill:#0000c2;fill-opacity:1;stroke:none;fill-rule:evenodd"/></g><g class="stroked-text" style="fill:none;stroke:#0000c2;stroke-width:.1524;stroke-opacity:1;stroke-linecap:round;stroke-linejoin:round"><desc>E-Bus</desc><path stroke="none" d="M81.374 25.797v-.353H81.3v.353h-.207v-.366h-.073v.449h.648v-.465h-.073v.382Zm.018-.664v.214h.064v-.214Zm.132-.593.041.013.018.01.017.01.015.014.014.015.012.017.01.018.007.02.006.023.004.023.001.026v.292h-.648v-.243h.073v.16h.207v-.16l-.001-.025-.003-.016h.077v.201h.222v-.204l-.001-.02-.004-.019-.006-.016-.007-.014-.01-.013-.012-.01-.016-.01-.016-.006-.02-.005h-.033l-.033.007-.026.016-.011.01-.01.012-.007.015-.005.016-.004.019-.001.02h-.077l-.004-.022-.013-.028-.02-.02-.011-.007-.015-.006-.017-.003-.02-.001-.036.004-.014.006-.012.007-.011.01-.01.011-.008.016-.006.018-.004.028-.002.03h-.073v-.021l.001-.024.003-.026.005-.023.008-.022.009-.019.011-.017.013-.015.015-.013.016-.011.02-.01.02-.006.023-.005.021-.001h.02l.039.01.017.007.015.01.015.012.013.014.012.017.01.02.023-.046.024-.032.029-.022.017-.008.018-.005.022-.004.025-.002Zm.146-.462h-.468v.074h.265l.025.001.023.004.021.005.02.008.016.01.014.01.012.013.01.014.007.015.005.016.004.031-.001.018-.004.017-.005.014-.008.013-.01.01-.01.01-.027.01-.026.004h-.33v.074h.359l.019-.001.018-.004.016-.006.014-.008.025-.021.02-.03.011-.038.004-.04-.001-.026-.004-.023-.005-.02-.008-.017-.023-.032-.035-.031-.009-.007h.065Zm-.14-.161v.078l.026-.002.023-.005.02-.006.017-.008.015-.01.013-.012.021-.029.015-.037.008-.048v-.058l-.004-.027-.006-.024-.007-.022-.01-.02-.011-.016-.012-.015-.014-.012-.015-.01-.016-.008-.017-.005-.019-.003h-.036l-.018.004-.016.006-.013.008-.023.022-.02.033-.017.049-.002.009-.017.07-.008.03-.01.023-.008.013-.01.01-.008.006-.01.004-.012.001-.013-.001-.012-.004-.02-.014-.015-.022-.009-.032-.001-.026v-.021l.004-.019.006-.014.007-.012.009-.01.01-.007.025-.009.013-.001v-.078l-.022.001-.02.004-.018.006-.016.008-.014.01-.012.012-.02.029-.014.037-.007.048v.014l.001.027.004.025.006.023.008.02.009.019.011.016.013.014.013.01.015.01.017.007.017.005.019.002h.03l.02-.005.015-.006.013-.008.023-.022.02-.034.017-.054.005-.018.017-.07.007-.024.009-.019.008-.011.009-.009.02-.008h.024l.011.004.02.014.016.023.01.034.004.033-.002.024-.003.02-.005.016-.007.014-.017.02-.024.012Z" style="fill:#0000c2;fill-opacity:1;stroke:none;fill-rule:evenodd"/></g><g class="stroked-text" style="fill:none;stroke:#0000c2;stroke-width:.1524;stroke-opacity:1;stroke-linecap:round;stroke-linejoin:round"><desc>Video</desc><path stroke="none" d="m19.44 25.541-.649-.224v.087l.549.18-.549.19v.09l.648-.234Zm-.467-.371v.074h.466v-.074Zm-.182 0v.075h.094v-.075Zm.649-.442h-.062l.006.005.034.03.023.031.008.018.005.018.004.023v.046l-.01.043-.007.02-.01.018-.012.017-.014.015-.017.015-.018.013-.022.011-.023.01-.027.008-.028.006-.032.003-.033.001h-.03l-.056-.01-.048-.017-.039-.023-.03-.03-.023-.034-.008-.02-.006-.02-.004-.023v-.035h.069v.006l.002.017.004.017.007.016.009.014.011.014.014.012.016.011.019.01.021.007.023.006.026.004.027.001h.018l.05-.008.04-.015.031-.02.023-.027.014-.03.003-.018.002-.018v-.002l-.002-.018-.004-.016-.006-.015-.009-.015-.01-.013-.014-.012-.017-.011-.018-.01-.021-.007-.024-.006-.026-.003-.028-.002h-.015l-.052.007-.041.015-.032.02-.023.025-.008.014-.006.015-.003.017-.002.018h-.068l.005-.036.014-.037.022-.032.014-.014.016-.012h-.24v-.073h.647Zm-.21-.223h.006l.047-.006.038-.014.03-.02.021-.026.008-.016.006-.016.003-.019.002-.02-.002-.02-.009-.032-.007-.015-.01-.013-.013-.013-.014-.01-.018-.01-.02-.009v-.074l.011.002.044.015.036.023.016.014.013.015.012.018.01.019.008.02.006.023.004.024v.052l-.01.045-.018.04-.012.017-.014.016-.016.015-.018.013-.021.011-.023.01-.025.008-.027.006-.03.003-.032.002-.04-.003-.055-.01-.047-.018-.038-.025-.03-.031-.013-.018-.01-.019-.008-.02-.006-.022-.004-.023v-.024h.068l.002.024.004.017.006.016.01.015.01.014.013.012.015.011.018.01.019.006.021.005.023.003v-.262l-.035.004-.036.012-.03.02-.022.026-.014.032-.003.017-.001.018h-.069l.002-.029.009-.044.007-.02.01-.018.012-.017.013-.015.017-.014.018-.012.022-.011.024-.01.029-.007.031-.006.037-.004.04-.001Zm.02-.815.054.009.047.017.037.024.03.03.012.018.01.018.008.02.006.023.004.024v.052l-.01.045-.017.039-.012.017-.014.016-.016.015-.018.013-.021.011-.023.01-.026.008-.027.005-.031.004-.034.001-.038-.002-.056-.01-.046-.016-.038-.024-.03-.03-.012-.017-.01-.019-.008-.02-.006-.022-.004-.024v-.026h.068v.005l.006.034.006.016.008.014.012.014.013.012.016.01.018.01.022.007.023.006.027.004h.046l.052-.006.04-.015.031-.02.023-.025.008-.014.006-.016.003-.018.002-.019v-.004l-.002-.018-.004-.017-.007-.015-.008-.015-.011-.013-.014-.012-.015-.011-.019-.01-.02-.007-.024-.006-.026-.004h-.047l-.053.007-.04.014-.032.02-.022.024-.008.015-.006.016-.003.018-.001.018h-.069l.002-.027.009-.045.018-.039.011-.017.014-.016.017-.014.018-.013.02-.011.024-.01.026-.008.028-.005.032-.004.034-.001Z" style="fill:#0000c2;fill-opacity:1;stroke:none;fill-rule:evenodd"/></g><g class="stroked-text" style="fill:none;stroke:#0000c2;stroke-width:.1524;stroke-opacity:1;stroke-linecap:round;stroke-linejoin:round"><desc>SBLink</desc><path stroke="none" d="m16.846 25.872-.001.029-.004.026-.005.023-.007.02-.01.018-.01.015-.024.024-.03.017-.034.01h-.028v.079l.028-.002.027-.003.023-.006.022-.008.037-.021.03-.029.025-.035.018-.043.012-.05.004-.059-.001-.034-.004-.032-.005-.028-.008-.025-.009-.023-.01-.02-.026-.035-.031-.026-.036-.018-.04-.01-.028-.002H16.7l-.02.005-.019.005-.017.008-.031.023-.026.031-.02.04-.008.025-.044.163-.01.034-.011.026-.01.016-.01.012-.011.008-.012.006-.027.005h-.004l-.016-.002-.015-.003-.027-.014-.022-.022-.017-.032-.01-.04-.002-.032.001-.028.004-.025.005-.022.008-.019.009-.016.01-.014.013-.011.013-.01.032-.012.036-.005v-.078l-.026.001-.024.004-.021.006-.02.008-.018.01-.017.012-.028.03-.022.038-.016.046-.008.056v.057l.004.03.006.026.008.025.01.021.011.02.013.017.014.015.016.013.017.01.018.01.02.006.044.006h.031l.02-.005.019-.005.017-.008.014-.01.013-.012.023-.03.018-.041.004-.016.043-.16.009-.032.01-.026.01-.018.012-.015.012-.011.012-.008.026-.009h.032l.02.006.015.007.014.01.012.01.01.015.01.016.006.02.006.021.003.026Zm-.092-.84.041.012.018.01.017.01.015.014.014.015.012.017.01.018.007.02.006.023.004.024.001.025v.292h-.648v-.243h.073v.16h.207v-.16l-.001-.025-.003-.016h.077v.201h.222v-.204l-.001-.02-.004-.018-.006-.017-.007-.014-.01-.013-.012-.01-.016-.01-.016-.006-.02-.005h-.033l-.033.008-.026.015-.011.01-.01.012-.007.015-.006.016-.003.019-.001.02h-.077l-.004-.022-.013-.028-.02-.02-.011-.007-.015-.006-.017-.003-.02-.001-.036.004-.014.006-.012.007-.011.01-.01.011-.008.016-.006.018-.004.028-.002.03h-.073v-.021l.001-.024.003-.026.006-.024.007-.02.009-.02.011-.017.013-.015.015-.013.016-.011.02-.01.02-.006.023-.005.021-.001.02.001.039.009.017.007.015.01.015.012.013.014.012.017.01.02.023-.046.024-.032.029-.022.017-.008.018-.005.022-.004.024-.002Zm-.503-.192v.082h.648v-.403h-.073v.32Zm.182-.48v.074h.466v-.074Zm-.182 0v.075h.094v-.075Zm.182-.117h.466v-.075h-.257l-.025-.001-.023-.004-.021-.006-.02-.007-.016-.01-.014-.01-.012-.013-.01-.014-.007-.015-.005-.016-.004-.03.001-.019.004-.016.005-.015.008-.012.01-.01.01-.01.027-.011.026-.003h.323v-.074h-.352l-.019.001-.018.004-.016.006-.014.007-.026.022-.018.03-.012.037-.004.04.001.025.004.023.005.018.008.018.022.03.034.03.017.011h-.078Zm-.182-.551v.073h.648v-.073h-.182l-.07-.072.252-.158v-.091l-.305.19-.162-.162v.095l.198.198Z" style="fill:#0000c2;fill-opacity:1;stroke:none;fill-rule:evenodd"/></g><g class="stroked-text" style="fill:none;stroke:#0000c2;stroke-width:.1524;stroke-opacity:1;stroke-linecap:round;stroke-linejoin:round"><desc>Audio</desc><path stroke="none" d="m21.98 25.402-.195.066v.25l.194.068v.088l-.648-.23v-.053h.09l.295.107v-.207l-.296.1h-.089v-.054l.648-.228Zm0-.53h-.468v.074h.29l.023.005.021.005.02.008.015.01.015.01.012.013.01.014.007.014.005.016.004.032-.001.018-.004.017-.005.014-.008.013-.01.01-.01.01-.027.01-.026.004h-.33v.074h.359l.019-.002.018-.003.016-.006.014-.008.025-.022.02-.03.011-.037.004-.04-.001-.026-.004-.024-.006-.019-.007-.017-.023-.032-.035-.032-.009-.006h.065Zm0-.431h-.062l.006.004.034.03.023.032.008.017.005.02.004.021v.047l-.01.043-.007.02-.01.018-.012.017-.014.015-.017.015-.018.013-.022.011-.023.01-.027.008-.028.005-.031.004-.034.001h-.03l-.056-.01-.048-.017-.039-.023-.03-.03-.023-.035-.008-.019-.006-.02-.004-.023v-.035h.069v.006l.002.017.004.017.007.015.009.015.011.014.014.012.016.011.019.01.021.007.023.006.026.004h.045l.05-.007.04-.015.031-.021.023-.026.014-.03.003-.018.002-.018v-.003l-.002-.017-.004-.016-.006-.015-.009-.015-.01-.013-.014-.012-.017-.011-.018-.01-.021-.007-.024-.006-.026-.004h-.043l-.052.006-.042.015-.031.02-.023.025-.008.014-.006.015-.003.017-.002.018h-.068l.005-.036.014-.037.022-.032.014-.014.016-.012h-.24v-.074h.647Zm-.467-.252v.073h.466v-.073Zm-.182 0v.074h.094v-.074Zm.459-.511.054.01.046.017.038.024.03.03.012.017.01.02.008.02.006.022.004.024v.052l-.01.045-.017.039-.012.017-.014.016-.016.015-.018.012-.021.012-.023.01-.026.007-.027.006-.031.004-.034.001-.038-.002-.056-.01-.046-.017-.038-.023-.03-.03-.012-.017-.01-.019-.008-.02-.006-.022-.004-.024v-.026h.068v.004l.006.035.006.016.009.014.01.013.014.012.016.011.018.01.022.007.023.006.027.003.03.002h.016l.052-.008.04-.014.032-.02.022-.025.008-.015.006-.015.003-.018.002-.019v-.004l-.002-.018-.004-.017-.007-.015-.008-.015-.011-.014-.014-.012-.016-.01-.018-.01-.02-.007-.024-.006-.026-.004-.029-.001h-.018l-.053.007-.04.015-.032.02-.022.024-.008.015-.006.016-.003.017-.001.02H21.5l.002-.028.009-.045.018-.04.012-.016.013-.016.017-.014.018-.013.02-.011.024-.01.026-.008.028-.006.032-.003.034-.001Z" style="fill:#0000c2;fill-opacity:1;stroke:none;fill-rule:evenodd"/></g><g class="stroked-text" style="fill:none;stroke:#0000c2;stroke-width:.1524;stroke-opacity:1;stroke-linecap:round;stroke-linejoin:round"><desc>E-Bus</desc><path stroke="none" d="M54.704 25.797v-.353h-.073v.353h-.207v-.366h-.073v.449H55v-.465h-.073v.382Zm.018-.664v.214h.064v-.214Zm.132-.593.041.013.018.01.017.01.015.014.014.015.012.017.01.018.007.02.006.023.004.023.001.026v.292h-.648v-.243h.073v.16h.207v-.16l-.001-.025-.003-.016h.077v.201h.222v-.204l-.001-.02-.004-.019-.006-.016-.007-.014-.01-.013-.012-.01-.016-.01-.016-.006-.02-.005h-.033l-.033.007-.026.016-.011.01-.01.012-.007.015-.005.016-.004.019-.001.02h-.077l-.004-.022-.013-.028-.02-.02-.012-.007-.014-.006-.017-.003-.02-.001-.036.004-.014.006-.012.007-.011.01-.01.011-.008.016-.006.018-.004.028-.002.03h-.073v-.021l.001-.024.003-.026.006-.023.007-.022.009-.019.011-.017.013-.015.015-.013.016-.011.02-.01.02-.006.023-.005.021-.001h.02l.039.01.017.007.015.01.015.012.013.014.012.017.01.02.023-.046.024-.032.029-.022.017-.008.018-.005.022-.004.025-.002Zm.146-.462h-.468v.074h.265l.025.001.023.004.021.005.02.008.015.01.015.01.012.013.01.014.007.015.005.016.004.031-.001.018-.004.017-.005.014-.008.013-.01.01-.01.01-.027.01-.027.004h-.33v.074h.36l.019-.001.018-.004.016-.006.014-.008.025-.021.02-.03.011-.038.004-.04-.001-.026-.004-.023-.006-.02-.007-.017-.023-.032-.035-.031-.009-.007H55Zm-.14-.161v.078l.026-.002.023-.005.02-.006.017-.008.015-.01.014-.012.02-.029.015-.037.008-.048v-.058l-.004-.027-.006-.024-.007-.022-.01-.02-.011-.016-.012-.015-.014-.012-.015-.01-.016-.008-.017-.005-.019-.003h-.036l-.018.004-.015.006-.014.008-.023.022-.02.033-.017.049-.002.009-.017.07-.008.03-.01.023-.008.013-.01.01-.008.006-.01.004-.012.001-.013-.001-.012-.004-.02-.014-.015-.022-.009-.032-.001-.026v-.021l.005-.019.005-.014.007-.012.009-.01.01-.007.025-.009.013-.001v-.078l-.022.001-.02.004-.018.006-.016.008-.014.01-.012.012-.02.029-.014.037-.007.048v.014l.001.027.004.025.006.023.008.02.009.019.011.016.013.014.013.01.015.01.017.007.017.005.019.002h.03l.02-.005.015-.006.013-.008.023-.022.02-.034.017-.054.005-.018.017-.07.007-.024.009-.019.008-.011.009-.009.02-.008h.024l.011.004.02.014.016.023.01.034.003.033v.024l-.004.02-.005.016-.007.014-.017.02-.024.012Z" style="fill:#0000c2;fill-opacity:1;stroke:none;fill-rule:evenodd"/></g><g class="stroked-text" style="fill:none;stroke:#0000c2;stroke-width:.1524;stroke-opacity:1;stroke-linecap:round;stroke-linejoin:round"><desc>E-Bus</desc><path stroke="none" d="M35.654 25.797v-.353h-.073v.353h-.207v-.366h-.073v.449h.648v-.465h-.073v.382Zm.018-.664v.214h.064v-.214Zm.132-.593.041.013.018.01.017.01.015.014.014.015.012.017.01.018.007.02.006.023.004.023.001.026v.292h-.648v-.243h.073v.16h.207v-.16l-.001-.025-.003-.016h.077v.201h.222v-.204l-.001-.02-.004-.019-.006-.016-.007-.014-.01-.013-.012-.01-.015-.01-.017-.006-.02-.005h-.033l-.033.007-.026.016-.011.01-.01.012-.007.015-.006.016-.003.019-.001.02h-.077l-.004-.022-.013-.028-.02-.02-.011-.007-.015-.006-.017-.003-.02-.001-.036.004-.014.006-.012.007-.011.01-.01.011-.008.016-.006.018-.004.028-.002.03h-.073v-.021l.001-.024.003-.026.005-.023.008-.022.009-.019.011-.017.013-.015.015-.013.016-.011.02-.01.02-.006.023-.005.021-.001h.02l.039.01.017.007.015.01.015.012.013.014.012.017.01.02.023-.046.024-.032.029-.022.017-.008.018-.005.022-.004.024-.002Zm.146-.462h-.468v.074h.265l.025.001.023.004.021.005.02.008.016.01.014.01.012.013.01.014.007.015.005.016.004.031-.001.018-.004.017-.005.014-.008.013-.01.01-.01.01-.027.01-.026.004h-.33v.074h.359l.019-.001.018-.004.016-.006.014-.008.025-.021.02-.03.011-.038.004-.04-.001-.026-.004-.023-.005-.02-.008-.017-.023-.032-.035-.031-.009-.007h.065Zm-.14-.161v.078l.026-.002.023-.005.02-.006.018-.008.014-.01.014-.012.02-.029.015-.037.008-.048v-.058l-.004-.027-.006-.024-.007-.022-.01-.02-.011-.016-.012-.015-.014-.012-.015-.01-.016-.008-.017-.005-.019-.003h-.036l-.018.004-.016.006-.013.008-.023.022-.02.033-.017.049-.002.009-.017.07-.008.03-.01.023-.008.013-.01.01-.008.006-.01.004-.012.001-.013-.001-.012-.004-.02-.014-.015-.022-.009-.032-.001-.026v-.021l.005-.019.005-.014.007-.012.009-.01.01-.007.025-.009.013-.001v-.078l-.022.001-.02.004-.018.006-.016.008-.014.01-.012.012-.02.029-.014.037-.007.048v.014l.001.027.004.025.006.023.008.02.009.019.011.016.013.014.013.01.015.01.017.007.017.005.019.002h.03l.02-.005.015-.006.014-.008.022-.022.02-.034.017-.054.005-.018.017-.07.007-.024.009-.019.008-.011.009-.009.02-.008h.024l.011.004.02.014.016.023.01.034.004.033-.002.024-.003.02-.005.016-.007.014-.017.02-.024.012Z" style="fill:#0000c2;fill-opacity:1;stroke:none;fill-rule:evenodd"/></g><g class="stroked-text" style="fill:none;stroke:#0000c2;stroke-width:.1524;stroke-opacity:1;stroke-linecap:round;stroke-linejoin:round"><desc>Video</desc><path stroke="none" d="m29.6 25.541-.649-.224v.087l.549.18-.549.19v.09l.648-.234Zm-.467-.371v.074h.466v-.074Zm-.182 0v.075h.094v-.075Zm.649-.442h-.062l.006.005.034.03.023.031.008.018.005.018.004.023v.046l-.01.043-.007.02-.01.018-.012.017-.014.015-.017.015-.018.013-.022.011-.023.01-.027.008-.028.006-.032.003-.033.001h-.03l-.056-.01-.048-.017-.039-.023-.03-.03-.023-.034-.008-.02-.006-.02-.004-.023v-.035h.069v.006l.002.017.004.017.007.016.009.014.011.014.014.012.016.011.019.01.021.007.023.006.026.004.027.001h.018l.05-.008.04-.015.031-.02.023-.027.014-.03.003-.018.002-.018v-.002l-.002-.018-.004-.016-.006-.015-.009-.015-.01-.013-.014-.012-.017-.011-.018-.01-.021-.007-.024-.006-.026-.003-.028-.002h-.015l-.052.007-.041.015-.032.02-.023.025-.008.014-.006.015-.003.017-.002.018h-.068l.005-.036.014-.037.022-.032.014-.014.016-.012h-.24v-.073h.647Zm-.21-.223h.006l.047-.006.038-.014.03-.02.021-.026.008-.016.006-.016.003-.019.002-.02-.002-.02-.009-.032-.007-.015-.01-.013-.013-.013-.014-.01-.018-.01-.02-.009v-.074l.011.002.044.015.036.023.016.014.013.015.012.018.01.019.008.02.006.023.004.024v.052l-.01.045-.018.04-.012.017-.014.016-.016.015-.018.013-.021.011-.023.01-.025.008-.027.006-.03.003-.032.002-.04-.003-.055-.01-.047-.018-.038-.025-.03-.031-.013-.018-.01-.019-.008-.02-.006-.022-.004-.023v-.024h.068l.002.024.004.017.006.016.01.015.01.014.013.012.015.011.018.01.019.006.021.005.023.003v-.262l-.035.004-.036.012-.03.02-.022.026-.014.032-.003.017-.001.018h-.069l.002-.029.009-.044.007-.02.01-.018.012-.017.013-.015.017-.014.018-.012.022-.011.024-.01.029-.007.031-.006.037-.004.04-.001Zm.02-.815.054.009.047.017.037.024.03.03.012.018.01.018.008.02.006.023.004.024v.052l-.01.045-.017.039-.012.017-.014.016-.016.015-.018.013-.021.011-.023.01-.026.008-.027.005-.031.004-.034.001-.038-.002-.056-.01-.046-.016-.038-.024-.03-.03-.012-.017-.01-.019-.008-.02-.006-.022-.004-.024v-.026h.068v.005l.006.034.006.016.008.014.012.014.013.012.016.01.018.01.022.007.023.006.027.004h.046l.052-.006.04-.015.031-.02.023-.025.008-.014.006-.016.003-.018.002-.019v-.004l-.002-.018-.004-.017-.007-.015-.008-.015-.011-.013-.013-.012-.017-.011-.018-.01-.02-.007-.024-.006-.026-.004h-.047l-.053.007-.04.014-.032.02-.022.024-.008.015-.006.016-.003.018-.001.018h-.069l.002-.027.009-.045.018-.039.011-.017.014-.016.017-.014.018-.013.02-.011.024-.01.026-.008.028-.005.032-.004.034-.001Z" style="fill:#0000c2;fill-opacity:1;stroke:none;fill-rule:evenodd"/></g><g class="stroked-text" style="fill:none;stroke:#0000c2;stroke-width:.1524;stroke-opacity:1;stroke-linecap:round;stroke-linejoin:round"><desc>E-Bus</desc><path stroke="none" d="M26.764 25.797v-.353h-.073v.353h-.207v-.366h-.073v.449h.648v-.465h-.073v.382Zm.018-.664v.214h.064v-.214Zm.132-.593.041.013.018.01.017.01.015.014.014.015.012.017.01.018.007.02.006.023.004.023.001.026v.292h-.648v-.243h.073v.16h.207v-.16l-.001-.025-.003-.016h.077v.201h.222v-.204l-.001-.02-.004-.019-.006-.016-.007-.014-.01-.013-.012-.01-.016-.01-.016-.006-.02-.005h-.033l-.033.007-.026.016-.011.01-.01.012-.007.015-.006.016-.003.019-.001.02h-.077l-.004-.022-.013-.028-.02-.02-.011-.007-.015-.006-.017-.003-.02-.001-.036.004-.014.006-.012.007-.011.01-.01.011-.008.016-.006.018-.004.028-.002.03h-.073v-.021l.001-.024.003-.026.006-.023.007-.022.009-.019.011-.017.013-.015.015-.013.016-.011.02-.01.02-.006.023-.005.021-.001h.02l.039.01.017.007.015.01.015.012.013.014.012.017.01.02.023-.046.024-.032.029-.022.017-.008.018-.005.022-.004.024-.002Zm.146-.462h-.467v.074h.264l.025.001.023.004.021.005.02.008.015.01.015.01.012.013.01.014.007.015.005.016.004.031-.001.018-.004.017-.005.014-.008.013-.01.01-.01.01-.027.01-.027.004h-.33v.074h.36l.019-.001.018-.004.016-.006.014-.008.025-.021.02-.03.011-.038.004-.04-.001-.026-.004-.023-.006-.02-.007-.017-.023-.032-.035-.031-.009-.007h.065Zm-.14-.161v.078l.026-.002.023-.005.02-.006.017-.008.015-.01.014-.012.02-.029.015-.037.008-.048v-.058l-.004-.027-.006-.024-.007-.022-.01-.02-.011-.016-.012-.015-.014-.012-.015-.01-.016-.008-.017-.005-.019-.003h-.035l-.02.004-.014.006-.014.008-.023.022-.02.033-.017.049-.002.009-.017.07-.008.03-.01.023-.008.013-.01.01-.008.006-.01.004-.012.001-.013-.001-.012-.004-.02-.014-.015-.022-.009-.032-.001-.026v-.021l.005-.019.005-.014.007-.012.009-.01.01-.007.025-.009.013-.001v-.078l-.022.001-.02.004-.018.006-.016.008-.014.01-.012.012-.02.029-.014.037-.007.048v.014l.001.027.004.025.006.023.008.02.009.019.011.016.012.014.014.01.015.01.017.007.017.005.019.002h.03l.02-.005.015-.006.014-.008.022-.022.02-.034.017-.054.005-.018.017-.07.007-.024.009-.019.008-.011.009-.009.02-.008h.024l.011.004.02.014.016.023.01.034.003.033v.024l-.004.02-.005.016-.007.014-.017.02-.024.012Z" style="fill:#0000c2;fill-opacity:1;stroke:none;fill-rule:evenodd"/></g><g class="stroked-text" style="fill:none;stroke:#0000c2;stroke-width:.1524;stroke-opacity:1;stroke-linecap:round;stroke-linejoin:round"><desc>Audio</desc><path stroke="none" d="m38.49 25.402-.195.066v.25l.194.068v.088l-.648-.23v-.053h.09l.295.107v-.207l-.296.1h-.089v-.054l.648-.228Zm0-.53h-.468v.074h.29l.023.005.021.005.02.008.016.01.014.01.012.013.01.014.007.014.005.016.004.032-.001.018-.004.017-.005.014-.008.013-.01.01-.01.01-.027.01-.026.004h-.33v.074h.359l.019-.002.018-.003.016-.006.014-.008.025-.022.02-.03.011-.037.004-.04-.001-.026-.004-.024-.005-.019-.008-.017-.023-.032-.035-.032-.009-.006h.065Zm0-.431h-.062l.006.004.034.03.023.032.008.017.005.02.004.021v.047l-.01.043-.007.02-.01.018-.012.017-.014.015-.017.015-.018.013-.022.011-.023.01-.027.008-.028.005-.032.004-.033.001h-.03l-.056-.01-.048-.017-.039-.023-.03-.03-.023-.035-.008-.019-.006-.02-.004-.023v-.035h.069v.006l.002.017.004.017.007.015.009.015.011.014.014.012.016.011.019.01.021.007.023.006.026.004h.045l.05-.007.04-.015.031-.021.023-.026.014-.03.003-.018.002-.018v-.003l-.002-.017-.004-.016-.006-.015-.009-.015-.01-.013-.014-.012-.017-.011-.018-.01-.021-.007-.024-.006-.026-.004h-.043l-.052.006-.041.015-.032.02-.023.025-.008.014-.006.015-.003.017-.002.018h-.068l.005-.036.014-.037.022-.032.014-.014.016-.012h-.24v-.074h.647Zm-.467-.252v.073h.466v-.073Zm-.182 0v.074h.094v-.074Zm.459-.511.054.01.047.017.037.024.03.03.012.017.01.02.008.02.006.022.004.024v.052l-.01.045-.017.039-.012.017-.014.016-.016.015-.018.012-.021.012-.023.01-.026.007-.027.006-.031.004-.033.001-.039-.002-.056-.01-.046-.017-.038-.023-.03-.03-.012-.017-.01-.019-.008-.02-.006-.022-.004-.024v-.026h.068v.004l.006.035.006.016.008.014.012.013.013.012.016.011.018.01.022.007.023.006.027.003.03.002h.016l.052-.008.04-.014.032-.02.022-.025.008-.015.006-.015.003-.018.002-.019v-.004l-.002-.018-.004-.017-.007-.015-.008-.015-.011-.014-.014-.012-.016-.01-.018-.01-.02-.007-.024-.006-.026-.004-.029-.001h-.019l-.052.007-.04.015-.032.02-.022.024-.008.015-.005.016-.004.017-.001.02h-.069l.002-.028.009-.045.018-.04.011-.016.014-.016.017-.014.018-.013.02-.011.024-.01.026-.008.028-.006.032-.003.034-.001Z" style="fill:#0000c2;fill-opacity:1;stroke:none;fill-rule:evenodd"/></g><g class="stroked-text" style="fill:none;stroke:#0000c2;stroke-width:.1524;stroke-opacity:1;stroke-linecap:round;stroke-linejoin:round"><desc>E-Bus</desc><path stroke="none" d="M63.594 25.797v-.353h-.073v.353h-.207v-.366h-.073v.449h.648v-.465h-.073v.382Zm.018-.664v.214h.064v-.214Zm.132-.593.041.013.018.01.017.01.015.014.014.015.012.017.01.018.007.02.006.023.004.023.001.026v.292h-.648v-.243h.073v.16h.207v-.16l-.001-.025-.003-.016h.077v.201h.222v-.204l-.001-.02-.004-.019-.006-.016-.007-.014-.01-.013-.012-.01-.016-.01-.016-.006-.02-.005h-.033l-.033.007-.026.016-.011.01-.01.012-.007.015-.005.016-.004.019-.001.02h-.077l-.004-.022-.013-.028-.02-.02-.011-.007-.015-.006-.017-.003-.02-.001-.036.004-.014.006-.012.007-.011.01-.01.011-.008.016-.006.018-.004.028-.002.03h-.073v-.021l.001-.024.003-.026.006-.023.007-.022.009-.019.011-.017.013-.015.015-.013.016-.011.02-.01.02-.006.023-.005.021-.001h.02l.039.01.017.007.015.01.015.012.013.014.012.017.01.02.023-.046.024-.032.029-.022.017-.008.018-.005.022-.004.025-.002Zm.146-.462h-.468v.074h.265l.025.001.023.004.021.005.02.008.015.01.015.01.012.013.01.014.007.015.005.016.004.031-.001.018-.004.017-.005.014-.008.013-.01.01-.01.01-.027.01-.027.004h-.33v.074h.36l.019-.001.018-.004.016-.006.014-.008.025-.021.02-.03.011-.038.004-.04-.001-.026-.004-.023-.006-.02-.007-.017-.023-.032-.035-.031-.009-.007h.065Zm-.14-.161v.078l.026-.002.023-.005.02-.006.017-.008.015-.01.014-.012.02-.029.015-.037.008-.048v-.058l-.004-.027-.006-.024-.007-.022-.01-.02-.011-.016-.012-.015-.014-.012-.015-.01-.016-.008-.017-.005-.019-.003h-.036l-.018.004-.015.006-.014.008-.023.022-.02.033-.017.049-.002.009-.017.07-.008.03-.01.023-.008.013-.01.01-.008.006-.01.004-.012.001-.013-.001-.012-.004-.02-.014-.015-.022-.009-.032-.001-.026v-.021l.005-.019.005-.014.007-.012.009-.01.01-.007.025-.009.013-.001v-.078l-.022.001-.02.004-.018.006-.016.008-.014.01-.012.012-.02.029-.014.037-.007.048v.014l.001.027.004.025.006.023.008.02.009.019.011.016.013.014.013.01.015.01.017.007.017.005.019.002h.03l.02-.005.015-.006.014-.008.022-.022.02-.034.017-.054.005-.018.017-.07.007-.024.009-.019.008-.011.009-.009.02-.008h.024l.011.004.02.014.016.023.01.034.003.033v.024l-.004.02-.005.016-.007.014-.017.02-.024.012Z" style="fill:#0000c2;fill-opacity:1;stroke:none;fill-rule:evenodd"/></g><g class="stroked-text" style="fill:none;stroke:#0000c2;stroke-width:.1524;stroke-opacity:1;stroke-linecap:round;stroke-linejoin:round"><desc>E-Bus</desc><path stroke="none" d="M45.814 25.797v-.353h-.073v.353h-.207v-.366h-.073v.449h.648v-.465h-.073v.382Zm.018-.664v.214h.064v-.214Zm.132-.593.041.013.018.01.017.01.015.014.014.015.012.017.01.018.007.02.006.023.004.023.001.026v.292h-.648v-.243h.073v.16h.207v-.16l-.001-.025-.003-.016h.077v.201h.222v-.204l-.001-.02-.004-.019-.006-.016-.007-.014-.01-.013-.012-.01-.016-.01-.016-.006-.02-.005h-.033l-.033.007-.026.016-.011.01-.01.012-.007.015-.005.016-.004.019-.001.02h-.077l-.004-.022-.013-.028-.02-.02-.012-.007-.014-.006-.017-.003-.02-.001-.036.004-.014.006-.012.007-.011.01-.01.011-.008.016-.006.018-.004.028-.002.03h-.073v-.021l.001-.024.003-.026.005-.023.008-.022.009-.019.011-.017.013-.015.015-.013.016-.011.02-.01.02-.006.023-.005.021-.001h.02l.039.01.017.007.015.01.015.012.013.014.012.017.01.02.023-.046.024-.032.029-.022.017-.008.018-.005.022-.004.025-.002Zm.146-.462h-.468v.074h.265l.025.001.023.004.021.005.02.008.015.01.015.01.012.013.01.014.007.015.005.016.004.031-.001.018-.004.017-.005.014-.008.013-.01.01-.01.01-.027.01-.027.004h-.33v.074h.36l.019-.001.018-.004.016-.006.014-.008.025-.021.02-.03.011-.038.004-.04-.001-.026-.004-.023-.006-.02-.007-.017-.023-.032-.035-.031-.009-.007h.065Zm-.14-.161v.078l.026-.002.023-.005.02-.006.017-.008.015-.01.014-.012.02-.029.015-.037.008-.048v-.058l-.004-.027-.006-.024-.007-.022-.01-.02-.011-.016-.012-.015-.014-.012-.015-.01-.016-.008-.017-.005-.019-.003h-.036l-.018.004-.015.006-.014.008-.023.022-.02.033-.017.049-.002.009-.017.07-.008.03-.01.023-.008.013-.01.01-.008.006-.01.004-.012.001-.013-.001-.012-.004-.02-.014-.015-.022-.009-.032-.001-.026v-.021l.005-.019.005-.014.007-.012.009-.01.01-.007.025-.009.013-.001v-.078l-.022.001-.02.004-.018.006-.016.008-.014.01-.012.012-.02.029-.014.037-.007.048v.014l.001.027.004.025.006.023.008.02.009.019.011.016.013.014.013.01.015.01.017.007.017.005.019.002h.03l.02-.005.015-.006.014-.008.022-.022.02-.034.017-.054.005-.018.017-.07.007-.024.009-.019.008-.011.009-.009.02-.008H46l.011.004.02.014.016.023.01.034.003.033v.024l-.004.02-.005.016-.007.014-.017.02-.024.012Z" style="fill:#0000c2;fill-opacity:1;stroke:none;fill-rule:evenodd"/></g><g class="stroked-text" style="fill:none;stroke:#0000c2;stroke-width:.1524;stroke-opacity:1;stroke-linecap:round;stroke-linejoin:round"><desc>Power</desc><path stroke="none" d="m13.128 32.516.044.012.035.02.028.026.012.016.01.018.007.02.006.022.004.025.001.027-.003.035-.004.022-.007.02-.009.019-.01.017-.013.015-.015.014-.016.012-.018.01-.02.008-.02.006-.023.003-.023.002h-.204v.274h-.083v-.347h.256l.021-.002.037-.008.028-.016.022-.022.007-.014.006-.015.004-.018v-.036l-.008-.032-.008-.014-.009-.012-.011-.011-.013-.01-.016-.007-.018-.006-.02-.003-.022-.002h-.173v.228h-.083v-.3h.268Zm.456.166.046.009.038.018.017.011.016.014.014.017.013.018.011.02.01.024.008.026.006.028.003.032.002.034-.002.036-.01.055-.017.047-.024.037-.03.03-.017.012-.02.01-.02.008-.022.006-.024.004h-.052l-.045-.01-.039-.017-.017-.012-.016-.014-.014-.016-.013-.018-.012-.021-.01-.023-.007-.026-.006-.027-.004-.031v-.034h.077v.017l.007.052.014.04.02.032.025.022.015.008.016.006.017.003.019.002h.004l.018-.002.017-.004.016-.007.014-.008.014-.011.012-.014.01-.015.01-.019.008-.02.005-.024.004-.026.001-.029v-.019l-.007-.052-.014-.04-.02-.032-.025-.022-.015-.008-.016-.005-.017-.004-.02-.001h-.004l-.035.006-.015.006-.015.008-.013.012-.012.013-.011.016-.01.018-.007.022-.006.023-.003.027-.002.03h-.077l.002-.039.01-.056.017-.046.023-.038.03-.03.017-.012.02-.01.02-.008.022-.006.024-.004h.025Zm.706.478.137-.467h-.083l-.093.363-.091-.363h-.091l-.09.363-.094-.363h-.082l.135.466h.084l.09-.366.094.366Zm.414-.478.044.009.02.007.018.01.016.012.015.013.014.017.013.018.01.022.01.024.008.029.006.031.003.037.002.04h-.343v.005l.006.047.014.038.02.03.026.021.015.008.017.006.018.003.02.002.02-.002.033-.009.015-.007.013-.01.012-.013.011-.014.01-.018.008-.02h.075l-.003.011-.015.044-.022.036-.014.016-.016.013-.017.012-.019.01-.02.008-.023.006-.024.004h-.052l-.045-.01-.04-.018-.017-.012-.016-.014-.015-.016-.013-.018-.012-.021-.01-.023-.007-.025-.006-.027-.004-.03v-.032l.001-.04v-.002h.34l-.004-.035-.012-.036-.02-.03-.027-.022-.03-.014-.018-.003-.018-.001-.024.002-.018.004-.016.006-.015.01-.013.01-.013.013-.01.015-.01.018-.007.019-.005.021-.003.023h-.076l.01-.053.018-.047.025-.038.03-.03.018-.013.02-.01.02-.008.022-.006.023-.004h.025Zm.482.076v-.075l-.028-.003-.017.001-.016.004-.029.015-.029.027-.032.044-.004.007v-.085h-.069v.466h.075v-.242l.001-.03.004-.027.005-.02.007-.019.008-.014.01-.012.024-.018.032-.012.043-.006Z" style="fill:#0000c2;fill-opacity:1;stroke:none;fill-rule:evenodd"/></g></svg>