<svg xmlns="http://www.w3.org/2000/svg" width="319.2" height="144" viewBox="0 0 84.455 38.1"><desc>Image generated by Eeschema-SVG</desc><rect width="8.89" height="2.54" x="13.97" y="6.35" rx="0" style="fill:#ffffc2;fill-opacity:1;stroke:none"/><rect width="10.795" height="2.54" x="18.415" y="30.48" rx="0" style="fill:#ffffc2;fill-opacity:1;stroke:none"/><rect width="10.795" height="2.54" x="18.415" y="26.035" rx="0" style="fill:#ffffc2;fill-opacity:1;stroke:none"/><rect width="8.89" height="2.54" x="1.27" y="20.955" rx="0" style="fill:#ffffc2;fill-opacity:1;stroke:none"/><rect width="8.89" height="2.54" x="1.27" y="18.415" rx="0" style="fill:#ffffc2;fill-opacity:1;stroke:none"/><rect width="8.89" height="2.54" x="61.595" y="20.955" rx="0" style="fill:#ffffc2;fill-opacity:1;stroke:none"/><rect width="8.89" height="2.54" x="1.27" y="15.875" rx="0" style="fill:#ffffc2;fill-opacity:1;stroke:none"/><rect width="8.89" height="2.54" x="1.27" y="13.335" rx="0" style="fill:#ffffc2;fill-opacity:1;stroke:none"/><rect width="8.89" height="2.54" x="1.27" y="10.795" rx="0" style="fill:#ffffc2;fill-opacity:1;stroke:none"/><rect width="8.89" height="1.905" x="1.27" y="1.27" rx="0" style="fill:#0000c2;fill-opacity:1;stroke:none"/><rect width="10.795" height="2.54" x="18.415" y="20.955" rx="0" style="fill:#ffffc2;fill-opacity:1;stroke:none"/><rect width="8.89" height="1.905" x="73.66" y="1.27" rx="0" style="fill:#0000c2;fill-opacity:1;stroke:none"/><rect width="8.89" height="2.54" x="73.66" y="10.795" rx="0" style="fill:#ffffc2;fill-opacity:1;stroke:none"/><rect width="8.89" height="2.54" x="73.66" y="13.335" rx="0" style="fill:#ffffc2;fill-opacity:1;stroke:none"/><rect width="8.89" height="2.54" x="73.66" y="26.035" rx="0" style="fill:#ffffc2;fill-opacity:1;stroke:none"/><rect width="8.89" height="2.54" x="73.66" y="23.495" rx="0" style="fill:#ffffc2;fill-opacity:1;stroke:none"/><rect width="8.89" height="2.54" x="73.66" y="15.875" rx="0" style="fill:#ffffc2;fill-opacity:1;stroke:none"/><rect width="8.89" height="2.54" x="73.66" y="18.415" rx="0" style="fill:#ffffc2;fill-opacity:1;stroke:none"/><rect width="8.89" height="2.54" x="73.66" y="20.955" rx="0" style="fill:#ffffc2;fill-opacity:1;stroke:none"/><rect width="63.5" height="1.905" x="10.16" y="1.27" rx="0" style="fill:#0000c2;fill-opacity:1;stroke:none"/><rect width="6.35" height="7.62" x="45.085" y="23.495" rx="0" style="fill:#ffffc2;fill-opacity:1;stroke:none"/><rect width="8.89" height="2.54" x="61.595" y="23.495" rx="0" style="fill:#ffffc2;fill-opacity:1;stroke:none"/><rect width="8.89" height="2.54" x="1.27" y="26.035" rx="0" style="fill:#ffffc2;fill-opacity:1;stroke:none"/><rect width="8.89" height="2.54" x="1.27" y="23.495" rx="0" style="fill:#ffffc2;fill-opacity:1;stroke:none"/><rect width="12.7" height="5.08" x="38.735" y="17.145" rx="0" style="fill:#ffffc2;fill-opacity:1;stroke:none"/><rect width="8.89" height="7.62" x="1.27" y="28.575" rx="0" style="fill:#ffe5bf;fill-opacity:1;stroke:none"/><rect width="8.89" height="7.62" x="73.66" y="28.575" rx="0" style="fill:#ffe5bf;fill-opacity:1;stroke:none"/><rect width="8.89" height="7.62" x="73.66" y="3.175" rx="0" style="fill:#ffe5bf;fill-opacity:1;stroke:none"/><rect width="8.89" height="7.62" x="1.27" y="3.175" rx="0" style="fill:#ffe5bf;fill-opacity:1;stroke:none"/><g style="fill:none;stroke:#725600;stroke-width:.1524;stroke-opacity:1;stroke-linecap:round;stroke-linejoin:round"><g class="stroked-text"><desc>Detect</desc><path d="M2.914 27.885v-1.27m0 0h.303m0 0 .181.06m0 0 .121.121m.001 0 .06.12m0 .001.06.242m0 0v.181m0 0-.06.242m0 0-.06.121m0 0-.122.121m0 0-.181.06m0 .001h-.303m1.754-.061-.12.06m-.001.001h-.242m0 0-.12-.06m-.001-.001-.06-.12m0-.001v-.484m0 .001.06-.122m0 0 .121-.06m0 0h.242m0 0 .121.06m0 0 .06.121m.001.001v.12m0 0-.605.121m.968-.423h.483m-.302-.423v1.088m0 0 .06.121m.001 0 .12.06m.001.001h.12m.908-.061-.121.06m0 .001H6.12m0 0-.121-.06m0-.001-.06-.12m-.001-.001v-.484m0 .001.06-.122m.001 0 .12-.06m.001 0h.242m0 0 .12.06m.001 0 .06.121m0 .001v.12m0 0-.605.121m1.694.363-.121.06m-.001.001h-.24m-.001 0-.121-.06m0-.001-.06-.06m-.001 0-.06-.121m0 0v-.363m0 0 .06-.121m0 0 .06-.06m.001-.001.12-.06m.001 0h.242m-.001 0 .122.06m.363-.06h.483m-.302-.423v1.088m0 0 .06.121m0 0 .121.06m0 .001h.121"/></g><path d="m10.16 27.305-.635-.635H8.89v1.27h.635Z" style="stroke:#725600;stroke-width:.1524;stroke-opacity:1;stroke-linecap:round;stroke-linejoin:round;fill:none"/></g><g style="fill:none;stroke:#725600;stroke-width:.1524;stroke-opacity:1;stroke-linecap:round;stroke-linejoin:round"><g class="stroked-text"><desc>Power</desc><path d="M75.523 17.725v-1.27m0 0h.484m0 0 .12.06m.001 0 .06.06m0 .001.06.12m.001 0v.182m0 0-.06.12m-.001.001-.06.06m0 .001-.121.06m0 0h-.484m1.452.605-.121-.06m0-.001-.061-.06m0 0-.06-.121m0 0v-.363m0 0 .06-.121m0 0 .06-.06m.001-.001.12-.06m.001 0h.18m.001 0 .12.06m.001 0 .06.06m0 .001.06.12m.001.001v.363m0 0-.06.12m-.001.001-.06.06m0 0-.121.06m0 .001h-.181m.846-.847.242.846m0 .001.242-.605m0 0 .242.604m0 .001.242-.847m.967.786-.12.06m-.001.001h-.242m.001 0-.122-.06m.001-.001-.06-.12m-.001-.001v-.484m0 .001.06-.122m.001 0 .12-.06m.001 0h.241m0 0 .121.06m0 0 .06.121m.001.001v.12m0 0-.605.121m1.149.424v-.847m0 .242.06-.121m.001 0 .06-.06m0-.001.121-.06m0 0h.121"/></g><path d="m74.93 17.145-.635-.635h-.635v1.27h.635Z" style="stroke:#725600;stroke-width:.1524;stroke-opacity:1;stroke-linecap:round;stroke-linejoin:round;fill:none"/></g><g style="fill:none;stroke:#725600;stroke-width:.1524;stroke-opacity:1;stroke-linecap:round;stroke-linejoin:round"><g class="stroked-text"><desc>SBLink</desc><path d="m75.463 20.204.181.06m0 .001h.302m0 0 .121-.06m0-.001.06-.06m.001 0 .06-.121m0 0v-.121m0 0-.06-.121m0-.001-.06-.06m-.001 0-.12-.06m-.001 0-.242-.06m.001 0-.121-.061m0 0-.061-.06m0-.001-.06-.12m0-.001v-.12m0-.001.06-.12m0 0 .06-.061m.001 0 .12-.06m.001 0h.302m0 0 .181.06m.968.545.181.06m0 0 .06.06m.001 0 .06.121m0 0v.182m0 0-.06.12m0 .001-.06.06m-.001 0-.12.06m-.001.001h-.483m0 0v-1.27m0 0h.423m0 0 .12.06m.001 0 .06.06m0 .001.06.12m.001 0v.121m0 0-.06.121m-.001 0-.06.06m0 .001-.121.06m0 .001h-.424m1.875.665h-.605m.001 0v-1.27m1.027 1.27v-.847m0-.423-.06.06m0 0 .06.06m0 .001.061-.061m0 0-.06-.06m-.001 0v.12m.605.303v.847m0-.726.06-.06m.001-.001.12-.06m.001 0h.181m0 0 .121.06m.001 0 .06.121m0 .001v.665m.604 0v-1.27m.121.785.363.485m0-.847-.484.484"/></g><path d="m73.66 19.685.635-.635.635.635-.635.635Z" style="stroke:#725600;stroke-width:.1524;stroke-opacity:1;stroke-linecap:round;stroke-linejoin:round;fill:none"/></g><g style="fill:none;stroke:#725600;stroke-width:.1524;stroke-opacity:1;stroke-linecap:round;stroke-linejoin:round"><g class="stroked-text"><desc>USB</desc><path d="M75.523 24.075v1.028m0 0 .06.12m.001.001.06.06m0 0 .12.06m.001.001h.242m0 0 .12-.06m.001-.001.06-.06m0 0 .06-.121m.001 0v-1.029m.544 1.21.181.06m.001.001h.302m0 0 .12-.06m.001-.001.06-.06m0 0 .06-.121m.001 0v-.121m0 0-.06-.121m-.001-.001-.06-.06m0 0-.121-.06m0 0-.242-.06m0 0-.121-.061m0 0-.06-.06m0-.001-.06-.12m-.001-.001v-.12m0-.001.06-.12m.001 0 .06-.061m0 0 .121-.06m0 0h.302m0 0 .182.06m.967.545.182.06m0 0 .06.06m0 0 .06.121m.001 0v.182m0 0-.06.12m-.001.001-.06.06m0 0-.121.06m0 .001h-.484m0 0v-1.27m0 0h.423m0 0 .121.06m0 0 .06.06m.001.001.06.12m0 0v.121m0 0-.06.121m0 0-.06.06m-.001.001-.12.06m-.001.001h-.423"/></g><path d="m73.66 24.765.635.635h.635v-1.27h-.635Z" style="stroke:#725600;stroke-width:.1524;stroke-opacity:1;stroke-linecap:round;stroke-linejoin:round;fill:none"/></g><g style="fill:none;stroke:#725600;stroke-width:.1524;stroke-opacity:1;stroke-linecap:round;stroke-linejoin:round"><g class="stroked-text"><desc>USB</desc><path d="M75.523 21.535v1.028m0 0 .06.12m.001.001.06.06m0 0 .12.06m.001.001h.242m0 0 .12-.06m.001-.001.06-.06m0 0 .06-.121m.001 0v-1.028m.544 1.209.181.06m.001.001h.302m0 0 .12-.06m.001-.001.06-.06m0 0 .06-.121m.001 0v-.121m0 0-.06-.121m-.001-.001-.06-.06m0 0-.121-.06m0 0-.242-.06m0 0-.121-.061m0 0-.06-.06m0-.001-.06-.12m-.001-.001v-.12m0-.001.06-.12m.001 0 .06-.061m0 0 .121-.06m0 0h.302m0 0 .182.06m.967.545.182.06m0 0 .06.06m0 0 .06.121m.001 0v.182m0 0-.06.12m-.001.001-.06.06m0 0-.121.06m0 .001h-.484m0 0v-1.27m0 0h.423m0 0 .121.06m0 0 .06.06m.001.001.06.12m0 0v.121m0 0-.06.121m0 0-.06.06m-.001.001-.12.06m-.001.001h-.423"/></g><path d="m73.66 22.225.635.635h.635v-1.27h-.635Z" style="stroke:#725600;stroke-width:.1524;stroke-opacity:1;stroke-linecap:round;stroke-linejoin:round;fill:none"/></g><g style="fill:none;stroke:#725600;stroke-width:.1524;stroke-opacity:1;stroke-linecap:round;stroke-linejoin:round"><g class="stroked-text"><desc>USB A</desc><path d="M63.36 24.075v1.028m0 0 .06.12m0 .001.061.06m0 0 .121.06m0 .001h.242m0 0 .121-.06m0-.001.06-.06m.001 0 .06-.121m0 0v-1.029m.544 1.21.182.06m0 .001h.302m0 0 .121-.06m0-.001.06-.06m.001 0 .06-.121m0 0v-.121m0 0-.06-.121m0-.001-.06-.06m-.001 0-.12-.06m-.001 0-.242-.06m0 0-.12-.061m-.001 0-.06-.06m-.001-.001-.06-.12m0-.001v-.12m0-.001.06-.12m0 0 .061-.061m0 0 .121-.06m0 0h.303m0 0 .181.06m.968.545.181.06m0 0 .06.06m.001 0 .06.121m0 0v.182m0 0-.06.12m0 .001-.06.06m-.001 0-.12.06m-.001.001H65.9m0 0v-1.27m0 0h.424m0 0 .12.06m.001 0 .06.06m0 .001.06.12m.001 0v.121m0 0-.06.121m-.001 0-.06.06m0 .001-.121.06m0 .001H65.9m2.178.302h.604m-.725.363.423-1.27m0 0 .423 1.27"/></g><path d="m69.215 24.765.635.635h.635v-1.27h-.635Z" style="stroke:#725600;stroke-width:.1524;stroke-opacity:1;stroke-linecap:round;stroke-linejoin:round;fill:none"/></g><g style="fill:none;stroke:#725600;stroke-width:.1524;stroke-opacity:1;stroke-linecap:round;stroke-linejoin:round"><g class="stroked-text"><desc>IRQ</desc><path d="M5.696 22.805v-1.27m1.331 1.27-.423-.605m-.303.605v-1.27m0 0h.484m0 0 .12.06m.001 0 .06.06m0 .001.06.12m.001 0v.182m0 0-.06.12m-.001.001-.06.06m0 .001-.121.06m0 0H6.3m2.118.726-.121-.061m0 0-.121-.12m0-.001-.181-.181m0 0-.122-.06m.001-.001h-.121m.06.303-.12-.06m-.001-.001-.12-.12m-.001-.001-.06-.242m-.001 0v-.423m0 0 .061-.242m0 0 .121-.121m0 0 .121-.06m0 0h.242m0 0 .12.06m.001 0 .12.121m.001 0 .06.242m0 0v.423m0 0-.06.242m0 0-.121.121m0 0-.121.06m0 .001h-.242"/></g><path d="m10.16 22.225-.635-.635H8.89v1.27h.635Z" style="stroke:#725600;stroke-width:.1524;stroke-opacity:1;stroke-linecap:round;stroke-linejoin:round;fill:none"/></g><g style="fill:none;stroke:#725600;stroke-width:.1524;stroke-opacity:1;stroke-linecap:round;stroke-linejoin:round"><g class="stroked-text"><desc>I²C</desc><path d="M75.523 27.885v-1.27m.544-.303.121-.06m0 0h.182m0 0 .12.06m0 0 .061.121m0 0v.121m0 0-.06.121m-.001 0-.423.423m0 0h.484m1.27.666-.06.06m-.001 0-.18.06m0 .001h-.122m0 0-.181-.06m0-.001-.121-.12m0-.001-.06-.12m-.001-.001-.06-.242m0 0v-.181m0 0 .06-.242m0 0 .06-.121m.001 0 .12-.121m.001 0 .181-.06m0 0h.121m.001 0 .18.06m0 0 .061.06"/></g><path d="m73.66 27.305.635-.635.635.635-.635.635Z" style="stroke:#725600;stroke-width:.1524;stroke-opacity:1;stroke-linecap:round;stroke-linejoin:round;fill:none"/></g><g style="fill:none;stroke:#725600;stroke-width:.1524;stroke-opacity:1;stroke-linecap:round;stroke-linejoin:round"><g class="stroked-text"><desc>E-Bus</desc><path d="M2.733 19.6h.423m.182.665h-.605m0 0v-1.27m0 0h.605m.544.785h.968m1.028-.18.181.06m.001 0 .06.06m0 0 .06.121m0 0v.182m0 0-.06.12m0 .001-.06.06m0 0-.122.06m0 .001h-.483m0 0v-1.27m0 0h.423m0 0 .12.06m.001 0 .06.06m.001.001.06.12m0 0v.121m0 0-.06.121m0 0-.061.06m0 .001-.121.06m0 .001h-.423m1.814-.182v.847m-.544-.847v.665m0 0 .06.121m0 0 .121.06m0 .001h.181m0 0 .121-.06m0-.001.06-.06m.545.06.121.06m0 .001h.242m0 0 .12-.06m.001-.001.06-.12m0-.001v-.06m0 0-.06-.121m0 0-.121-.06m0-.001h-.181m0 0-.122-.06m.001-.001-.06-.12m-.001 0v-.06m0 0 .06-.122m.001 0 .12-.06m.001 0h.18m.001 0 .12.06"/></g><path d="m10.16 19.685-.635-.635-.635.635.635.635Z" style="stroke:#725600;stroke-width:.1524;stroke-opacity:1;stroke-linecap:round;stroke-linejoin:round;fill:none"/></g><g style="fill:none;stroke:#725600;stroke-width:.1524;stroke-opacity:1;stroke-linecap:round;stroke-linejoin:round"><g class="stroked-text"><desc>Power</desc><path d="M15.977 8.2V6.93m0 0h.484m0 0 .121.06m0 0 .06.06m.001 0 .06.121m0 0v.182m0 0-.06.12m0 .001-.06.06m-.001 0-.12.06m-.001.001h-.484m1.452.605-.121-.06m0 0-.06-.061m-.001 0-.06-.121m0 0v-.363m0 0 .06-.121m0 0 .06-.06m.001-.001.12-.06m.001 0h.181m0 0 .121.06m0 0 .06.06m.001.001.06.12m0 .001v.363m0 0-.06.12m0 .001-.06.06m-.001.001-.12.06m-.001 0h-.181m.846-.847.242.847m0 0 .242-.605m.001 0L19 8.2m.001 0 .242-.847m.967.787-.12.06m0 0h-.242m0 0-.121-.06m0 0-.06-.122m-.001 0v-.484m0 0 .06-.12m.001-.001.12-.06m.001 0h.242m0 0 .12.06m0 0 .061.121m0 0v.121m0 0-.605.121m1.149.424v-.847m0 .242.06-.121m.001 0 .06-.06m0-.001.121-.06m0 0h.121"/></g><path d="m22.86 7.62-.635-.635h-.635v1.27h.635Z" style="stroke:#725600;stroke-width:.1524;stroke-opacity:1;stroke-linecap:round;stroke-linejoin:round;fill:none"/></g><g style="fill:none;stroke:#725600;stroke-width:.1524;stroke-opacity:1;stroke-linecap:round;stroke-linejoin:round"><g class="stroked-text"><desc>USB A</desc><path d="M63.36 21.535v1.028m0 0 .06.12m0 .001.061.06m0 0 .121.06m0 .001h.242m0 0 .121-.06m0-.001.06-.06m.001 0 .06-.121m0 0v-1.028m.544 1.209.182.06m0 .001h.302m0 0 .121-.06m0-.001.06-.06m.001 0 .06-.121m0 0v-.121m0 0-.06-.121m0-.001-.06-.06m-.001 0-.12-.06m-.001 0-.242-.06m0 0-.12-.061m-.001 0-.06-.06m-.001-.001-.06-.12m0-.001v-.12m0-.001.06-.12m0 0 .061-.061m0 0 .121-.06m0 0h.303m0 0 .181.06m.968.545.181.06m0 0 .06.06m.001 0 .06.121m0 0v.182m0 0-.06.12m0 .001-.06.06m-.001 0-.12.06m-.001.001H65.9m0 0v-1.27m0 0h.424m0 0 .12.06m.001 0 .06.06m0 .001.06.12m.001 0v.121m0 0-.06.121m-.001 0-.06.06m0 .001-.121.06m0 .001H65.9m2.178.302h.604m-.725.363.423-1.27m0 0 .423 1.27"/></g><path d="m69.215 22.225.635.635h.635v-1.27h-.635Z" style="stroke:#725600;stroke-width:.1524;stroke-opacity:1;stroke-linecap:round;stroke-linejoin:round;fill:none"/></g><g style="fill:none;stroke:#725600;stroke-width:.1524;stroke-opacity:1;stroke-linecap:round;stroke-linejoin:round"><g class="stroked-text"><desc>I²C</desc><path d="M6.06 25.345v-1.27m.544-.303.12-.06m.001 0h.18m.001 0 .12.06m.001 0 .06.121m0 0v.121m0 0-.06.121m0 0-.423.423m0 0h.483m1.27.666-.06.06m0 0-.182.06m0 .001h-.12m0 0-.182-.06m0-.001-.12-.12m-.001-.001-.06-.12m0-.001-.06-.242m-.001 0v-.181m0 0 .06-.242m.001 0 .06-.121m0 0 .121-.121m0 0 .182-.06m0 0h.12m0 0 .182.06m0 0 .06.06"/></g><path d="m10.16 24.765-.635-.635-.635.635.635.635Z" style="stroke:#725600;stroke-width:.1524;stroke-opacity:1;stroke-linecap:round;stroke-linejoin:round;fill:none"/></g><g style="fill:none;stroke:#725600;stroke-width:.1524;stroke-opacity:1;stroke-linecap:round;stroke-linejoin:round"><g class="stroked-text"><desc>Audio</desc><path d="M3.7 14.822h.606m-.726.363.423-1.27m0 0 .423 1.27m.968-.847v.847m-.544-.847v.665m0 0 .06.121m0 0 .121.06m0 .001h.182m0 0 .12-.06m.001-.001.06-.06m1.149.121v-1.27m0 1.209-.12.06m-.001.001H6.18m0 0-.12-.06m0-.001-.061-.06m0 0-.06-.121m-.001 0v-.363m0 0 .06-.121m.001 0 .06-.06m.001-.001.12-.06m0 0h.242m0 0 .121.06m.605.787v-.847m0-.423-.06.06m-.001 0 .06.06m.001.001.06-.061m0 0-.06-.06m0 0v.12m.786 1.15-.12-.06m-.001-.001-.06-.06m0 0-.06-.121m-.001 0v-.363m0 0 .06-.121m.001 0 .06-.06m0-.001.121-.06m0 0h.182m0 0 .12.06m0 0 .06.06m.001.001.06.12m0 .001v.363m0 0-.06.12m0 .001-.06.06m-.001 0-.12.06m0 .001h-.182"/></g><path d="m8.89 14.605.635.635h.635v-1.27h-.635Z" style="stroke:#725600;stroke-width:.1524;stroke-opacity:1;stroke-linecap:round;stroke-linejoin:round;fill:none"/></g><g style="fill:none;stroke:#725600;stroke-width:.1524;stroke-opacity:1;stroke-linecap:round;stroke-linejoin:round"><g class="stroked-text"><desc>Video</desc><path d="m75.342 11.375.423 1.27m0 0 .423-1.27m.424 1.27v-.847m0-.423-.06.06m-.001 0 .06.06m.001.001.06-.061m0 0-.06-.06m0 0v.12m1.148 1.15v-1.27m0 1.209-.12.06m0 .001h-.242m0 0-.121-.06m0-.001-.06-.06m-.001 0-.06-.121m0 0v-.363m0 0 .06-.121m0 0 .06-.06m.001-.001.12-.06m.001 0h.242m0 0 .12.06m1.09.726-.122.06m0 .001h-.242m0 0-.12-.06m-.001-.001-.06-.12m0-.001v-.484m0 .001.06-.122m0 0 .121-.06m0 0h.242m0 0 .121.06m.001 0 .06.121m0 .001v.12m0 0-.605.121m1.331.424-.121-.06m0-.001-.061-.06m0 0-.06-.121m0 0v-.363m0 0 .06-.121m0 0 .06-.06m.001-.001.12-.06m.001 0h.18m.001 0 .12.06m.001 0 .06.06m0 .001.06.12m.001.001v.363m0 0-.06.12m-.001.001-.06.06m0 0-.121.06m0 .001h-.181"/></g><path d="m73.66 12.065.635.635h.635v-1.27h-.635Z" style="stroke:#725600;stroke-width:.1524;stroke-opacity:1;stroke-linecap:round;stroke-linejoin:round;fill:none"/></g><g style="fill:none;stroke:#725600;stroke-width:.1524;stroke-opacity:1;stroke-linecap:round;stroke-linejoin:round"><g class="stroked-text"><desc>Video</desc><path d="m3.64 11.375.424 1.27m0 0 .423-1.27m.423 1.27v-.847m0-.423-.06.06m0 0 .06.06m0 .001.06-.061m0 0-.06-.06m0 0v.12m1.15 1.15v-1.27m0 1.209-.122.06m0 .001h-.241m0 0-.122-.06m.001-.001-.061-.06m0 0-.06-.121m0 0v-.363m0 0 .06-.121m0 0 .06-.06m.001-.001.12-.06m.001 0h.241m0 0 .121.06m1.089.726-.121.06m0 .001h-.242m0 0-.121-.06m0-.001-.06-.12m0-.001v-.484m0 .001.06-.122m0 0 .121-.06m0 0h.242m0 0 .12.06m.001 0 .06.121m0 .001v.12m0 0-.604.121m1.33.424-.12-.06m-.001-.001-.06-.06m0 0-.06-.121m-.001 0v-.363m0 0 .06-.121m.001 0 .06-.06m0-.001.121-.06m0 0h.182m0 0 .12.06m0 0 .06.06m.001.001.06.12m0 .001v.363m0 0-.06.12m0 .001-.06.06m-.001 0-.12.06m0 .001h-.182"/></g><path d="m8.89 12.065.635.635h.635v-1.27h-.635Z" style="stroke:#725600;stroke-width:.1524;stroke-opacity:1;stroke-linecap:round;stroke-linejoin:round;fill:none"/></g><g style="fill:none;stroke:#725600;stroke-width:.1524;stroke-opacity:1;stroke-linecap:round;stroke-linejoin:round"><g class="stroked-text"><desc>Audio</desc><path d="M75.463 14.822h.604m-.725.363.423-1.27m0 0 .423 1.27m.968-.847v.847m-.544-.847v.665m0 0 .06.121m0 0 .121.06m0 .001h.181m.001 0 .12-.06m0-.001.06-.06m1.15.121v-1.27m0 1.209-.121.06m0 .001h-.242m0 0-.12-.06m-.001-.001-.06-.06m-.001 0-.06-.121m0 0v-.363m0 0 .06-.121m0 0 .061-.06m0-.001.121-.06m0 0h.242m0 0 .12.06m.606.787v-.847m0-.423-.06.06m0 0 .06.06m0 .001.06-.061m0 0-.06-.06m0 0v.12m.786 1.15-.121-.06m0-.001-.06-.06m-.001 0-.06-.121m0 0v-.363m0 0 .06-.121m0 0 .06-.06m.001-.001.12-.06m.001 0h.181m0 0 .121.06m0 0 .06.06m.001.001.06.12m.001.001v.363m0 0-.061.12m0 .001-.06.06m-.001 0-.12.06m-.001.001h-.181"/></g><path d="m73.66 14.605.635.635h.635v-1.27h-.635Z" style="stroke:#725600;stroke-width:.1524;stroke-opacity:1;stroke-linecap:round;stroke-linejoin:round;fill:none"/></g><g style="fill:none;stroke:#725600;stroke-width:.1524;stroke-opacity:1;stroke-linecap:round;stroke-linejoin:round"><g class="stroked-text"><desc>Power</desc><path d="M3.277 17.725v-1.27m0 0h.484m0 0 .121.06m0 0 .06.06m.001.001.06.12m0 0v.182m0 0-.06.12m0 .001-.06.06m-.001.001-.12.06m-.001 0h-.484m1.452.605-.121-.06m0-.001-.06-.06m-.001 0-.06-.121m0 0v-.363m0 0 .06-.121m0 0 .06-.06m.001-.001.12-.06m.001 0h.181m0 0 .121.06m0 0 .06.06m.001.001.06.12m0 .001v.363m0 0-.06.12m0 .001-.06.06m-.001 0-.12.06m-.001.001h-.18m.845-.847.242.846m0 .001.242-.605m.001 0 .241.604m0 .001.242-.847m.967.786-.12.06m0 .001h-.242m0 0-.121-.06m0-.001-.06-.12m-.001-.001v-.484m0 .001.06-.122m.001 0 .12-.06m.001 0h.242m0 0 .12.06m0 0 .061.121m0 .001v.12m0 0-.605.121m1.149.424v-.847m0 .242.06-.121m.001 0 .06-.06m0-.001.121-.06m0 0h.121"/></g><path d="m8.89 17.145.635.635h.635v-1.27h-.635Z" style="stroke:#725600;stroke-width:.1524;stroke-opacity:1;stroke-linecap:round;stroke-linejoin:round;fill:none"/></g><path d="M22.86 7.62h3.175m0 0v9.525m-15.875 7.62h25.4m-25.4-2.54h8.255m-8.255-5.08h15.875M10.16 27.305h8.255m-8.255-7.62h28.575m-3.175 5.08v1.27m0 0h9.525" style="fill:none;stroke:#000084;stroke-width:.3048;stroke-opacity:1;stroke-linecap:round;stroke-linejoin:round"/><path d="M67.31 7.62v9.525m-34.925 10.16h12.7M10.16 12.065h63.5m-6.35 5.08h6.35m-22.225 10.16H73.66m-3.175-5.08h3.175m-41.275 0v5.08m-3.175 0h3.175m-3.175-5.08h3.175M29.21 31.75h3.175m0 0v-4.445m-3.175 0v.635M26.035 7.62H67.31m-57.15 6.985h63.5m-22.225 5.08H73.66m-3.175 5.08h3.175" style="fill:none;stroke:#009600;stroke-width:.1524;stroke-opacity:1;stroke-linecap:round;stroke-linejoin:round"/><g style="fill:none;stroke:#c20000;stroke-width:.127;stroke-opacity:1;stroke-linecap:round;stroke-linejoin:round"><rect width="8.89" height="2.54" x="13.97" y="6.35" rx="0"/><rect width="8.89" height="2.54" x="13.97" y="6.35" rx="0"/></g><g style="fill:none;stroke:#c20000;stroke-width:.127;stroke-opacity:1;stroke-linecap:round;stroke-linejoin:round"><rect width="10.795" height="2.54" x="18.415" y="30.48" rx="0"/><rect width="10.795" height="2.54" x="18.415" y="30.48" rx="0"/></g><g class="stroked-text" style="fill:none;stroke:#000084;stroke-width:.1524;stroke-opacity:1;stroke-linecap:round;stroke-linejoin:round"><desc>Pin Header</desc><path d="M19.821 32.212v-1.016m0 0h.387m0 0 .097.048m0 0 .048.049m0 0 .049.097m0 0v.145m0 0-.049.096m0 .001-.048.048m0 0-.097.048m0 0h-.387m1.016.484v-.677m0-.339-.048.048m0 0 .048.049m0 0 .048-.049m0 0-.048-.048m0 0v.097m.483.242v.677m0-.58.05-.049m0 0 .096-.048m0 0h.145m0 0 .097.048m0 0 .048.097m0 0v.532m1.258 0v-1.016m0 .484h.58m.001.532v-1.016m.871.968-.097.048m0 0h-.194m0 0-.096-.048m0 0-.049-.097m0 0v-.387m0 0 .049-.097m0 0 .096-.048m0 0h.194m0 0 .097.048m0 0 .048.097m0 0v.097m0 0-.484.096m1.355.339v-.532m0 0-.049-.097m.001 0-.097-.048m0 0h-.194m0 0-.096.048m.435.581-.097.048m0 0h-.242m0 0-.096-.048m0 0-.049-.097m0 0v-.097m0 0 .049-.097m0 0 .096-.048m0 0h.242m0 0 .097-.048m.919.435v-1.016m0 .968-.097.048m0 0h-.193m0 0-.097-.048m0 0-.048-.049m0 0-.049-.096m0 0v-.29m0-.001.049-.097m0 .001.048-.049m0 0 .097-.048m0 0h.193m0 0 .097.048m.871.581-.097.048m0 0h-.193m0 0-.097-.048m0 0-.049-.097m.001 0v-.387m0 0 .048-.097m0 0 .097-.048m0 0h.193m0 0 .097.048m0 0 .048.097m0 0v.097m0 0-.483.096m.919.339v-.677m0 .193.048-.097m0 .001.049-.049m0 0 .096-.048m0 0h.097"/></g><g style="fill:none;stroke:#c20000;stroke-width:.127;stroke-opacity:1;stroke-linecap:round;stroke-linejoin:round"><rect width="10.795" height="2.54" x="18.415" y="26.035" rx="0"/><rect width="10.795" height="2.54" x="18.415" y="26.035" rx="0"/></g><g class="stroked-text" style="fill:none;stroke:#000084;stroke-width:.1524;stroke-opacity:1;stroke-linecap:round;stroke-linejoin:round"><desc>I²C GPIO</desc><path d="M20.74 27.767v-1.016m.436-.241.096-.05m0 0h.146m0 0 .096.05m0 0 .049.096m0 0v.097m0 0-.049.096m0 .001-.338.338m0 0h.387m1.016.532-.049.049m0 0-.145.048m0 0h-.097m0 0-.145-.048m0 0-.096-.097m0 0-.049-.097m0 0-.048-.193m0 0v-.146m0 .001.048-.194m0 0 .049-.097m0 0 .096-.097m0 .001.145-.049m0 0h.097m0 0 .145.048m0 .001.049.048m1.741-.048-.096-.049m0 0h-.146m.001 0-.146.048m0 .001-.096.096m0 0-.049.097m0 0-.048.194m0 0v.145m0 0 .048.193m0 0 .049.097m0 0 .096.097m0 0 .145.048m.001 0h.096m0 0 .145-.048m0 0 .049-.049m0 0v-.338m0 0h-.194m.629.435v-1.016m0 0h.387m0 0 .097.048m0 .001.048.048m0 0 .049.097m0 0v.145m0 0-.049.096m0 .001-.048.048m0 0-.097.048m0 0h-.387m1.016.484v-1.016m.678 0h.193m0 0 .097.048m0 .001.097.096m0 0 .048.194m0 0v.338m0 0-.048.194m0 0-.097.097m0 0-.097.048m0 0h-.193m0 0-.097-.048m-.001 0-.096-.097m0 0-.048-.194m0 0v-.338m0 0 .048-.194m0 0 .097-.097m-.001.001.098-.049"/></g><g style="fill:none;stroke:#c20000;stroke-width:.127;stroke-opacity:1;stroke-linecap:round;stroke-linejoin:round"><rect width="8.89" height="2.54" x="1.27" y="20.955" rx="0"/><rect width="8.89" height="2.54" x="1.27" y="20.955" rx="0"/></g><g style="fill:none;stroke:#c20000;stroke-width:.127;stroke-opacity:1;stroke-linecap:round;stroke-linejoin:round"><rect width="8.89" height="2.54" x="1.27" y="18.415" rx="0"/><rect width="8.89" height="2.54" x="1.27" y="18.415" rx="0"/></g><g style="fill:none;stroke:#c20000;stroke-width:.127;stroke-opacity:1;stroke-linecap:round;stroke-linejoin:round"><rect width="8.89" height="2.54" x="61.595" y="20.955" rx="0"/><rect width="8.89" height="2.54" x="61.595" y="20.955" rx="0"/></g><g style="fill:none;stroke:#c20000;stroke-width:.127;stroke-opacity:1;stroke-linecap:round;stroke-linejoin:round"><rect width="8.89" height="2.54" x="1.27" y="15.875" rx="0"/><rect width="8.89" height="2.54" x="1.27" y="15.875" rx="0"/></g><g style="fill:none;stroke:#c20000;stroke-width:.127;stroke-opacity:1;stroke-linecap:round;stroke-linejoin:round"><rect width="8.89" height="2.54" x="1.27" y="13.335" rx="0"/><rect width="8.89" height="2.54" x="1.27" y="13.335" rx="0"/></g><g style="fill:none;stroke:#c20000;stroke-width:.127;stroke-opacity:1;stroke-linecap:round;stroke-linejoin:round"><rect width="8.89" height="2.54" x="1.27" y="10.795" rx="0"/><rect width="8.89" height="2.54" x="1.27" y="10.795" rx="0"/></g><g style="fill:none;stroke:#0000c2;stroke-width:.1524;stroke-opacity:1;stroke-linecap:round;stroke-linejoin:round"><rect width="8.89" height="1.905" x="1.27" y="1.27" rx="0"/><rect width="8.89" height="1.905" x="1.27" y="1.27" rx="0"/></g><g class="stroked-text" style="fill:none;stroke:#fff;stroke-width:.1524;stroke-opacity:1;stroke-linecap:round;stroke-linejoin:round"><desc>Expansion</desc><path d="M2.582 2.16h.297m.127.466h-.424m0 0v-.89m0 .001h.424m.296.889.466-.593m-.466 0 .466.593m.338-.593v.89m0-.847.085-.043m0 0h.17m-.001 0 .085.042m0 .001.042.042m0 0 .043.085m0 0v.254m0 0-.043.084m0 0-.042.042m0 .001-.085.042m0 0h-.169m0 0-.085-.042m1.186.042V2.16m0 0-.043-.085m.001.001-.085-.043m0 0h-.17m0 0-.084.042m.381.509-.085.042m0 0h-.212m0 0-.084-.042m-.001 0-.042-.085m0 0v-.085m0 0 .043-.085m-.001.001.085-.043m0 0h.212m0 0 .085-.042m.423-.212v.593m0-.508.042-.042m0 0 .085-.043m0 0h.127m0 0 .085.042m0 .001.042.084m0 0v.466m.381-.042.085.042m0 0h.169m0 0 .085-.042m0 0 .042-.085m0 0v-.042m0 0-.042-.085m0 0L6.73 2.33m.001 0h-.127m0 0-.085-.043m.001 0-.043-.084m0 0V2.16m0 0 .042-.085m.001.001.084-.043m0 0h.127m0 0 .085.042m.423.551v-.593m0-.296-.042.042m0 .001.042.041m0 .001.042-.043m0 .001-.042-.043m0 0v.084m.551.805-.085-.042m0 0-.043-.043m0 0-.042-.084m0 0v-.254m0 0 .042-.085m0 0 .043-.042m0 0 .084-.043m.001 0h.126m0 0 .085.042m0 .001.042.042m0 0 .043.085m0 0v.254m0 0-.043.084m0 0-.042.042m0 .001-.085.042m0 0H7.79m.677-.593v.593m0-.508.042-.042m0 0 .085-.043m0 0h.127m-.001 0 .085.042m0 .001.043.084m0 0v.466"/></g><g style="fill:none;stroke:#c20000;stroke-width:.127;stroke-opacity:1;stroke-linecap:round;stroke-linejoin:round"><rect width="10.795" height="2.54" x="18.415" y="20.955" rx="0"/><rect width="10.795" height="2.54" x="18.415" y="20.955" rx="0"/></g><g class="stroked-text" style="fill:none;stroke:#000084;stroke-width:.1524;stroke-opacity:1;stroke-linecap:round;stroke-linejoin:round"><desc>IRQ Mux</desc><path d="M20.934 22.687v-1.016m1.064 1.016-.338-.484m-.242.484v-1.016m0 0h.387m0 0 .096.048m.001.001.048.048m0 0 .048.097m0 0v.145m0 0-.048.096m0 .001-.049.048m.001 0-.097.048m0 0h-.387m1.693.581-.097-.049m0 0-.096-.096m0 0-.146-.145m0 0-.096-.049m0 0h-.097m.048.242-.097-.048m0 0-.096-.097m0 0-.049-.194m0 0v-.338m0 0 .049-.194m0 0 .096-.097m0 .001.097-.049m0 0h.194m-.001 0 .098.048m0 .001.096.096m0 0 .049.194m0 0v.338m0 0-.049.194m0 0-.096.097m0 0-.097.048m-.001 0h-.193m1.645 0v-1.016m0 0 .339.726m-.001 0 .34-.726m0 0v1.016m.919-.677v.677m-.436-.677v.532m0 0 .049.097m0 0 .096.048m0 0h.146m0 0 .096-.048m0 0 .049-.049m.387.097.532-.677m-.532 0 .532.677"/></g><g style="fill:none;stroke:#0000c2;stroke-width:.1524;stroke-opacity:1;stroke-linecap:round;stroke-linejoin:round"><rect width="8.89" height="1.905" x="73.66" y="1.27" rx="0"/><rect width="8.89" height="1.905" x="73.66" y="1.27" rx="0"/></g><g class="stroked-text" style="fill:none;stroke:#fff;stroke-width:.1524;stroke-opacity:1;stroke-linecap:round;stroke-linejoin:round"><desc>Mainboard</desc><path d="M74.909 2.626v-.89m0 .001.296.635m0 0 .297-.635m0 0v.889m.804 0V2.16m0 0-.042-.085m0 .001-.085-.043m0 0h-.17m.001 0-.085.042m.381.509-.085.042m0 0h-.211m0 0-.085-.042m0 0-.042-.085m0 0v-.085m0 0 .042-.085m0 .001.085-.043m0 0h.211m0 0 .085-.042m.424.381v-.593m0-.296-.043.042m0 .001.042.041m.001.001.042-.043m0 .001-.043-.043m.001 0v.084m.423.212v.593m0-.508.042-.042m0 0 .085-.043m0 0h.126m.001 0 .084.042m0 .001.043.084m0 0v.466m.423 0v-.89m0 .34.085-.043m0 0h.169m-.001 0 .086.042m0 .001.042.042m0 0 .042.085m0 0v.254m0 0-.042.084m0 0-.042.042m0 .001-.085.042m-.001 0h-.168m0 0-.085-.042m.931.042-.085-.042m.001 0-.043-.043m0 0-.042-.084m0 0v-.254m0 0 .042-.085m0 0 .043-.042m0 0 .084-.043m0 0h.127m0 0 .085.042m0 .001.042.042m0 0 .043.085m0 0v.254m0 0-.043.084m0 0-.042.042m0 .001-.085.042m0 0h-.127m1.058 0V2.16m0 0-.042-.085m0 .001-.085-.043m.001 0h-.17m0 0-.085.042m.381.509-.084.042m0 0h-.212m0 0-.085-.042m0 0-.042-.085m0 0v-.085m0 0 .042-.085m0 .001.085-.043m0 0h.212m0 0 .084-.042m.424.381v-.593m0 .17.042-.085m0 0 .042-.042m0 0 .085-.043m.001 0h.084m.677.593v-.89m0 .848-.085.042m0 0h-.169m0 0-.085-.042m0 0-.042-.043m0 0-.042-.084m0 0v-.254m0 0 .042-.085m0 0 .042-.042m0 0 .085-.043m0 0h.17m-.001 0 .085.042"/></g><g style="fill:none;stroke:#c20000;stroke-width:.127;stroke-opacity:1;stroke-linecap:round;stroke-linejoin:round"><rect width="8.89" height="2.54" x="73.66" y="10.795" rx="0"/><rect width="8.89" height="2.54" x="73.66" y="10.795" rx="0"/></g><g style="fill:none;stroke:#c20000;stroke-width:.127;stroke-opacity:1;stroke-linecap:round;stroke-linejoin:round"><rect width="8.89" height="2.54" x="73.66" y="13.335" rx="0"/><rect width="8.89" height="2.54" x="73.66" y="13.335" rx="0"/></g><g style="fill:none;stroke:#c20000;stroke-width:.127;stroke-opacity:1;stroke-linecap:round;stroke-linejoin:round"><rect width="8.89" height="2.54" x="73.66" y="26.035" rx="0"/><rect width="8.89" height="2.54" x="73.66" y="26.035" rx="0"/></g><g style="fill:none;stroke:#c20000;stroke-width:.127;stroke-opacity:1;stroke-linecap:round;stroke-linejoin:round"><rect width="8.89" height="2.54" x="73.66" y="23.495" rx="0"/><rect width="8.89" height="2.54" x="73.66" y="23.495" rx="0"/></g><g style="fill:none;stroke:#c20000;stroke-width:.127;stroke-opacity:1;stroke-linecap:round;stroke-linejoin:round"><rect width="8.89" height="2.54" x="73.66" y="15.875" rx="0"/><rect width="8.89" height="2.54" x="73.66" y="15.875" rx="0"/></g><g style="fill:none;stroke:#c20000;stroke-width:.127;stroke-opacity:1;stroke-linecap:round;stroke-linejoin:round"><rect width="8.89" height="2.54" x="73.66" y="18.415" rx="0"/><rect width="8.89" height="2.54" x="73.66" y="18.415" rx="0"/></g><g style="fill:none;stroke:#c20000;stroke-width:.127;stroke-opacity:1;stroke-linecap:round;stroke-linejoin:round"><rect width="8.89" height="2.54" x="73.66" y="20.955" rx="0"/><rect width="8.89" height="2.54" x="73.66" y="20.955" rx="0"/></g><g style="fill:none;stroke:#0000c2;stroke-width:.1524;stroke-opacity:1;stroke-linecap:round;stroke-linejoin:round"><rect width="63.5" height="1.905" x="10.16" y="1.27" rx="0"/><rect width="63.5" height="1.905" x="10.16" y="1.27" rx="0"/></g><g class="stroked-text" style="fill:none;stroke:#fff;stroke-width:.1524;stroke-opacity:1;stroke-linecap:round;stroke-linejoin:round"><desc>Internals</desc><path d="M39.2 2.626v-.89m.424.297v.593m0-.508.042-.042m0 0 .085-.043m0 0h.127m0 0 .085.042m0 .001.042.084m0 0v.466m.296-.593h.339m-.212-.296v.762m0 0 .043.084m-.001.001.085.042m0 0h.085m.635-.042-.085.042m0 0h-.169m0 0-.085-.042m0 0-.042-.085m0 0V2.16m0 0 .042-.085m0 .001.085-.043m0 0h.17m-.001 0 .085.042m0 .001.042.084m0 0v.085m0 0-.423.084m.804.297v-.593m0 .17.043-.085m-.001 0 .043-.042m0 0 .085-.043m0 0h.084m.297 0v.593m0-.508.042-.042m0 0 .085-.043m0 0h.127m0 0 .084.042m0 .001.043.084m0 0v.466m.804 0V2.16m0 0-.042-.085m0 .001-.085-.043m0 0h-.17m.001 0-.085.042m.381.509-.085.042m.001 0h-.212m0 0-.085-.042m0 0-.042-.085m-.001 0v-.085m0 0 .043-.085m0 .001.085-.043m0 0h.211m.001 0 .084-.042m.55.381-.084-.042m0 0-.043-.085m0 0v-.762m.423.847.085.042m0 0h.17m0 0 .084-.042m.001 0 .042-.085m0 0v-.042m0 0-.043-.085m.001 0-.085-.042m0 0h-.127m0 0-.085-.043m0 0-.042-.084m-.001 0V2.16m0 0 .043-.085m0 .001.085-.043m0 0h.127m0 0 .084.042"/></g><g style="fill:none;stroke:#c20000;stroke-width:.127;stroke-opacity:1;stroke-linecap:round;stroke-linejoin:round"><rect width="6.35" height="7.62" x="45.085" y="23.495" rx="0"/><rect width="6.35" height="7.62" x="45.085" y="23.495" rx="0"/></g><g style="fill:none;stroke:#000084;stroke-width:.1524;stroke-opacity:1;stroke-linecap:round;stroke-linejoin:round"><g class="stroked-text"><desc>I²C</desc><path d="M47.365 26.95v-1.017m.435-.242.097-.048m0 0h.145m0 0 .097.048m0 0 .048.097m0 0v.097m0 0-.048.097m0 0-.339.338m0 0h.387m1.016.533-.048.048m0-.001-.145.05m0 0h-.097m0 0-.145-.05m0 0-.097-.096m0 0-.048-.097m0 0-.048-.193m0 0v-.145m0 0 .048-.194m0 0 .048-.097m0 0 .097-.096m0 0 .145-.049m0 0h.097m0 0 .145.049m0 0 .048.048"/></g><g class="stroked-text"><desc>Switch</desc><path d="m46.01 28.537.145.048m0 0h.242m0 0 .097-.048m0 0 .048-.049m.001 0 .048-.097m-.001 0v-.096m0 0-.048-.097m.001 0-.049-.049m0 .001-.097-.049m0 0-.193-.048m0 0-.097-.049m0 0-.048-.048m0 0-.049-.097m0 .001v-.098m0 .001.049-.097m0 0 .048-.049m0 0 .097-.048m0 0h.242m0 0 .145.048m.339.291.193.677m0 0 .194-.484m0 0 .193.484m0 0 .194-.677m.386.677v-.677m0-.339-.048.048m0 0 .049.049m-.001 0 .049-.049m0 0-.048-.048m-.001 0v.097m.34.242h.386m-.241-.339v.87m0 .001.048.097m0 0 .097.048m0 0h.096m.774-.048-.096.048m0 0H49.3m0 0-.097-.048m0 0-.048-.049m0 0-.048-.097m0 0v-.29m0 0 .048-.097m0 0 .048-.048m0 0 .097-.048m0 0h.194m0 0 .096.048m.436.629v-1.016m.435 1.016v-.532m0 0-.048-.097m0 0-.097-.048m0 0h-.145m0 0-.097.048m0 0-.048.048"/></g></g><g style="fill:none;stroke:#c20000;stroke-width:.127;stroke-opacity:1;stroke-linecap:round;stroke-linejoin:round"><rect width="8.89" height="2.54" x="61.595" y="23.495" rx="0"/><rect width="8.89" height="2.54" x="61.595" y="23.495" rx="0"/></g><g style="fill:none;stroke:#c20000;stroke-width:.127;stroke-opacity:1;stroke-linecap:round;stroke-linejoin:round"><rect width="8.89" height="2.54" x="1.27" y="26.035" rx="0"/><rect width="8.89" height="2.54" x="1.27" y="26.035" rx="0"/></g><g style="fill:none;stroke:#c20000;stroke-width:.127;stroke-opacity:1;stroke-linecap:round;stroke-linejoin:round"><rect width="8.89" height="2.54" x="1.27" y="23.495" rx="0"/><rect width="8.89" height="2.54" x="1.27" y="23.495" rx="0"/></g><g style="fill:none;stroke:#c20000;stroke-width:.127;stroke-opacity:1;stroke-linecap:round;stroke-linejoin:round"><rect width="12.7" height="5.08" x="38.735" y="17.145" rx="0"/><rect width="12.7" height="5.08" x="38.735" y="17.145" rx="0"/></g><g class="stroked-text" style="fill:none;stroke:#000084;stroke-width:.1524;stroke-opacity:1;stroke-linecap:round;stroke-linejoin:round"><desc>Southbridge</desc><path d="m40.755 20.099.145.048m0 0h.242m0 0 .097-.048m0 0 .048-.049m0 0 .049-.097m0 .001v-.097m0 0-.049-.097m0 0-.048-.048m0 0-.097-.049m0 0-.194-.048m.001 0-.097-.048m0 0-.049-.049m0 0-.048-.097m0 0v-.096m0 0 .048-.097m0 0 .049-.049m0 .001.097-.049m0 0h.241m0 0 .146.048m.58.968-.097-.048m.001 0-.049-.049m0 0-.048-.097m0 .001v-.29m0-.001.048-.096m0 0 .048-.049m.001 0 .096-.048m0 0h.145m0 0 .097.048m0 0 .048.049m0 0 .049.096m0 0v.29m0 .001-.049.096m0 0-.048.049m0 0-.097.048m0 0h-.145m1.21-.677v.677m-.436-.677v.532m0 0 .049.097m0 0 .096.048m0 0h.145m0 0 .097-.048m0 0 .049-.049m.338-.58h.387m-.241-.339v.87m0 .001.048.097m0 0 .096.048m.001 0h.096m.339 0v-1.016m.435 1.016v-.532m0 0-.048-.097m0 0-.097-.048m0 0h-.145m0 0-.097.048m0 0-.048.049m.92.58v-1.016m0 .387.096-.048m0 0h.193m.001 0 .096.048m0 0 .049.049m0 0 .048.096m0 0v.29m0 .001-.048.096m0 0-.049.049m0 0-.097.048m.001 0h-.194m0 0-.097-.048m.919.048v-.677m0 .193.049-.096m0 0 .048-.049m0 0 .097-.048m0 0h.097m.338.677v-.677m0-.339-.048.048m0 .001.048.048m0 0 .049-.049m0 .001-.049-.049m0 0v.097m.92.919v-1.016m0 .968-.097.048m0 0h-.194m0 0-.096-.048m0 0-.049-.049m0 0-.048-.097m0 .001v-.29m0-.001.048-.096m0 0 .049-.049m0 0 .096-.048m0 0h.194m0 0 .097.048m.919-.048v.822m0 0-.049.097m0 0-.048.048m0 0-.097.049m0 0h-.145m0 0-.097-.049m.436-.338-.097.048m0 0h-.194m.001 0-.097-.048m0 0-.049-.049m0 0-.048-.097m0 .001v-.29m0-.001.048-.096m0 0 .049-.049m0 0 .096-.048m.001 0h.193m0 0 .097.048m.871.581-.097.048m0 0h-.194m0 0-.096-.048m0 0-.049-.097m0 0v-.387m0 0 .049-.097m0 0 .096-.048m0 0h.194m0 0 .097.048m0 0 .048.097m0 0v.097m0 0-.484.096"/></g><g class="stroked-text" style="fill:none;stroke:#000084;stroke-width:.1524;stroke-opacity:1;stroke-linecap:round;stroke-linejoin:round"><desc>/7</desc><path d="m11.394 23.616-.653.98m.834-.944h.508m0 0-.326.762"/></g><g class="stroked-text" style="fill:none;stroke:#0000c2;stroke-width:.1524;stroke-opacity:1;stroke-linecap:round;stroke-linejoin:round"><desc>Fast Path</desc><path d="M39.18 11.233h-.297m0 .465v-.889m0 .001h.424m.719.888v-.466m0 .001-.042-.085m0 0-.085-.043m.001.001h-.17m0 0-.085.042m.381.508-.084.042m0 0h-.212m0 0-.085-.042m0 0-.042-.085m0 0v-.085m0 .001.042-.085m0 0 .085-.042m0 0h.212m0 0 .084-.043m.381.339.085.042m0 0h.17m-.001 0 .085-.042m0 0 .042-.085m0 0v-.042m0 0-.042-.085m0 0-.085-.042m0 0h-.127m0 0-.084-.042m0 0-.043-.085m0 0v-.043m0 .001.043-.085m0 0 .084-.043m0 .001h.127m0 0 .085.042m.296-.042h.339m-.211-.296v.761m0 0 .042.085m0 0 .084.042m0 0h.085m.974 0v-.889m0 .001h.338m0 0 .085.041m0 .001.042.042m0 0 .042.085m.001 0v.127m0 0-.043.084m0 0-.042.043m0 0-.085.042m0 0h-.338m1.27.423v-.466m0 .001-.043-.085m0 0-.084-.043m0 .001h-.17m0 0-.085.042m.382.508-.085.042m0 0h-.212m0 0-.085-.042m.001 0-.043-.085m0 0v-.085m0 .001.042-.085m.001 0 .084-.042m0 0h.212m0 0 .084-.043m.296-.211h.34m-.212-.296v.761m0 0 .042.085m0 0 .085.042m0 0h.085m.296 0v-.889m.381.889v-.466m0 .001-.042-.085m0 0-.085-.043m0 .001h-.127m0 0-.085.042m0 0-.042.042"/></g><g class="stroked-text" style="fill:none;stroke:#0000c2;stroke-width:.1524;stroke-opacity:1;stroke-linecap:round;stroke-linejoin:round"><desc>Fast Path</desc><path d="M39.18 13.773h-.297m0 .465v-.889m0 .001h.424m.719.888v-.465m0 0-.042-.085m0 0-.085-.043m.001.001h-.17m0 0-.085.042m.381.508-.084.042m0 0h-.212m0 0-.085-.042m0 0-.042-.085m0 0v-.085m0 .001.042-.085m0 0 .085-.043m0 .001h.212m0 0 .084-.043m.381.339.085.042m0 0h.17m-.001 0 .085-.042m0 0 .042-.085m0 0v-.042m0 0-.042-.085m0 0-.085-.042m0 0h-.127m0 0-.084-.043m0 .001-.043-.085m0 0v-.042m0 0 .043-.085m0 0 .084-.043m0 .001h.127m0 0 .085.042m.296-.042h.339m-.211-.296v.761m0 0 .042.085m0 0 .084.042m0 0h.085m.974 0v-.889m0 .001h.338m0 0 .085.042m0 0 .042.042m0 0 .042.085m.001 0v.127m0 0-.043.084m0 0-.042.043m0 0-.085.042m0 0h-.338m1.27.423v-.465m0 0-.043-.085m0 0-.084-.043m0 .001h-.17m0 0-.085.042m.382.508-.085.042m0 0h-.212m0 0-.085-.042m.001 0-.043-.085m0 0v-.085m0 .001.042-.085m.001 0 .084-.043m0 .001h.212m0 0 .084-.043m.296-.211h.34m-.212-.296v.761m0 0 .042.085m0 0 .085.042m0 0h.085m.296 0v-.889m.381.889v-.465m0 0-.042-.085m0 0-.085-.043m0 .001h-.127m0 0-.085.042m0 0-.042.042"/></g><g class="stroked-text" style="fill:none;stroke:#000084;stroke-width:.1524;stroke-opacity:1;stroke-linecap:round;stroke-linejoin:round"><desc>/7</desc><path d="m11.394 26.156-.653.98m.834-.944h.508m0 0-.326.762"/></g><g class="stroked-text" style="fill:none;stroke:#000084;stroke-width:.1524;stroke-opacity:1;stroke-linecap:round;stroke-linejoin:round"><desc>/7</desc><path d="m11.394 15.996-.653.98m.834-.944h.508m0 0-.326.762"/></g><g class="stroked-text" style="fill:none;stroke:#000084;stroke-width:.1524;stroke-opacity:1;stroke-linecap:round;stroke-linejoin:round"><desc>/7</desc><path d="m11.394 18.536-.653.98m.834-.944h.508m0 0-.326.762"/></g><g class="stroked-text" style="fill:none;stroke:#000084;stroke-width:.1524;stroke-opacity:1;stroke-linecap:round;stroke-linejoin:round"><desc>/7</desc><path d="m11.394 21.076-.653.98m.834-.944h.508m0 0-.326.762"/></g><g style="fill:none;stroke:#0000c2;stroke-width:.1524;stroke-opacity:1;stroke-linecap:round;stroke-linejoin:round"><rect width="8.89" height="7.62" x="1.27" y="28.575" rx="0"/><rect width="8.89" height="7.62" x="73.66" y="28.575" rx="0"/><rect width="8.89" height="33.02" x="73.66" y="3.175" rx="0"/><rect width="8.89" height="7.62" x="73.66" y="3.175" rx="0"/><rect width="63.5" height="33.02" x="10.16" y="3.175" rx="0"/><rect width="8.89" height="7.62" x="1.27" y="3.175" rx="0"/><path d="M73.66 1.27v1.905"/></g><circle cx="32.385" cy="27.305" r=".457" style="fill:#009600;fill-opacity:1;stroke:#009600;stroke-width:.1524;stroke-opacity:1;stroke-linecap:round;stroke-linejoin:round"/></svg>