<svg xmlns="http://www.w3.org/2000/svg" width="319.2" height="144" viewBox="0 0 84.455 38.1"><desc>Image generated by Eeschema-SVG</desc><rect width="6.35" height="6.35" x="33.401" y="27.051" rx="0" style="fill:#ffffc2;fill-opacity:1;stroke:none"/><rect width="8.89" height="1.905" x="1.651" y="1.651" rx="0" style="fill:#0000c2;fill-opacity:1;stroke:none"/><rect width="8.89" height="2.54" x="1.651" y="11.176" rx="0" style="fill:#ffffc2;fill-opacity:1;stroke:none"/><rect width="8.89" height="2.54" x="1.651" y="13.716" rx="0" style="fill:#ffffc2;fill-opacity:1;stroke:none"/><rect width="28.194" height="27.94" x="43.561" y="6.096" rx="0" style="fill:#ffffc2;fill-opacity:1;stroke:none"/><rect width="63.5" height="1.905" x="10.541" y="1.651" rx="0" style="fill:#0000c2;fill-opacity:1;stroke:none"/><rect width="8.89" height="2.54" x="1.651" y="18.796" rx="0" style="fill:#ffffc2;fill-opacity:1;stroke:none"/><rect width="8.89" height="2.54" x="1.651" y="16.256" rx="0" style="fill:#ffffc2;fill-opacity:1;stroke:none"/><rect width="8.89" height="2.54" x="1.651" y="26.416" rx="0" style="fill:#ffffc2;fill-opacity:1;stroke:none"/><rect width="8.89" height="2.54" x="1.651" y="21.336" rx="0" style="fill:#ffffc2;fill-opacity:1;stroke:none"/><rect width="8.89" height="2.54" x="1.651" y="23.876" rx="0" style="fill:#ffffc2;fill-opacity:1;stroke:none"/><rect width="8.89" height="1.905" x="74.041" y="1.651" rx="0" style="fill:#0000c2;fill-opacity:1;stroke:none"/><rect width="8.89" height="7.62" x="1.651" y="3.556" rx="0" style="fill:#ffe5bf;fill-opacity:1;stroke:none"/><rect width="8.89" height="7.62" x="1.651" y="28.956" rx="0" style="fill:#ffe5bf;fill-opacity:1;stroke:none"/><rect width="8.89" height="33.02" x="74.041" y="3.556" rx="0" style="fill:#ffe5bf;fill-opacity:1;stroke:none"/><g style="fill:none;stroke:#725600;stroke-width:.1524;stroke-opacity:1;stroke-linecap:round;stroke-linejoin:round"><g class="stroked-text"><desc>Video</desc><path d="m4.021 11.756.423 1.27m.001 0 .423-1.27m.423 1.27v-.847m0-.423-.06.06m-.001 0 .061.06m0 .001.06-.061m.001 0-.06-.06m-.001 0v.12m1.149 1.15v-1.27m0 1.209-.12.06m0 .001h-.243m.001 0-.122-.06m.001-.001-.061-.06m0 0-.06-.121m0 0v-.363m0-.001.06-.12m0 0 .06-.06m.001 0 .12-.061m.001 0h.241m.001 0 .12.06m1.089.726-.121.06m0 .001h-.242m0 0-.121-.06m0-.001-.06-.12m0-.001v-.484m0 0 .06-.12m0 0 .121-.061m0 0h.242m0 0 .12.06m.001.001.06.12m.001 0v.121m0 0-.605.121m1.33.424-.12-.06m-.001-.001-.06-.06m0 0-.06-.121m-.001 0v-.363m0-.001.06-.12m.001 0 .06-.06m0 0 .121-.061m0 0h.181m.001 0 .12.06m0 .001.06.06m.001 0 .06.12m0 0v.364m0 0-.06.12m0 .001-.06.06m-.001 0-.12.06m0 .001h-.182"/></g><path d="m9.271 12.446.635.635h.635v-1.27h-.635Z" style="stroke:#725600;stroke-width:.1524;stroke-opacity:1;stroke-linecap:round;stroke-linejoin:round;fill:none"/></g><g style="fill:none;stroke:#725600;stroke-width:.1524;stroke-opacity:1;stroke-linecap:round;stroke-linejoin:round"><g class="stroked-text"><desc>I²C</desc><path d="M6.44 25.726v-1.27m.545-.303.12-.06m.001 0h.18m.001 0 .12.06m.001 0 .06.121m0 0v.121m0 0-.06.121m0 0-.423.423m0 .001h.483m1.27.665-.06.06m0 0-.182.06m0 .001h-.12m0 0-.182-.06m0-.001-.12-.12m-.001-.001-.06-.12m0-.001-.06-.242m-.001 0V25m0 0 .06-.242m.001 0 .06-.121m0 0 .121-.121m0 0 .181-.06m.001 0h.12m0 0 .182.06m0 0 .06.06"/></g><path d="m10.541 25.146-.635-.635-.635.635.635.635Z" style="stroke:#725600;stroke-width:.1524;stroke-opacity:1;stroke-linecap:round;stroke-linejoin:round;fill:none"/></g><g style="fill:none;stroke:#725600;stroke-width:.1524;stroke-opacity:1;stroke-linecap:round;stroke-linejoin:round"><g class="stroked-text"><desc>Audio</desc><path d="M4.082 15.203h.604m-.726.363.424-1.27m0 0 .423 1.27m.968-.847v.847m-.545-.847v.665m0 0 .061.121m0 0 .121.06m0 .001h.182m0 0 .12-.06m.001-.001.06-.06m1.149.121v-1.27m0 1.209-.12.06m-.001.001h-.242m0 0-.12-.06m-.001-.001-.06-.06m0 0-.06-.121m0 0v-.363m0-.001.06-.12m0 0 .06-.06m0 0 .121-.061m0 0h.242m0 0 .121.06m.605.787v-.847m0-.423-.06.06m-.001 0 .06.06m.001.001.06-.061m.001 0-.061-.06m0 0v.12m.786 1.15-.12-.06m-.001-.001-.06-.06m0 0-.06-.121m-.001 0v-.363m0-.001.06-.12m.001 0 .06-.06m0 0 .121-.061m0 0h.181m.001 0 .12.06m0 .001.06.06m.001 0 .06.12m0 0v.364m0 0-.06.12m0 .001-.06.06m-.001 0-.12.06m0 .001h-.182"/></g><path d="m9.271 14.986.635.635h.635v-1.27h-.635Z" style="stroke:#725600;stroke-width:.1524;stroke-opacity:1;stroke-linecap:round;stroke-linejoin:round;fill:none"/></g><g style="fill:none;stroke:#725600;stroke-width:.1524;stroke-opacity:1;stroke-linecap:round;stroke-linejoin:round"><g class="stroked-text"><desc>IRQ</desc><path d="M6.077 23.186v-1.27m1.331 1.27-.424-.605m-.302.605v-1.27m0 0h.484m0 0 .12.06m.001 0 .06.06m0 .001.06.12m.001 0v.182m0 0-.06.12m-.001.001-.06.06m0 0-.121.06m0 0h-.484m2.117.727-.121-.061m0 0-.121-.12m0-.001-.181-.181m0 0-.121-.06m0-.001h-.121m.06.303-.12-.06m-.001-.001-.12-.12m-.001-.001-.06-.242m0 0v-.423m0 0 .06-.242m0 0 .121-.121m0 0 .121-.06m0 0h.242m0 0 .12.06m.001 0 .12.121m.001 0 .06.242m0 0v.423m0 0-.06.242m0 0-.121.121m0 0-.121.06m0 .001h-.242"/></g><path d="m10.541 22.606-.635-.635h-.635v1.27h.635Z" style="stroke:#725600;stroke-width:.1524;stroke-opacity:1;stroke-linecap:round;stroke-linejoin:round;fill:none"/></g><g style="fill:none;stroke:#725600;stroke-width:.1524;stroke-opacity:1;stroke-linecap:round;stroke-linejoin:round"><g class="stroked-text"><desc>Detect</desc><path d="M3.295 28.266v-1.27m0 0h.303m0 0 .181.06m.001 0 .12.121m0 0 .06.12m0 .001.061.242m0 0v.181m0 0-.06.242m-.001 0-.06.121m0 0-.12.121m0 0-.182.06m0 .001h-.303m1.755-.061-.122.06m0 .001h-.242m0 0-.12-.06m-.001-.001-.06-.12m0-.001V27.6m0 0 .06-.12m0 0 .121-.061m0 0h.242m0 0 .121.06m.001.001.06.12m0 0v.121m0 0-.605.121m.968-.423h.483m-.302-.423v1.088m0 0 .06.121m.001 0 .12.06m.001.001h.12m.908-.061-.121.06m0 .001H6.5m0 0-.12-.06m0-.001-.06-.12m0-.001V27.6m0 0 .06-.12m0 0 .12-.061m0 0h.243m0 0 .12.06m.001.001.06.12m0 0v.121m0 0-.605.121m1.694.363-.121.06m0 .001H7.65m0 0-.121-.06m0-.001-.06-.06m-.001 0-.06-.121m0 0v-.363m0-.001.06-.12m0 0 .06-.06m.001 0 .12-.061m.001 0h.242m0 0 .12.06m.364-.06h.483m-.302-.423v1.088m0 0 .06.121m0 0 .121.06m0 .001h.121"/></g><path d="m10.541 27.686-.635-.635h-.635v1.27h.635Z" style="stroke:#725600;stroke-width:.1524;stroke-opacity:1;stroke-linecap:round;stroke-linejoin:round;fill:none"/></g><g style="fill:none;stroke:#725600;stroke-width:.1524;stroke-opacity:1;stroke-linecap:round;stroke-linejoin:round"><g class="stroked-text"><desc>E-Bus</desc><path d="M3.114 19.98h.424m.181.666h-.605m0 0v-1.27m0 0h.605m.544.786h.968m1.028-.182.181.06m0 0 .06.061m0 0 .061.121m0 0v.182m0 0-.06.12m-.001.001-.06.06m0 0-.12.06m0 .001h-.485m.001 0v-1.27m0 0h.423m0 0 .12.06m.001 0 .06.06m0 .001.06.12m0 0v.121m0 0-.06.121m0 .001-.06.06m0 0-.121.06m0 0h-.424m1.815-.181v.846m-.544-.846v.665m0 0 .06.121m0 0 .121.06m0 .001h.181m0 0 .121-.06m.001-.001.06-.06m.544.06.121.06m0 .001h.242m0 0 .12-.06m.001-.001.06-.12m0-.001v-.06m0 0-.06-.121m0 0-.121-.06m0-.001h-.181m0 0-.121-.06m0 0-.06-.121m-.001-.001v-.06m0 0 .06-.12m.001 0 .12-.061m.001 0h.18m.001 0 .12.06"/></g><path d="m10.541 20.066-.635-.635-.635.635.635.635Z" style="stroke:#725600;stroke-width:.1524;stroke-opacity:1;stroke-linecap:round;stroke-linejoin:round;fill:none"/></g><g style="fill:none;stroke:#725600;stroke-width:.1524;stroke-opacity:1;stroke-linecap:round;stroke-linejoin:round"><g class="stroked-text"><desc>Power</desc><path d="M3.658 18.106v-1.27m0 0h.484m0 0 .121.06m0 0 .06.06m.001.001.06.12m0 0v.182m0 0-.06.12m0 .001-.06.06m-.001 0-.12.06m-.001 0h-.484m1.452.606-.121-.06m0-.001-.06-.06m-.001 0-.06-.121m0 0V17.5m0 0 .06-.12m0 0 .06-.06m.001 0 .12-.061m.001 0h.181m0 0 .121.06m0 .001.06.06m.001 0 .06.12m0 0v.364m0 0-.06.12m0 .001-.06.06m-.001 0-.12.06m-.001.001H5.11m.846-.847.242.846m0 .001.242-.605m0-.001.242.605m0 .001.242-.847m.968.786-.121.06m-.001.001h-.24m-.001 0-.121-.06m0-.001-.06-.12m-.001-.001v-.484m0 0 .06-.12m.001 0 .12-.061m.001 0h.242m-.001 0 .122.06m0 .001.06.12m0 0v.121m0 0-.605.121m1.149.424v-.847m0 .241.06-.12m.001 0 .06-.06m0 0 .121-.061m0 0h.121"/></g><path d="m9.271 17.526.635.635h.635v-1.27h-.635Z" style="stroke:#725600;stroke-width:.1524;stroke-opacity:1;stroke-linecap:round;stroke-linejoin:round;fill:none"/></g><path d="M10.541 25.146h26.035m-26.035-2.54h33.02m-6.985 2.54v1.905m-26.035-9.525h33.02m-33.02-2.54h33.02m-33.02-2.54h33.02M12.446 28.321h-1.905m0-8.255h33.02m-33.02 6.985h1.905m0 0v1.27m24.13-3.175h6.985" style="fill:none;stroke:#009600;stroke-width:.1524;stroke-opacity:1;stroke-linecap:round;stroke-linejoin:round"/><g style="fill:none;stroke:#c20000;stroke-width:.127;stroke-opacity:1;stroke-linecap:round;stroke-linejoin:round"><rect width="6.35" height="6.35" x="33.401" y="27.051" rx="0"/><rect width="6.35" height="6.35" x="33.401" y="27.051" rx="0"/></g><g class="stroked-text" style="fill:none;stroke:#000084;stroke-width:.1524;stroke-opacity:1;stroke-linecap:round;stroke-linejoin:round"><desc>EEPROM</desc><path d="M33.77 30.156h.339m.145.532h-.484m0 0v-1.016m0 0h.484m.436.484h.338m.145.532h-.484m.001 0v-1.016m0 0h.483m.435 1.016v-1.016m0 0h.387m0 0 .097.048m0 0 .049.049m-.001 0 .049.097m0 0v.145m0-.001-.048.098m-.001 0-.048.048m0 0-.097.048m0 0h-.387m1.597.484-.339-.484m-.242.484v-1.016m0 0h.387m0 0 .097.048m0 0 .049.049m0 0 .048.097m0 0v.145m0-.001-.048.098m0 0-.049.048m0 0-.097.048m0 0h-.387m1.21-.532h.193m0 0 .097.048m0 0 .097.097m-.001 0 .05.194m0-.001v.34m0 0-.05.193m0 0-.096.097m0 0-.097.048m0 0h-.193m0 0-.097-.048m0 0-.097-.097m0 0-.048-.194m0 .001v-.34m0 0 .048-.193m0 0 .097-.097m0 0 .097-.048m.871 1.016v-1.016m0 0 .338.726m0 0 .34-.726m-.001 0v1.016"/></g><g style="fill:none;stroke:#0000c2;stroke-width:.1524;stroke-opacity:1;stroke-linecap:round;stroke-linejoin:round"><rect width="8.89" height="1.905" x="1.651" y="1.651" rx="0"/><rect width="8.89" height="1.905" x="1.651" y="1.651" rx="0"/></g><g class="stroked-text" style="fill:none;stroke:#fff;stroke-width:.1524;stroke-opacity:1;stroke-linecap:round;stroke-linejoin:round"><desc>Expansion</desc><path d="M2.963 2.541h.297m.127.466h-.424m0 0v-.89m0 .001h.424m.296.889.466-.593m-.466 0 .466.593m.338-.593v.89m0-.847.085-.043m0 0h.17m-.001 0 .085.042m0 .001.042.042m0 0 .043.084m-.001.001v.253m0 .001-.042.084m0 0-.042.042m0 .001-.085.042m0 0h-.169m0 0-.085-.042m1.186.042V2.54m0 .001-.043-.084m0 0-.084-.043m0 0h-.17m0 0-.084.042m.381.509-.085.042m0 0h-.212m0 0-.084-.042m0 0-.043-.085m.001 0v-.085m0 0 .042-.084m0-.001.084-.042m0 0h.212m0 0 .085-.042m.423-.212v.593m0-.508.042-.042m0 0 .085-.043m0 0h.127m0 0 .085.042m0 .001.042.084m0 0v.466m.381-.042.085.042m0 0h.169m0 0 .085-.042m0 0 .042-.085m0 0v-.042m0 0-.042-.085m0 0-.085-.042m0-.001h-.127m0 0L6.9 2.669m0-.001-.042-.085m0 .001V2.54m0 .001.042-.084m0 0 .085-.043m0 0h.127m0 0 .085.042m.423.551v-.593m0-.296-.042.042m0 0 .042.042m0 .001.042-.043m0 0-.042-.042m0 0v.085m.55.804-.084-.042m0 0-.043-.043m0 0-.042-.085m0 .001v-.255m0 .001.042-.085m0 0 .043-.042m0 0 .084-.043m0 0h.127m0 0 .085.042m0 .001.042.042m0 0 .043.084m0 .001v.253m0 .001-.043.084m0 0-.042.042m0 .001-.085.042m0 0H8.17m.678-.593v.593m0-.508.042-.042m0 0 .085-.043m0 0h.127m0 0 .084.042m0 .001.043.084m0 0v.466"/></g><g style="fill:none;stroke:#c20000;stroke-width:.127;stroke-opacity:1;stroke-linecap:round;stroke-linejoin:round"><rect width="8.89" height="2.54" x="1.651" y="11.176" rx="0"/><rect width="8.89" height="2.54" x="1.651" y="11.176" rx="0"/></g><g style="fill:none;stroke:#c20000;stroke-width:.127;stroke-opacity:1;stroke-linecap:round;stroke-linejoin:round"><rect width="8.89" height="2.54" x="1.651" y="13.716" rx="0"/><rect width="8.89" height="2.54" x="1.651" y="13.716" rx="0"/></g><g style="fill:none;stroke:#c20000;stroke-width:.127;stroke-opacity:1;stroke-linecap:round;stroke-linejoin:round"><rect width="28.194" height="27.94" x="43.561" y="6.096" rx="0"/><rect width="28.194" height="27.94" x="43.561" y="6.096" rx="0"/></g><g style="fill:none;stroke:#000084;stroke-width:.1524;stroke-opacity:1;stroke-linecap:round;stroke-linejoin:round"><g class="stroked-text"><desc>Application</desc><path d="M53.642 19.42h.484m-.58.29.338-1.016m0 0 .339 1.016m.339-.677v1.016m0-.968.096-.048m0 0h.194m0 0 .097.048m0 0 .048.049m0 0 .048.096m.001 0v.29m0 .001-.049.096m0 .001-.048.048m0 0-.097.048m0 0h-.194m0 0-.096-.048m.918-.629v1.016m0-.968.098-.048m0 0h.193m0 0 .097.048m0 0 .048.049m0 0 .049.096m0 0v.29m0 .001-.049.096m0 .001-.048.048m0 0-.097.048m0 0h-.193m0 0-.097-.048m1.064.048-.097-.048m0 0-.048-.097m0 0v-.87m.532 1.015v-.677m0-.339-.048.049m0 0 .048.048m0 0 .049-.048m-.001 0-.048-.049m0 0v.097m.92.871-.097.048m0 0h-.194m0 0-.097-.048m0 0-.048-.049m0 .001-.048-.097m0 0v-.29m0-.001.048-.096m0 0 .048-.049m0 0 .097-.048m0 0h.194m0 0 .096.048m.871.629v-.532m0 0-.048-.097m0 0-.097-.048m0 0h-.193m0 0-.097.048m.435.581-.096.048m0 0h-.242m0 0-.097-.048m0 0-.048-.097m0 0v-.097m0 0 .048-.096m0 0 .097-.049m0 0h.242m0 0 .096-.048m.339-.242h.387m-.242-.339v.871m0 0 .048.097m.001 0 .096.048m0 0h.097m.339 0v-.677m0-.339-.049.049m0 0 .049.048m0 0 .048-.048m0 0-.048-.049m0 0v.097m.629.919-.097-.048m0 0-.048-.049m-.001.001-.048-.097m0 0v-.29m0-.001.049-.096m-.001 0 .049-.049m0 0 .097-.048m0 0h.145m-.001 0 .098.048m0 0 .048.049m0 0 .048.096m0 0v.29m0 .001-.048.096m0 .001-.048.048m0 0-.097.048m-.001 0h-.144m.774-.677v.677m0-.58.048-.049m0 0 .097-.048m0 0h.145m0 0 .097.048m0 0 .048.097m0 0v.532"/></g><g class="stroked-text"><desc>Defined Logic</desc><path d="M52.675 21.346V20.33m0 0h.242m0 0 .145.048m0 0 .097.097m0 0 .048.097m0 0 .048.193m0 0v.145m0 0-.048.194m0 0-.048.097m0-.001-.097.098m0 0-.145.048m0 0h-.242m1.403-.048-.097.048m0 0h-.194m.001 0-.097-.048m-.001 0-.048-.097m0-.001v-.386m0 0 .049-.097m-.001 0 .098-.048m0 0h.193m0 0 .097.048m0 0 .048.097m0 0v.096m0 0-.484.097m.775-.338h.387m-.242.677v-.87m0-.001.048-.097m0 0 .097-.048m0 0h.097m.338 1.016v-.677m0-.339-.048.048m0 0 .048.049m0 0 .049-.049m-.001 0-.048-.048m0 0v.097m.484.242v.677m0-.581.048-.048m0 0 .097-.048m0 0h.145m0 0 .097.048m0 0 .049.097m0 0v.532m.87-.048-.096.048m0 0h-.194m0 0-.097-.048m0 0-.048-.097m0-.001v-.386m0 0 .048-.097m0 0 .097-.048m0 0h.194m0 0 .096.048m0 0 .049.097m-.001 0v.096m0 0-.483.097m1.355.339V20.33m0 .968-.097.048m0 0h-.194m0 0-.096-.048m0 0-.049-.049m0 .001-.048-.098m0 0v-.29m0 0 .048-.097m0 0 .049-.048m0 0 .096-.048m0 0h.194m0 0 .097.048m1.741.629h-.484m.001 0V20.33m.967 1.016-.097-.048m0 0-.048-.049m0 .001-.048-.098m0 0v-.29m0 0 .048-.097m0 0 .048-.048m0 0 .097-.048m0 0h.145m0 0 .097.048m0 0 .048.048m0 0 .049.097m0 0v.29m0 0-.049.097m0 .001-.048.048m0 0-.097.048m0 0h-.145m1.21-.677v.822m0 0-.049.097m0 0-.048.048m0 0-.097.049m0 0h-.145m0 0-.097-.049m.436-.338-.097.048m0 0h-.194m0 0-.096-.048m0 0-.049-.049m0 .001-.048-.098m0 0v-.29m0 0 .048-.097m0 0 .049-.048m0 0 .096-.048m0 0h.194m0 0 .097.048m.483.629v-.677m0-.339-.048.048m0 0 .048.049m0 0 .049-.049m0 0-.049-.048m0 0v.097m.92.871-.097.048m0 0h-.194m.001 0-.097-.048m0 0-.049-.049m0 .001-.048-.098m0 0v-.29m0 0 .048-.097m0 0 .049-.048m0 0 .096-.048m.001 0h.193m0 0 .097.048"/></g></g><g style="fill:none;stroke:#0000c2;stroke-width:.1524;stroke-opacity:1;stroke-linecap:round;stroke-linejoin:round"><rect width="63.5" height="1.905" x="10.541" y="1.651" rx="0"/><rect width="63.5" height="1.905" x="10.541" y="1.651" rx="0"/></g><g class="stroked-text" style="fill:none;stroke:#fff;stroke-width:.1524;stroke-opacity:1;stroke-linecap:round;stroke-linejoin:round"><desc>Internals</desc><path d="M39.582 3.007v-.89m.423.297v.593m0-.508.042-.042m0 0 .085-.043m0 0h.127m0 0 .085.042m0 .001.042.084m0 0v.466m.296-.593h.339m-.211-.296v.762m0 0 .042.085m0 0 .084.042m0 0h.085m.635-.042-.085.042m0 0h-.169m0 0-.085-.042m0 0-.042-.085m0 0v-.34m0 .001.042-.084m0 0 .085-.043m0 0h.17m-.001 0 .085.042m0 .001.042.084m0 0v.085m0 0-.423.085m.805.296v-.593m0 .17.042-.085m0 0 .042-.042m0 0 .085-.043m0 0h.084m.297 0v.593m0-.508.042-.042m0 0 .085-.043m0 0h.127m0 0 .084.042m0 .001.043.084m-.001 0v.466m.805 0V2.54m0 .001-.042-.084m0 0-.085-.043m0 0h-.17m.001 0-.085.042m.381.509-.085.042m0 0h-.211m0 0-.085-.042m0 0-.042-.085m0 0v-.085m0 0 .042-.084m0-.001.085-.042m0 0h.211m0 0 .085-.042m.55.381-.084-.042m-.001 0-.042-.085m0 0v-.762m.424.847.084.042m0 0h.17m0 0L45 2.965m0 0 .043-.085m0 0v-.042m0 0L45 2.753m0 0-.084-.042m0-.001h-.127m0 0-.085-.042m0 0-.042-.085m0 .001V2.54m0 .001.042-.084m0 0 .085-.043m0 0h.127m0 0 .084.042"/></g><g style="fill:none;stroke:#c20000;stroke-width:.127;stroke-opacity:1;stroke-linecap:round;stroke-linejoin:round"><rect width="8.89" height="2.54" x="1.651" y="18.796" rx="0"/><rect width="8.89" height="2.54" x="1.651" y="18.796" rx="0"/></g><g style="fill:none;stroke:#c20000;stroke-width:.127;stroke-opacity:1;stroke-linecap:round;stroke-linejoin:round"><rect width="8.89" height="2.54" x="1.651" y="16.256" rx="0"/><rect width="8.89" height="2.54" x="1.651" y="16.256" rx="0"/></g><g style="fill:none;stroke:#c20000;stroke-width:.127;stroke-opacity:1;stroke-linecap:round;stroke-linejoin:round"><rect width="8.89" height="2.54" x="1.651" y="26.416" rx="0"/><rect width="8.89" height="2.54" x="1.651" y="26.416" rx="0"/></g><g style="fill:none;stroke:#c20000;stroke-width:.127;stroke-opacity:1;stroke-linecap:round;stroke-linejoin:round"><rect width="8.89" height="2.54" x="1.651" y="21.336" rx="0"/><rect width="8.89" height="2.54" x="1.651" y="21.336" rx="0"/></g><g style="fill:none;stroke:#c20000;stroke-width:.127;stroke-opacity:1;stroke-linecap:round;stroke-linejoin:round"><rect width="8.89" height="2.54" x="1.651" y="23.876" rx="0"/><rect width="8.89" height="2.54" x="1.651" y="23.876" rx="0"/></g><g style="fill:none;stroke:#0000c2;stroke-width:.1524;stroke-opacity:1;stroke-linecap:round;stroke-linejoin:round"><rect width="8.89" height="1.905" x="74.041" y="1.651" rx="0"/><rect width="8.89" height="1.905" x="74.041" y="1.651" rx="0"/></g><g class="stroked-text" style="fill:none;stroke:#fff;stroke-width:.1524;stroke-opacity:1;stroke-linecap:round;stroke-linejoin:round"><desc>Frontpanel</desc><path d="M75.46 2.541h-.297m0 .466v-.89m0 .001h.423m.339.889v-.593m0 .17.042-.085m0 0 .043-.042m0 0 .084-.043m0 0h.085m.423.593-.084-.042m0 0-.043-.043m0 0-.042-.085m0 .001v-.255m0 .001.042-.085m0 0 .043-.042m0 0 .084-.043m0 0h.127m.001 0 .084.042m0 .001.042.042m0 0 .043.084m0 .001v.253m0 .001-.043.084m0 0-.042.042m0 .001-.085.042m.001 0h-.128m.678-.593v.593m0-.508.042-.042m0 0 .084-.043m.001 0h.127m0 0 .084.042m0 .001.043.084m-.001 0v.466m.297-.593h.339m-.212-.296v.762m0 0 .042.085m0 0 .085.042m-.001 0h.086m.296-.593v.89m0-.847.085-.043m0 0h.169m0 0 .084.042m0 .001.043.042m0 0 .042.084m0 .001v.253m0 .001-.042.084m0 0-.043.042m0 .001-.084.042m0 0h-.17m.001 0-.085-.042m1.185.042V2.54m0 .001-.042-.084m0 0-.085-.043m0 0h-.17m0 0-.084.042m.381.509-.085.042m.001 0h-.212m-.001 0-.084-.042m0 0-.042-.085m0 0v-.085m0 0 .042-.084m0-.001.085-.042m-.001 0h.212m.001 0 .084-.042m.423-.212v.593m0-.508.043-.042m0 0 .084-.043m0 0h.127m0 0 .085.042m.001.001.041.084m0 0v.466m.762-.042-.084.042m0 0h-.17m.001 0-.085-.042m0 0-.043-.085m0 0v-.34m0 .001.043-.084m0 0 .084-.043m.001 0h.169m0 0 .084.042m0 .001.043.084m0 0v.085m0 0-.424.085m.932.296-.085-.042m.001 0-.043-.085m0 0v-.762"/></g><g class="stroked-text" style="fill:none;stroke:#008400;stroke-width:.1524;stroke-opacity:1;stroke-linecap:round;stroke-linejoin:round"><desc>Loopback</desc><path d="M13.181 27.84h-.423m0 0v-.89m.847.89-.085-.043m0 0-.043-.042m.001 0-.043-.085m0 0v-.254m0 0 .042-.085m.001 0 .042-.042m0 0 .085-.042m0 0h.127m0 0 .084.042m0 0 .042.042m.001 0 .042.085m-.001 0v.254m0 0-.042.085m.001 0-.043.042m0 0-.085.042m.001.001h-.127m.804 0-.085-.043m0 0-.042-.042m0 0-.043-.085m.001 0v-.254m0 0 .042-.085m0 0 .042-.042m0 0 .085-.042m0 0h.127m0 0 .085.042m-.001 0 .043.042m0 0 .042.085m0 0v.254m0 0-.042.085m0 0-.043.042m0 0-.084.042m0 .001h-.127m.677-.593v.889m0-.847.085-.042m-.001 0h.17m0 0 .085.042m0 0 .042.042m0 0 .042.085m.001 0v.254m0 0-.043.085m0 0-.042.042m0 0-.085.042m0 .001h-.17m0 0-.084-.043m.804.043v-.89m0 .339.085-.042m0 0h.17m-.001 0 .085.042m.001 0 .041.042m0 0 .043.085m0 0v.254m0 0-.043.085m0 0-.042.042m.001 0-.086.042m0 .001h-.169m0 0-.085-.043m1.186.043v-.466m0 0-.043-.085m0 0-.084-.042m0 0h-.17m.001 0-.085.042m.381.508-.085.042m0 .001h-.212m.001 0-.085-.043m0 0-.043-.085m0 0v-.084m0 0 .043-.085m0 0 .084-.042m.001-.001h.211m0 0 .085-.042m.804.339-.085.042m0 .001h-.169m0 0-.085-.043m0 0-.042-.042m0 0-.042-.085m0 0v-.254m0 0 .042-.085m0 0 .042-.042m0 0 .085-.042m0 0h.17m-.001 0 .085.042m.381.551v-.89m.085.55.254.34m0-.593-.339.338"/></g><g style="fill:none;stroke:#0000c2;stroke-width:.1524;stroke-opacity:1;stroke-linecap:round;stroke-linejoin:round"><rect width="8.89" height="7.62" x="1.651" y="3.556" rx="0"/><rect width="8.89" height="7.62" x="1.651" y="28.956" rx="0"/><rect width="63.5" height="33.02" x="10.541" y="3.556" rx="0"/><path d="M74.041 1.651v1.905"/><rect width="8.89" height="33.02" x="74.041" y="3.556" rx="0"/><rect width="8.89" height="33.02" x="74.041" y="3.556" rx="0"/></g><circle cx="36.576" cy="25.146" r=".457" style="fill:#009600;fill-opacity:1;stroke:#009600;stroke-width:.1524;stroke-opacity:1;stroke-linecap:round;stroke-linejoin:round"/></svg>