<?xml version="1.0" standalone="no"?>
 <!DOCTYPE svg PUBLIC "-//W3C//DTD SVG 1.1//EN" 
 "http://www.w3.org/Graphics/SVG/1.1/DTD/svg11.dtd"> 
<svg
  xmlns:svg="http://www.w3.org/2000/svg"
  xmlns="http://www.w3.org/2000/svg"
  xmlns:xlink="http://www.w3.org/1999/xlink"
  version="1.1"
  width="84.4550mm" height="38.1000mm" viewBox="0.0000 0.0000 84.4550 38.1000">
<title>SVG Image created as expansion.svg date 2025/05/08 15:42:41 </title>
  <desc>Image generated by Eeschema-SVG </desc>
<g style="fill:#000000; fill-opacity:1.0000;stroke:#000000; stroke-opacity:1.0000;
stroke-linecap:round; stroke-linejoin:round;"
 transform="translate(0 0) scale(1 1)">
</g>
<g style="fill:#FFFFC2; fill-opacity:1.0000; stroke:none;">
<rect x="33.401000" y="27.051000" width="6.350000" height="6.350000" rx="0.000000" />
</g>
<g style="fill:#0000C2; fill-opacity:1.0000; stroke:none;">
<rect x="1.651000" y="1.651000" width="8.890000" height="1.905000" rx="0.000000" />
</g>
<g style="fill:#FFFFC2; fill-opacity:1.0000; stroke:none;">
<rect x="1.651000" y="11.176000" width="8.890000" height="2.540000" rx="0.000000" />
</g>
<g style="fill:#FFFFC2; fill-opacity:1.0000; stroke:none;">
<rect x="1.651000" y="13.716000" width="8.890000" height="2.540000" rx="0.000000" />
</g>
<g style="fill:#FFFFC2; fill-opacity:1.0000; stroke:none;">
<rect x="43.561000" y="6.096000" width="28.194000" height="27.940000" rx="0.000000" />
</g>
<g style="fill:#0000C2; fill-opacity:1.0000; stroke:none;">
<rect x="10.541000" y="1.651000" width="63.500000" height="1.905000" rx="0.000000" />
</g>
<g style="fill:#FFFFC2; fill-opacity:1.0000; stroke:none;">
<rect x="1.651000" y="18.796000" width="8.890000" height="2.540000" rx="0.000000" />
</g>
<g style="fill:#FFFFC2; fill-opacity:1.0000; stroke:none;">
<rect x="1.651000" y="16.256000" width="8.890000" height="2.540000" rx="0.000000" />
</g>
<g style="fill:#FFFFC2; fill-opacity:1.0000; stroke:none;">
<rect x="1.651000" y="26.416000" width="8.890000" height="2.540000" rx="0.000000" />
</g>
<g style="fill:#FFFFC2; fill-opacity:1.0000; stroke:none;">
<rect x="1.651000" y="21.336000" width="8.890000" height="2.540000" rx="0.000000" />
</g>
<g style="fill:#FFFFC2; fill-opacity:1.0000; stroke:none;">
<rect x="1.651000" y="23.876000" width="8.890000" height="2.540000" rx="0.000000" />
</g>
<g style="fill:#0000C2; fill-opacity:1.0000; stroke:none;">
<rect x="74.041000" y="1.651000" width="8.890000" height="1.905000" rx="0.000000" />
</g>
<g style="fill:#FFE5BF; fill-opacity:1.0000; stroke:none;">
<rect x="1.651000" y="3.556000" width="8.890000" height="7.620000" rx="0.000000" />
</g>
<g style="fill:#FFE5BF; fill-opacity:1.0000; stroke:none;">
<rect x="1.651000" y="28.956000" width="8.890000" height="7.620000" rx="0.000000" />
</g>
<g style="fill:#FFE5BF; fill-opacity:1.0000; stroke:none;">
<rect x="74.041000" y="3.556000" width="8.890000" height="33.020000" rx="0.000000" />
</g>
<g style="fill:none; 
stroke:#725600; stroke-width:0.1524; stroke-opacity:1; 
stroke-linecap:round; stroke-linejoin:round;">
<text x="9.0805" y="13.0810"
textLength="5.2832" font-size="1.6933" lengthAdjust="spacingAndGlyphs"
text-anchor="end" opacity="0" stroke-opacity="0">Video</text>
<g class="stroked-text"><desc>Video</desc>
<path d="M4.0212 11.7555
L4.4445 13.0255
" />
<path d="M4.4445 13.0255
L4.8679 11.7555
" />
<path d="M5.2912 13.0255
L5.2912 12.1789
" />
<path d="M5.2912 11.7555
L5.2308 11.8160
" />
<path d="M5.2308 11.8160
L5.2912 11.8765
" />
<path d="M5.2912 11.8765
L5.3517 11.8160
" />
<path d="M5.3517 11.8160
L5.2912 11.7555
" />
<path d="M5.2912 11.7555
L5.2912 11.8765
" />
<path d="M6.4403 13.0255
L6.4403 11.7555
" />
<path d="M6.4403 12.9651
L6.3194 13.0255
" />
<path d="M6.3194 13.0255
L6.0775 13.0255
" />
<path d="M6.0775 13.0255
L5.9565 12.9651
" />
<path d="M5.9565 12.9651
L5.8960 12.9046
" />
<path d="M5.8960 12.9046
L5.8356 12.7836
" />
<path d="M5.8356 12.7836
L5.8356 12.4208
" />
<path d="M5.8356 12.4208
L5.8960 12.2998
" />
<path d="M5.8960 12.2998
L5.9565 12.2393
" />
<path d="M5.9565 12.2393
L6.0775 12.1789
" />
<path d="M6.0775 12.1789
L6.3194 12.1789
" />
<path d="M6.3194 12.1789
L6.4403 12.2393
" />
<path d="M7.5288 12.9651
L7.4079 13.0255
" />
<path d="M7.4079 13.0255
L7.1660 13.0255
" />
<path d="M7.1660 13.0255
L7.0450 12.9651
" />
<path d="M7.0450 12.9651
L6.9846 12.8441
" />
<path d="M6.9846 12.8441
L6.9846 12.3603
" />
<path d="M6.9846 12.3603
L7.0450 12.2393
" />
<path d="M7.0450 12.2393
L7.1660 12.1789
" />
<path d="M7.1660 12.1789
L7.4079 12.1789
" />
<path d="M7.4079 12.1789
L7.5288 12.2393
" />
<path d="M7.5288 12.2393
L7.5893 12.3603
" />
<path d="M7.5893 12.3603
L7.5893 12.4812
" />
<path d="M7.5893 12.4812
L6.9846 12.6022
" />
<path d="M8.3151 13.0255
L8.1941 12.9651
" />
<path d="M8.1941 12.9651
L8.1336 12.9046
" />
<path d="M8.1336 12.9046
L8.0732 12.7836
" />
<path d="M8.0732 12.7836
L8.0732 12.4208
" />
<path d="M8.0732 12.4208
L8.1336 12.2998
" />
<path d="M8.1336 12.2998
L8.1941 12.2393
" />
<path d="M8.1941 12.2393
L8.3151 12.1789
" />
<path d="M8.3151 12.1789
L8.4965 12.1789
" />
<path d="M8.4965 12.1789
L8.6174 12.2393
" />
<path d="M8.6174 12.2393
L8.6779 12.2998
" />
<path d="M8.6779 12.2998
L8.7384 12.4208
" />
<path d="M8.7384 12.4208
L8.7384 12.7836
" />
<path d="M8.7384 12.7836
L8.6779 12.9046
" />
<path d="M8.6779 12.9046
L8.6174 12.9651
" />
<path d="M8.6174 12.9651
L8.4965 13.0255
" />
<path d="M8.4965 13.0255
L8.3151 13.0255
" />
</g><path style="fill:none; 
stroke:#725600; stroke-width:0.1524; stroke-opacity:1; 
stroke-linecap:round; stroke-linejoin:round;fill:none"
d="M 9.2710,12.4460
9.9060,13.0810
10.5410,13.0810
10.5410,11.8110
9.9060,11.8110
Z" /> 
</g>
<g style="fill:none; 
stroke:#725600; stroke-width:0.1524; stroke-opacity:1; 
stroke-linecap:round; stroke-linejoin:round;">
<text x="9.0805" y="25.7810"
textLength="3.0456" font-size="1.6933" lengthAdjust="spacingAndGlyphs"
text-anchor="end" opacity="0" stroke-opacity="0">I²C</text>
<g class="stroked-text"><desc>I²C</desc>
<path d="M6.4402 25.7255
L6.4402 24.4555
" />
<path d="M6.9846 24.1531
L7.1055 24.0927
" />
<path d="M7.1055 24.0927
L7.2869 24.0927
" />
<path d="M7.2869 24.0927
L7.4079 24.1531
" />
<path d="M7.4079 24.1531
L7.4684 24.2741
" />
<path d="M7.4684 24.2741
L7.4684 24.3951
" />
<path d="M7.4684 24.3951
L7.4079 24.5160
" />
<path d="M7.4079 24.5160
L6.9846 24.9393
" />
<path d="M6.9846 24.9393
L7.4684 24.9393
" />
<path d="M8.7383 25.6046
L8.6779 25.6651
" />
<path d="M8.6779 25.6651
L8.4964 25.7255
" />
<path d="M8.4964 25.7255
L8.3755 25.7255
" />
<path d="M8.3755 25.7255
L8.1941 25.6651
" />
<path d="M8.1941 25.6651
L8.0731 25.5441
" />
<path d="M8.0731 25.5441
L8.0126 25.4231
" />
<path d="M8.0126 25.4231
L7.9522 25.1812
" />
<path d="M7.9522 25.1812
L7.9522 24.9998
" />
<path d="M7.9522 24.9998
L8.0126 24.7579
" />
<path d="M8.0126 24.7579
L8.0731 24.6370
" />
<path d="M8.0731 24.6370
L8.1941 24.5160
" />
<path d="M8.1941 24.5160
L8.3755 24.4555
" />
<path d="M8.3755 24.4555
L8.4964 24.4555
" />
<path d="M8.4964 24.4555
L8.6779 24.5160
" />
<path d="M8.6779 24.5160
L8.7383 24.5765
" />
</g><path style="fill:none; 
stroke:#725600; stroke-width:0.1524; stroke-opacity:1; 
stroke-linecap:round; stroke-linejoin:round;fill:none"
d="M 10.5410,25.1460
9.9060,24.5110
9.2710,25.1460
9.9060,25.7810
Z" /> 
</g>
<g style="fill:none; 
stroke:#725600; stroke-width:0.1524; stroke-opacity:1; 
stroke-linecap:round; stroke-linejoin:round;">
<text x="9.0805" y="15.6210"
textLength="5.3436" font-size="1.6933" lengthAdjust="spacingAndGlyphs"
text-anchor="end" opacity="0" stroke-opacity="0">Audio</text>
<g class="stroked-text"><desc>Audio</desc>
<path d="M4.0818 15.2027
L4.6865 15.2027
" />
<path d="M3.9608 15.5655
L4.3841 14.2955
" />
<path d="M4.3841 14.2955
L4.8075 15.5655
" />
<path d="M5.7751 14.7189
L5.7751 15.5655
" />
<path d="M5.2308 14.7189
L5.2308 15.3841
" />
<path d="M5.2308 15.3841
L5.2913 15.5051
" />
<path d="M5.2913 15.5051
L5.4123 15.5655
" />
<path d="M5.4123 15.5655
L5.5937 15.5655
" />
<path d="M5.5937 15.5655
L5.7146 15.5051
" />
<path d="M5.7146 15.5051
L5.7751 15.4446
" />
<path d="M6.9241 15.5655
L6.9241 14.2955
" />
<path d="M6.9241 15.5051
L6.8032 15.5655
" />
<path d="M6.8032 15.5655
L6.5613 15.5655
" />
<path d="M6.5613 15.5655
L6.4403 15.5051
" />
<path d="M6.4403 15.5051
L6.3798 15.4446
" />
<path d="M6.3798 15.4446
L6.3194 15.3236
" />
<path d="M6.3194 15.3236
L6.3194 14.9608
" />
<path d="M6.3194 14.9608
L6.3798 14.8398
" />
<path d="M6.3798 14.8398
L6.4403 14.7793
" />
<path d="M6.4403 14.7793
L6.5613 14.7189
" />
<path d="M6.5613 14.7189
L6.8032 14.7189
" />
<path d="M6.8032 14.7189
L6.9241 14.7793
" />
<path d="M7.5288 15.5655
L7.5288 14.7189
" />
<path d="M7.5288 14.2955
L7.4684 14.3560
" />
<path d="M7.4684 14.3560
L7.5288 14.4165
" />
<path d="M7.5288 14.4165
L7.5893 14.3560
" />
<path d="M7.5893 14.3560
L7.5288 14.2955
" />
<path d="M7.5288 14.2955
L7.5288 14.4165
" />
<path d="M8.3151 15.5655
L8.1941 15.5051
" />
<path d="M8.1941 15.5051
L8.1336 15.4446
" />
<path d="M8.1336 15.4446
L8.0732 15.3236
" />
<path d="M8.0732 15.3236
L8.0732 14.9608
" />
<path d="M8.0732 14.9608
L8.1336 14.8398
" />
<path d="M8.1336 14.8398
L8.1941 14.7793
" />
<path d="M8.1941 14.7793
L8.3151 14.7189
" />
<path d="M8.3151 14.7189
L8.4965 14.7189
" />
<path d="M8.4965 14.7189
L8.6174 14.7793
" />
<path d="M8.6174 14.7793
L8.6779 14.8398
" />
<path d="M8.6779 14.8398
L8.7384 14.9608
" />
<path d="M8.7384 14.9608
L8.7384 15.3236
" />
<path d="M8.7384 15.3236
L8.6779 15.4446
" />
<path d="M8.6779 15.4446
L8.6174 15.5051
" />
<path d="M8.6174 15.5051
L8.4965 15.5655
" />
<path d="M8.4965 15.5655
L8.3151 15.5655
" />
</g><path style="fill:none; 
stroke:#725600; stroke-width:0.1524; stroke-opacity:1; 
stroke-linecap:round; stroke-linejoin:round;fill:none"
d="M 9.2710,14.9860
9.9060,15.6210
10.5410,15.6210
10.5410,14.3510
9.9060,14.3510
Z" /> 
</g>
<g style="fill:none; 
stroke:#725600; stroke-width:0.1524; stroke-opacity:1; 
stroke-linecap:round; stroke-linejoin:round;">
<text x="9.0805" y="23.2410"
textLength="3.4085" font-size="1.6933" lengthAdjust="spacingAndGlyphs"
text-anchor="end" opacity="0" stroke-opacity="0">IRQ</text>
<g class="stroked-text"><desc>IRQ</desc>
<path d="M6.0773 23.1855
L6.0773 21.9155
" />
<path d="M7.4078 23.1855
L6.9845 22.5808
" />
<path d="M6.6821 23.1855
L6.6821 21.9155
" />
<path d="M6.6821 21.9155
L7.1659 21.9155
" />
<path d="M7.1659 21.9155
L7.2869 21.9760
" />
<path d="M7.2869 21.9760
L7.3474 22.0365
" />
<path d="M7.3474 22.0365
L7.4078 22.1574
" />
<path d="M7.4078 22.1574
L7.4078 22.3389
" />
<path d="M7.4078 22.3389
L7.3474 22.4598
" />
<path d="M7.3474 22.4598
L7.2869 22.5203
" />
<path d="M7.2869 22.5203
L7.1659 22.5808
" />
<path d="M7.1659 22.5808
L6.6821 22.5808
" />
<path d="M8.7988 23.3065
L8.6778 23.2460
" />
<path d="M8.6778 23.2460
L8.5569 23.1251
" />
<path d="M8.5569 23.1251
L8.3755 22.9436
" />
<path d="M8.3755 22.9436
L8.2545 22.8831
" />
<path d="M8.2545 22.8831
L8.1336 22.8831
" />
<path d="M8.1940 23.1855
L8.0731 23.1251
" />
<path d="M8.0731 23.1251
L7.9521 23.0041
" />
<path d="M7.9521 23.0041
L7.8917 22.7622
" />
<path d="M7.8917 22.7622
L7.8917 22.3389
" />
<path d="M7.8917 22.3389
L7.9521 22.0970
" />
<path d="M7.9521 22.0970
L8.0731 21.9760
" />
<path d="M8.0731 21.9760
L8.1940 21.9155
" />
<path d="M8.1940 21.9155
L8.4359 21.9155
" />
<path d="M8.4359 21.9155
L8.5569 21.9760
" />
<path d="M8.5569 21.9760
L8.6778 22.0970
" />
<path d="M8.6778 22.0970
L8.7383 22.3389
" />
<path d="M8.7383 22.3389
L8.7383 22.7622
" />
<path d="M8.7383 22.7622
L8.6778 23.0041
" />
<path d="M8.6778 23.0041
L8.5569 23.1251
" />
<path d="M8.5569 23.1251
L8.4359 23.1855
" />
<path d="M8.4359 23.1855
L8.1940 23.1855
" />
</g><path style="fill:none; 
stroke:#725600; stroke-width:0.1524; stroke-opacity:1; 
stroke-linecap:round; stroke-linejoin:round;fill:none"
d="M 10.5410,22.6060
9.9060,21.9710
9.2710,21.9710
9.2710,23.2410
9.9060,23.2410
Z" /> 
</g>
<g style="fill:none; 
stroke:#725600; stroke-width:0.1524; stroke-opacity:1; 
stroke-linecap:round; stroke-linejoin:round;">
<text x="9.0805" y="28.3210"
textLength="6.1904" font-size="1.6933" lengthAdjust="spacingAndGlyphs"
text-anchor="end" opacity="0" stroke-opacity="0">Detect</text>
<g class="stroked-text"><desc>Detect</desc>
<path d="M3.2954 28.2655
L3.2954 26.9955
" />
<path d="M3.2954 26.9955
L3.5978 26.9955
" />
<path d="M3.5978 26.9955
L3.7792 27.0560
" />
<path d="M3.7792 27.0560
L3.9002 27.1770
" />
<path d="M3.9002 27.1770
L3.9607 27.2979
" />
<path d="M3.9607 27.2979
L4.0211 27.5398
" />
<path d="M4.0211 27.5398
L4.0211 27.7212
" />
<path d="M4.0211 27.7212
L3.9607 27.9631
" />
<path d="M3.9607 27.9631
L3.9002 28.0841
" />
<path d="M3.9002 28.0841
L3.7792 28.2051
" />
<path d="M3.7792 28.2051
L3.5978 28.2655
" />
<path d="M3.5978 28.2655
L3.2954 28.2655
" />
<path d="M5.0492 28.2051
L4.9283 28.2655
" />
<path d="M4.9283 28.2655
L4.6864 28.2655
" />
<path d="M4.6864 28.2655
L4.5654 28.2051
" />
<path d="M4.5654 28.2051
L4.5050 28.0841
" />
<path d="M4.5050 28.0841
L4.5050 27.6003
" />
<path d="M4.5050 27.6003
L4.5654 27.4793
" />
<path d="M4.5654 27.4793
L4.6864 27.4189
" />
<path d="M4.6864 27.4189
L4.9283 27.4189
" />
<path d="M4.9283 27.4189
L5.0492 27.4793
" />
<path d="M5.0492 27.4793
L5.1097 27.6003
" />
<path d="M5.1097 27.6003
L5.1097 27.7212
" />
<path d="M5.1097 27.7212
L4.5050 27.8422
" />
<path d="M5.4726 27.4189
L5.9564 27.4189
" />
<path d="M5.6540 26.9955
L5.6540 28.0841
" />
<path d="M5.6540 28.0841
L5.7145 28.2051
" />
<path d="M5.7145 28.2051
L5.8355 28.2655
" />
<path d="M5.8355 28.2655
L5.9564 28.2655
" />
<path d="M6.8635 28.2051
L6.7426 28.2655
" />
<path d="M6.7426 28.2655
L6.5007 28.2655
" />
<path d="M6.5007 28.2655
L6.3797 28.2051
" />
<path d="M6.3797 28.2051
L6.3193 28.0841
" />
<path d="M6.3193 28.0841
L6.3193 27.6003
" />
<path d="M6.3193 27.6003
L6.3797 27.4793
" />
<path d="M6.3797 27.4793
L6.5007 27.4189
" />
<path d="M6.5007 27.4189
L6.7426 27.4189
" />
<path d="M6.7426 27.4189
L6.8635 27.4793
" />
<path d="M6.8635 27.4793
L6.9240 27.6003
" />
<path d="M6.9240 27.6003
L6.9240 27.7212
" />
<path d="M6.9240 27.7212
L6.3193 27.8422
" />
<path d="M8.0126 28.2051
L7.8917 28.2655
" />
<path d="M7.8917 28.2655
L7.6498 28.2655
" />
<path d="M7.6498 28.2655
L7.5288 28.2051
" />
<path d="M7.5288 28.2051
L7.4683 28.1446
" />
<path d="M7.4683 28.1446
L7.4079 28.0236
" />
<path d="M7.4079 28.0236
L7.4079 27.6608
" />
<path d="M7.4079 27.6608
L7.4683 27.5398
" />
<path d="M7.4683 27.5398
L7.5288 27.4793
" />
<path d="M7.5288 27.4793
L7.6498 27.4189
" />
<path d="M7.6498 27.4189
L7.8917 27.4189
" />
<path d="M7.8917 27.4189
L8.0126 27.4793
" />
<path d="M8.3755 27.4189
L8.8593 27.4189
" />
<path d="M8.5569 26.9955
L8.5569 28.0841
" />
<path d="M8.5569 28.0841
L8.6174 28.2051
" />
<path d="M8.6174 28.2051
L8.7384 28.2655
" />
<path d="M8.7384 28.2655
L8.8593 28.2655
" />
</g><path style="fill:none; 
stroke:#725600; stroke-width:0.1524; stroke-opacity:1; 
stroke-linecap:round; stroke-linejoin:round;fill:none"
d="M 10.5410,27.6860
9.9060,27.0510
9.2710,27.0510
9.2710,28.3210
9.9060,28.3210
Z" /> 
</g>
<g style="fill:none; 
stroke:#725600; stroke-width:0.1524; stroke-opacity:1; 
stroke-linecap:round; stroke-linejoin:round;">
<text x="9.0805" y="20.7010"
textLength="6.3717" font-size="1.6933" lengthAdjust="spacingAndGlyphs"
text-anchor="end" opacity="0" stroke-opacity="0">E-Bus</text>
<g class="stroked-text"><desc>E-Bus</desc>
<path d="M3.1141 19.9803
L3.5375 19.9803
" />
<path d="M3.7189 20.6455
L3.1141 20.6455
" />
<path d="M3.1141 20.6455
L3.1141 19.3755
" />
<path d="M3.1141 19.3755
L3.7189 19.3755
" />
<path d="M4.2631 20.1617
L5.2308 20.1617
" />
<path d="M6.2589 19.9803
L6.4403 20.0408
" />
<path d="M6.4403 20.0408
L6.5008 20.1012
" />
<path d="M6.5008 20.1012
L6.5612 20.2222
" />
<path d="M6.5612 20.2222
L6.5612 20.4036
" />
<path d="M6.5612 20.4036
L6.5008 20.5246
" />
<path d="M6.5008 20.5246
L6.4403 20.5851
" />
<path d="M6.4403 20.5851
L6.3193 20.6455
" />
<path d="M6.3193 20.6455
L5.8355 20.6455
" />
<path d="M5.8355 20.6455
L5.8355 19.3755
" />
<path d="M5.8355 19.3755
L6.2589 19.3755
" />
<path d="M6.2589 19.3755
L6.3798 19.4360
" />
<path d="M6.3798 19.4360
L6.4403 19.4965
" />
<path d="M6.4403 19.4965
L6.5008 19.6174
" />
<path d="M6.5008 19.6174
L6.5008 19.7384
" />
<path d="M6.5008 19.7384
L6.4403 19.8593
" />
<path d="M6.4403 19.8593
L6.3798 19.9198
" />
<path d="M6.3798 19.9198
L6.2589 19.9803
" />
<path d="M6.2589 19.9803
L5.8355 19.9803
" />
<path d="M7.6498 19.7989
L7.6498 20.6455
" />
<path d="M7.1055 19.7989
L7.1055 20.4641
" />
<path d="M7.1055 20.4641
L7.1660 20.5851
" />
<path d="M7.1660 20.5851
L7.2870 20.6455
" />
<path d="M7.2870 20.6455
L7.4684 20.6455
" />
<path d="M7.4684 20.6455
L7.5893 20.5851
" />
<path d="M7.5893 20.5851
L7.6498 20.5246
" />
<path d="M8.1941 20.5851
L8.3150 20.6455
" />
<path d="M8.3150 20.6455
L8.5569 20.6455
" />
<path d="M8.5569 20.6455
L8.6779 20.5851
" />
<path d="M8.6779 20.5851
L8.7383 20.4641
" />
<path d="M8.7383 20.4641
L8.7383 20.4036
" />
<path d="M8.7383 20.4036
L8.6779 20.2827
" />
<path d="M8.6779 20.2827
L8.5569 20.2222
" />
<path d="M8.5569 20.2222
L8.3755 20.2222
" />
<path d="M8.3755 20.2222
L8.2545 20.1617
" />
<path d="M8.2545 20.1617
L8.1941 20.0408
" />
<path d="M8.1941 20.0408
L8.1941 19.9803
" />
<path d="M8.1941 19.9803
L8.2545 19.8593
" />
<path d="M8.2545 19.8593
L8.3755 19.7989
" />
<path d="M8.3755 19.7989
L8.5569 19.7989
" />
<path d="M8.5569 19.7989
L8.6779 19.8593
" />
</g><path style="fill:none; 
stroke:#725600; stroke-width:0.1524; stroke-opacity:1; 
stroke-linecap:round; stroke-linejoin:round;fill:none"
d="M 10.5410,20.0660
9.9060,19.4310
9.2710,20.0660
9.9060,20.7010
Z" /> 
</g>
<g style="fill:none; 
stroke:#725600; stroke-width:0.1524; stroke-opacity:1; 
stroke-linecap:round; stroke-linejoin:round;">
<text x="9.0805" y="18.1610"
textLength="5.8275" font-size="1.6933" lengthAdjust="spacingAndGlyphs"
text-anchor="end" opacity="0" stroke-opacity="0">Power</text>
<g class="stroked-text"><desc>Power</desc>
<path d="M3.6583 18.1055
L3.6583 16.8355
" />
<path d="M3.6583 16.8355
L4.1421 16.8355
" />
<path d="M4.1421 16.8355
L4.2631 16.8960
" />
<path d="M4.2631 16.8960
L4.3236 16.9565
" />
<path d="M4.3236 16.9565
L4.3840 17.0774
" />
<path d="M4.3840 17.0774
L4.3840 17.2589
" />
<path d="M4.3840 17.2589
L4.3236 17.3798
" />
<path d="M4.3236 17.3798
L4.2631 17.4403
" />
<path d="M4.2631 17.4403
L4.1421 17.5008
" />
<path d="M4.1421 17.5008
L3.6583 17.5008
" />
<path d="M5.1098 18.1055
L4.9888 18.0451
" />
<path d="M4.9888 18.0451
L4.9283 17.9846
" />
<path d="M4.9283 17.9846
L4.8679 17.8636
" />
<path d="M4.8679 17.8636
L4.8679 17.5008
" />
<path d="M4.8679 17.5008
L4.9283 17.3798
" />
<path d="M4.9283 17.3798
L4.9888 17.3193
" />
<path d="M4.9888 17.3193
L5.1098 17.2589
" />
<path d="M5.1098 17.2589
L5.2912 17.2589
" />
<path d="M5.2912 17.2589
L5.4121 17.3193
" />
<path d="M5.4121 17.3193
L5.4726 17.3798
" />
<path d="M5.4726 17.3798
L5.5331 17.5008
" />
<path d="M5.5331 17.5008
L5.5331 17.8636
" />
<path d="M5.5331 17.8636
L5.4726 17.9846
" />
<path d="M5.4726 17.9846
L5.4121 18.0451
" />
<path d="M5.4121 18.0451
L5.2912 18.1055
" />
<path d="M5.2912 18.1055
L5.1098 18.1055
" />
<path d="M5.9564 17.2589
L6.1983 18.1055
" />
<path d="M6.1983 18.1055
L6.4402 17.5008
" />
<path d="M6.4402 17.5008
L6.6821 18.1055
" />
<path d="M6.6821 18.1055
L6.9240 17.2589
" />
<path d="M7.8916 18.0451
L7.7707 18.1055
" />
<path d="M7.7707 18.1055
L7.5288 18.1055
" />
<path d="M7.5288 18.1055
L7.4078 18.0451
" />
<path d="M7.4078 18.0451
L7.3474 17.9241
" />
<path d="M7.3474 17.9241
L7.3474 17.4403
" />
<path d="M7.3474 17.4403
L7.4078 17.3193
" />
<path d="M7.4078 17.3193
L7.5288 17.2589
" />
<path d="M7.5288 17.2589
L7.7707 17.2589
" />
<path d="M7.7707 17.2589
L7.8916 17.3193
" />
<path d="M7.8916 17.3193
L7.9521 17.4403
" />
<path d="M7.9521 17.4403
L7.9521 17.5612
" />
<path d="M7.9521 17.5612
L7.3474 17.6822
" />
<path d="M8.4964 18.1055
L8.4964 17.2589
" />
<path d="M8.4964 17.5008
L8.5569 17.3798
" />
<path d="M8.5569 17.3798
L8.6174 17.3193
" />
<path d="M8.6174 17.3193
L8.7383 17.2589
" />
<path d="M8.7383 17.2589
L8.8593 17.2589
" />
</g><path style="fill:none; 
stroke:#725600; stroke-width:0.1524; stroke-opacity:1; 
stroke-linecap:round; stroke-linejoin:round;fill:none"
d="M 9.2710,17.5260
9.9060,18.1610
10.5410,18.1610
10.5410,16.8910
9.9060,16.8910
Z" /> 
</g>
<g style="fill:none; 
stroke:#009600; stroke-width:0.1524; stroke-opacity:1; 
stroke-linecap:round; stroke-linejoin:round;">
<path d="M10.5410 25.1460
L36.5760 25.1460
" />
<path d="M10.5410 22.6060
L43.5610 22.6060
" />
<path d="M36.5760 25.1460
L36.5760 27.0510
" />
<path d="M10.5410 17.5260
L43.5610 17.5260
" />
<path d="M10.5410 14.9860
L43.5610 14.9860
" />
<path d="M10.5410 12.4460
L43.5610 12.4460
" />
<path d="M12.4460 28.3210
L10.5410 28.3210
" />
<path d="M10.5410 20.0660
L43.5610 20.0660
" />
<path d="M10.5410 27.0510
L12.4460 27.0510
" />
<path d="M12.4460 27.0510
L12.4460 28.3210
" />
<path d="M36.5760 25.1460
L43.5610 25.1460
" />
</g>
<g style="fill:none; 
stroke:#C20000; stroke-width:0.1270; stroke-opacity:1; 
stroke-linecap:round; stroke-linejoin:round;">
<rect x="33.401000" y="27.051000" width="6.350000" height="6.350000" rx="0.000000" />
<rect x="33.401000" y="27.051000" width="6.350000" height="6.350000" rx="0.000000" />
</g>
<g style="fill:none; 
stroke:#000084; stroke-width:0.1524; stroke-opacity:1; 
stroke-linecap:round; stroke-linejoin:round;">
<text x="36.5760" y="30.7340"
textLength="6.3499" font-size="1.3546" lengthAdjust="spacingAndGlyphs"
text-anchor="middle" opacity="0" stroke-opacity="0">EEPROM</text>
<g class="stroked-text"><desc>EEPROM</desc>
<path d="M33.7700 30.1558
L34.1086 30.1558
" />
<path d="M34.2538 30.6880
L33.7700 30.6880
" />
<path d="M33.7700 30.6880
L33.7700 29.6720
" />
<path d="M33.7700 29.6720
L34.2538 29.6720
" />
<path d="M34.6892 30.1558
L35.0278 30.1558
" />
<path d="M35.1730 30.6880
L34.6892 30.6880
" />
<path d="M34.6892 30.6880
L34.6892 29.6720
" />
<path d="M34.6892 29.6720
L35.1730 29.6720
" />
<path d="M35.6084 30.6880
L35.6084 29.6720
" />
<path d="M35.6084 29.6720
L35.9954 29.6720
" />
<path d="M35.9954 29.6720
L36.0922 29.7204
" />
<path d="M36.0922 29.7204
L36.1405 29.7688
" />
<path d="M36.1405 29.7688
L36.1889 29.8656
" />
<path d="M36.1889 29.8656
L36.1889 30.0107
" />
<path d="M36.1889 30.0107
L36.1405 30.1075
" />
<path d="M36.1405 30.1075
L36.0922 30.1558
" />
<path d="M36.0922 30.1558
L35.9954 30.2042
" />
<path d="M35.9954 30.2042
L35.6084 30.2042
" />
<path d="M37.2049 30.6880
L36.8663 30.2042
" />
<path d="M36.6244 30.6880
L36.6244 29.6720
" />
<path d="M36.6244 29.6720
L37.0114 29.6720
" />
<path d="M37.0114 29.6720
L37.1082 29.7204
" />
<path d="M37.1082 29.7204
L37.1565 29.7688
" />
<path d="M37.1565 29.7688
L37.2049 29.8656
" />
<path d="M37.2049 29.8656
L37.2049 30.0107
" />
<path d="M37.2049 30.0107
L37.1565 30.1075
" />
<path d="M37.1565 30.1075
L37.1082 30.1558
" />
<path d="M37.1082 30.1558
L37.0114 30.2042
" />
<path d="M37.0114 30.2042
L36.6244 30.2042
" />
<path d="M37.8339 29.6720
L38.0274 29.6720
" />
<path d="M38.0274 29.6720
L38.1242 29.7204
" />
<path d="M38.1242 29.7204
L38.2209 29.8172
" />
<path d="M38.2209 29.8172
L38.2693 30.0107
" />
<path d="M38.2693 30.0107
L38.2693 30.3494
" />
<path d="M38.2693 30.3494
L38.2209 30.5429
" />
<path d="M38.2209 30.5429
L38.1242 30.6397
" />
<path d="M38.1242 30.6397
L38.0274 30.6880
" />
<path d="M38.0274 30.6880
L37.8339 30.6880
" />
<path d="M37.8339 30.6880
L37.7371 30.6397
" />
<path d="M37.7371 30.6397
L37.6404 30.5429
" />
<path d="M37.6404 30.5429
L37.5920 30.3494
" />
<path d="M37.5920 30.3494
L37.5920 30.0107
" />
<path d="M37.5920 30.0107
L37.6404 29.8172
" />
<path d="M37.6404 29.8172
L37.7371 29.7204
" />
<path d="M37.7371 29.7204
L37.8339 29.6720
" />
<path d="M38.7048 30.6880
L38.7048 29.6720
" />
<path d="M38.7048 29.6720
L39.0434 30.3977
" />
<path d="M39.0434 30.3977
L39.3821 29.6720
" />
<path d="M39.3821 29.6720
L39.3821 30.6880
" />
</g></g>
<g style="fill:none; 
stroke:#0000C2; stroke-width:0.1524; stroke-opacity:1; 
stroke-linecap:round; stroke-linejoin:round;">
<rect x="1.651000" y="1.651000" width="8.890000" height="1.905000" rx="0.000000" />
<rect x="1.651000" y="1.651000" width="8.890000" height="1.905000" rx="0.000000" />
</g>
<g style="fill:none; 
stroke:#FFFFFF; stroke-width:0.1524; stroke-opacity:1; 
stroke-linecap:round; stroke-linejoin:round;">
<text x="6.0960" y="3.0480"
textLength="6.9679" font-size="1.1853" lengthAdjust="spacingAndGlyphs"
text-anchor="middle" opacity="0" stroke-opacity="0">Expansion</text>
<g class="stroked-text"><desc>Expansion</desc>
<path d="M2.9634 2.5411
L3.2598 2.5411
" />
<path d="M3.3868 3.0068
L2.9634 3.0068
" />
<path d="M2.9634 3.0068
L2.9634 2.1178
" />
<path d="M2.9634 2.1178
L3.3868 2.1178
" />
<path d="M3.6831 3.0068
L4.1487 2.4141
" />
<path d="M3.6831 2.4141
L4.1487 3.0068
" />
<path d="M4.4874 2.4141
L4.4874 3.3031
" />
<path d="M4.4874 2.4565
L4.5721 2.4141
" />
<path d="M4.5721 2.4141
L4.7414 2.4141
" />
<path d="M4.7414 2.4141
L4.8261 2.4565
" />
<path d="M4.8261 2.4565
L4.8684 2.4988
" />
<path d="M4.8684 2.4988
L4.9108 2.5835
" />
<path d="M4.9108 2.5835
L4.9108 2.8375
" />
<path d="M4.9108 2.8375
L4.8684 2.9221
" />
<path d="M4.8684 2.9221
L4.8261 2.9645
" />
<path d="M4.8261 2.9645
L4.7414 3.0068
" />
<path d="M4.7414 3.0068
L4.5721 3.0068
" />
<path d="M4.5721 3.0068
L4.4874 2.9645
" />
<path d="M5.6727 3.0068
L5.6727 2.5411
" />
<path d="M5.6727 2.5411
L5.6304 2.4565
" />
<path d="M5.6304 2.4565
L5.5457 2.4141
" />
<path d="M5.5457 2.4141
L5.3764 2.4141
" />
<path d="M5.3764 2.4141
L5.2917 2.4565
" />
<path d="M5.6727 2.9645
L5.5881 3.0068
" />
<path d="M5.5881 3.0068
L5.3764 3.0068
" />
<path d="M5.3764 3.0068
L5.2917 2.9645
" />
<path d="M5.2917 2.9645
L5.2494 2.8798
" />
<path d="M5.2494 2.8798
L5.2494 2.7951
" />
<path d="M5.2494 2.7951
L5.2917 2.7105
" />
<path d="M5.2917 2.7105
L5.3764 2.6681
" />
<path d="M5.3764 2.6681
L5.5881 2.6681
" />
<path d="M5.5881 2.6681
L5.6727 2.6258
" />
<path d="M6.0960 2.4141
L6.0960 3.0068
" />
<path d="M6.0960 2.4988
L6.1384 2.4565
" />
<path d="M6.1384 2.4565
L6.2230 2.4141
" />
<path d="M6.2230 2.4141
L6.3500 2.4141
" />
<path d="M6.3500 2.4141
L6.4347 2.4565
" />
<path d="M6.4347 2.4565
L6.4770 2.5411
" />
<path d="M6.4770 2.5411
L6.4770 3.0068
" />
<path d="M6.8580 2.9645
L6.9427 3.0068
" />
<path d="M6.9427 3.0068
L7.1120 3.0068
" />
<path d="M7.1120 3.0068
L7.1967 2.9645
" />
<path d="M7.1967 2.9645
L7.2390 2.8798
" />
<path d="M7.2390 2.8798
L7.2390 2.8375
" />
<path d="M7.2390 2.8375
L7.1967 2.7528
" />
<path d="M7.1967 2.7528
L7.1120 2.7105
" />
<path d="M7.1120 2.7105
L6.9850 2.7105
" />
<path d="M6.9850 2.7105
L6.9003 2.6681
" />
<path d="M6.9003 2.6681
L6.8580 2.5835
" />
<path d="M6.8580 2.5835
L6.8580 2.5411
" />
<path d="M6.8580 2.5411
L6.9003 2.4565
" />
<path d="M6.9003 2.4565
L6.9850 2.4141
" />
<path d="M6.9850 2.4141
L7.1120 2.4141
" />
<path d="M7.1120 2.4141
L7.1967 2.4565
" />
<path d="M7.6200 3.0068
L7.6200 2.4141
" />
<path d="M7.6200 2.1178
L7.5777 2.1601
" />
<path d="M7.5777 2.1601
L7.6200 2.2025
" />
<path d="M7.6200 2.2025
L7.6624 2.1601
" />
<path d="M7.6624 2.1601
L7.6200 2.1178
" />
<path d="M7.6200 2.1178
L7.6200 2.2025
" />
<path d="M8.1703 3.0068
L8.0857 2.9645
" />
<path d="M8.0857 2.9645
L8.0433 2.9221
" />
<path d="M8.0433 2.9221
L8.0010 2.8375
" />
<path d="M8.0010 2.8375
L8.0010 2.5835
" />
<path d="M8.0010 2.5835
L8.0433 2.4988
" />
<path d="M8.0433 2.4988
L8.0857 2.4565
" />
<path d="M8.0857 2.4565
L8.1703 2.4141
" />
<path d="M8.1703 2.4141
L8.2973 2.4141
" />
<path d="M8.2973 2.4141
L8.3820 2.4565
" />
<path d="M8.3820 2.4565
L8.4243 2.4988
" />
<path d="M8.4243 2.4988
L8.4667 2.5835
" />
<path d="M8.4667 2.5835
L8.4667 2.8375
" />
<path d="M8.4667 2.8375
L8.4243 2.9221
" />
<path d="M8.4243 2.9221
L8.3820 2.9645
" />
<path d="M8.3820 2.9645
L8.2973 3.0068
" />
<path d="M8.2973 3.0068
L8.1703 3.0068
" />
<path d="M8.8476 2.4141
L8.8476 3.0068
" />
<path d="M8.8476 2.4988
L8.8900 2.4565
" />
<path d="M8.8900 2.4565
L8.9746 2.4141
" />
<path d="M8.9746 2.4141
L9.1016 2.4141
" />
<path d="M9.1016 2.4141
L9.1863 2.4565
" />
<path d="M9.1863 2.4565
L9.2286 2.5411
" />
<path d="M9.2286 2.5411
L9.2286 3.0068
" />
</g></g>
<g style="fill:none; 
stroke:#C20000; stroke-width:0.1270; stroke-opacity:1; 
stroke-linecap:round; stroke-linejoin:round;">
<rect x="1.651000" y="11.176000" width="8.890000" height="2.540000" rx="0.000000" />
<rect x="1.651000" y="11.176000" width="8.890000" height="2.540000" rx="0.000000" />
</g>
<g style="fill:none; 
stroke:#C20000; stroke-width:0.1270; stroke-opacity:1; 
stroke-linecap:round; stroke-linejoin:round;">
<rect x="1.651000" y="13.716000" width="8.890000" height="2.540000" rx="0.000000" />
<rect x="1.651000" y="13.716000" width="8.890000" height="2.540000" rx="0.000000" />
</g>
<g style="fill:none; 
stroke:#C20000; stroke-width:0.1270; stroke-opacity:1; 
stroke-linecap:round; stroke-linejoin:round;">
<rect x="43.561000" y="6.096000" width="28.194000" height="27.940000" rx="0.000000" />
<rect x="43.561000" y="6.096000" width="28.194000" height="27.940000" rx="0.000000" />
</g>
<g style="fill:none; 
stroke:#000084; stroke-width:0.1524; stroke-opacity:1; 
stroke-linecap:round; stroke-linejoin:round;">
<text x="57.6580" y="19.7562"
textLength="8.6722" font-size="1.3546" lengthAdjust="spacingAndGlyphs"
text-anchor="middle" opacity="0" stroke-opacity="0">Application</text>
<g class="stroked-text"><desc>Application</desc>
<path d="M53.6424 19.4199
L54.1262 19.4199
" />
<path d="M53.5456 19.7102
L53.8843 18.6942
" />
<path d="M53.8843 18.6942
L54.2229 19.7102
" />
<path d="M54.5617 19.0329
L54.5617 20.0489
" />
<path d="M54.5617 19.0813
L54.6584 19.0329
" />
<path d="M54.6584 19.0329
L54.8519 19.0329
" />
<path d="M54.8519 19.0329
L54.9487 19.0813
" />
<path d="M54.9487 19.0813
L54.9971 19.1297
" />
<path d="M54.9971 19.1297
L55.0455 19.2264
" />
<path d="M55.0455 19.2264
L55.0455 19.5167
" />
<path d="M55.0455 19.5167
L54.9971 19.6135
" />
<path d="M54.9971 19.6135
L54.9487 19.6619
" />
<path d="M54.9487 19.6619
L54.8519 19.7102
" />
<path d="M54.8519 19.7102
L54.6584 19.7102
" />
<path d="M54.6584 19.7102
L54.5617 19.6619
" />
<path d="M55.4809 19.0329
L55.4809 20.0489
" />
<path d="M55.4809 19.0813
L55.5776 19.0329
" />
<path d="M55.5776 19.0329
L55.7711 19.0329
" />
<path d="M55.7711 19.0329
L55.8679 19.0813
" />
<path d="M55.8679 19.0813
L55.9163 19.1297
" />
<path d="M55.9163 19.1297
L55.9647 19.2264
" />
<path d="M55.9647 19.2264
L55.9647 19.5167
" />
<path d="M55.9647 19.5167
L55.9163 19.6135
" />
<path d="M55.9163 19.6135
L55.8679 19.6619
" />
<path d="M55.8679 19.6619
L55.7711 19.7102
" />
<path d="M55.7711 19.7102
L55.5776 19.7102
" />
<path d="M55.5776 19.7102
L55.4809 19.6619
" />
<path d="M56.5452 19.7102
L56.4484 19.6619
" />
<path d="M56.4484 19.6619
L56.4001 19.5651
" />
<path d="M56.4001 19.5651
L56.4001 18.6942
" />
<path d="M56.9323 19.7102
L56.9323 19.0329
" />
<path d="M56.9323 18.6942
L56.8839 18.7426
" />
<path d="M56.8839 18.7426
L56.9323 18.7910
" />
<path d="M56.9323 18.7910
L56.9806 18.7426
" />
<path d="M56.9806 18.7426
L56.9323 18.6942
" />
<path d="M56.9323 18.6942
L56.9323 18.7910
" />
<path d="M57.8515 19.6619
L57.7547 19.7102
" />
<path d="M57.7547 19.7102
L57.5612 19.7102
" />
<path d="M57.5612 19.7102
L57.4644 19.6619
" />
<path d="M57.4644 19.6619
L57.4161 19.6135
" />
<path d="M57.4161 19.6135
L57.3677 19.5167
" />
<path d="M57.3677 19.5167
L57.3677 19.2264
" />
<path d="M57.3677 19.2264
L57.4161 19.1297
" />
<path d="M57.4161 19.1297
L57.4644 19.0813
" />
<path d="M57.4644 19.0813
L57.5612 19.0329
" />
<path d="M57.5612 19.0329
L57.7547 19.0329
" />
<path d="M57.7547 19.0329
L57.8515 19.0813
" />
<path d="M58.7224 19.7102
L58.7224 19.1780
" />
<path d="M58.7224 19.1780
L58.6740 19.0813
" />
<path d="M58.6740 19.0813
L58.5772 19.0329
" />
<path d="M58.5772 19.0329
L58.3837 19.0329
" />
<path d="M58.3837 19.0329
L58.2870 19.0813
" />
<path d="M58.7224 19.6619
L58.6256 19.7102
" />
<path d="M58.6256 19.7102
L58.3837 19.7102
" />
<path d="M58.3837 19.7102
L58.2870 19.6619
" />
<path d="M58.2870 19.6619
L58.2386 19.5651
" />
<path d="M58.2386 19.5651
L58.2386 19.4683
" />
<path d="M58.2386 19.4683
L58.2870 19.3716
" />
<path d="M58.2870 19.3716
L58.3837 19.3232
" />
<path d="M58.3837 19.3232
L58.6256 19.3232
" />
<path d="M58.6256 19.3232
L58.7224 19.2748
" />
<path d="M59.0610 19.0329
L59.4481 19.0329
" />
<path d="M59.2062 18.6942
L59.2062 19.5651
" />
<path d="M59.2062 19.5651
L59.2545 19.6619
" />
<path d="M59.2545 19.6619
L59.3513 19.7102
" />
<path d="M59.3513 19.7102
L59.4481 19.7102
" />
<path d="M59.7868 19.7102
L59.7868 19.0329
" />
<path d="M59.7868 18.6942
L59.7384 18.7426
" />
<path d="M59.7384 18.7426
L59.7868 18.7910
" />
<path d="M59.7868 18.7910
L59.8351 18.7426
" />
<path d="M59.8351 18.7426
L59.7868 18.6942
" />
<path d="M59.7868 18.6942
L59.7868 18.7910
" />
<path d="M60.4157 19.7102
L60.3189 19.6619
" />
<path d="M60.3189 19.6619
L60.2706 19.6135
" />
<path d="M60.2706 19.6135
L60.2222 19.5167
" />
<path d="M60.2222 19.5167
L60.2222 19.2264
" />
<path d="M60.2222 19.2264
L60.2706 19.1297
" />
<path d="M60.2706 19.1297
L60.3189 19.0813
" />
<path d="M60.3189 19.0813
L60.4157 19.0329
" />
<path d="M60.4157 19.0329
L60.5608 19.0329
" />
<path d="M60.5608 19.0329
L60.6576 19.0813
" />
<path d="M60.6576 19.0813
L60.7060 19.1297
" />
<path d="M60.7060 19.1297
L60.7544 19.2264
" />
<path d="M60.7544 19.2264
L60.7544 19.5167
" />
<path d="M60.7544 19.5167
L60.7060 19.6135
" />
<path d="M60.7060 19.6135
L60.6576 19.6619
" />
<path d="M60.6576 19.6619
L60.5608 19.7102
" />
<path d="M60.5608 19.7102
L60.4157 19.7102
" />
<path d="M61.1898 19.0329
L61.1898 19.7102
" />
<path d="M61.1898 19.1297
L61.2381 19.0813
" />
<path d="M61.2381 19.0813
L61.3349 19.0329
" />
<path d="M61.3349 19.0329
L61.4800 19.0329
" />
<path d="M61.4800 19.0329
L61.5768 19.0813
" />
<path d="M61.5768 19.0813
L61.6252 19.1780
" />
<path d="M61.6252 19.1780
L61.6252 19.7102
" />
</g><text x="57.6580" y="21.3919"
textLength="10.7043" font-size="1.3546" lengthAdjust="spacingAndGlyphs"
text-anchor="middle" opacity="0" stroke-opacity="0">Defined Logic</text>
<g class="stroked-text"><desc>Defined Logic</desc>
<path d="M52.6748 21.3459
L52.6748 20.3299
" />
<path d="M52.6748 20.3299
L52.9167 20.3299
" />
<path d="M52.9167 20.3299
L53.0618 20.3783
" />
<path d="M53.0618 20.3783
L53.1586 20.4751
" />
<path d="M53.1586 20.4751
L53.2069 20.5718
" />
<path d="M53.2069 20.5718
L53.2553 20.7654
" />
<path d="M53.2553 20.7654
L53.2553 20.9105
" />
<path d="M53.2553 20.9105
L53.2069 21.1040
" />
<path d="M53.2069 21.1040
L53.1586 21.2008
" />
<path d="M53.1586 21.2008
L53.0618 21.2976
" />
<path d="M53.0618 21.2976
L52.9167 21.3459
" />
<path d="M52.9167 21.3459
L52.6748 21.3459
" />
<path d="M54.0778 21.2976
L53.9810 21.3459
" />
<path d="M53.9810 21.3459
L53.7875 21.3459
" />
<path d="M53.7875 21.3459
L53.6908 21.2976
" />
<path d="M53.6908 21.2976
L53.6424 21.2008
" />
<path d="M53.6424 21.2008
L53.6424 20.8137
" />
<path d="M53.6424 20.8137
L53.6908 20.7170
" />
<path d="M53.6908 20.7170
L53.7875 20.6686
" />
<path d="M53.7875 20.6686
L53.9810 20.6686
" />
<path d="M53.9810 20.6686
L54.0778 20.7170
" />
<path d="M54.0778 20.7170
L54.1262 20.8137
" />
<path d="M54.1262 20.8137
L54.1262 20.9105
" />
<path d="M54.1262 20.9105
L53.6424 21.0073
" />
<path d="M54.4165 20.6686
L54.8036 20.6686
" />
<path d="M54.5617 21.3459
L54.5617 20.4751
" />
<path d="M54.5617 20.4751
L54.6100 20.3783
" />
<path d="M54.6100 20.3783
L54.7068 20.3299
" />
<path d="M54.7068 20.3299
L54.8036 20.3299
" />
<path d="M55.1423 21.3459
L55.1423 20.6686
" />
<path d="M55.1423 20.3299
L55.0939 20.3783
" />
<path d="M55.0939 20.3783
L55.1423 20.4267
" />
<path d="M55.1423 20.4267
L55.1906 20.3783
" />
<path d="M55.1906 20.3783
L55.1423 20.3299
" />
<path d="M55.1423 20.3299
L55.1423 20.4267
" />
<path d="M55.6261 20.6686
L55.6261 21.3459
" />
<path d="M55.6261 20.7654
L55.6744 20.7170
" />
<path d="M55.6744 20.7170
L55.7712 20.6686
" />
<path d="M55.7712 20.6686
L55.9163 20.6686
" />
<path d="M55.9163 20.6686
L56.0131 20.7170
" />
<path d="M56.0131 20.7170
L56.0615 20.8137
" />
<path d="M56.0615 20.8137
L56.0615 21.3459
" />
<path d="M56.9323 21.2976
L56.8355 21.3459
" />
<path d="M56.8355 21.3459
L56.6420 21.3459
" />
<path d="M56.6420 21.3459
L56.5453 21.2976
" />
<path d="M56.5453 21.2976
L56.4969 21.2008
" />
<path d="M56.4969 21.2008
L56.4969 20.8137
" />
<path d="M56.4969 20.8137
L56.5453 20.7170
" />
<path d="M56.5453 20.7170
L56.6420 20.6686
" />
<path d="M56.6420 20.6686
L56.8355 20.6686
" />
<path d="M56.8355 20.6686
L56.9323 20.7170
" />
<path d="M56.9323 20.7170
L56.9807 20.8137
" />
<path d="M56.9807 20.8137
L56.9807 20.9105
" />
<path d="M56.9807 20.9105
L56.4969 21.0073
" />
<path d="M57.8516 21.3459
L57.8516 20.3299
" />
<path d="M57.8516 21.2976
L57.7548 21.3459
" />
<path d="M57.7548 21.3459
L57.5613 21.3459
" />
<path d="M57.5613 21.3459
L57.4645 21.2976
" />
<path d="M57.4645 21.2976
L57.4162 21.2492
" />
<path d="M57.4162 21.2492
L57.3678 21.1524
" />
<path d="M57.3678 21.1524
L57.3678 20.8621
" />
<path d="M57.3678 20.8621
L57.4162 20.7654
" />
<path d="M57.4162 20.7654
L57.4645 20.7170
" />
<path d="M57.4645 20.7170
L57.5613 20.6686
" />
<path d="M57.5613 20.6686
L57.7548 20.6686
" />
<path d="M57.7548 20.6686
L57.8516 20.7170
" />
<path d="M59.5933 21.3459
L59.1095 21.3459
" />
<path d="M59.1095 21.3459
L59.1095 20.3299
" />
<path d="M60.0771 21.3459
L59.9803 21.2976
" />
<path d="M59.9803 21.2976
L59.9320 21.2492
" />
<path d="M59.9320 21.2492
L59.8836 21.1524
" />
<path d="M59.8836 21.1524
L59.8836 20.8621
" />
<path d="M59.8836 20.8621
L59.9320 20.7654
" />
<path d="M59.9320 20.7654
L59.9803 20.7170
" />
<path d="M59.9803 20.7170
L60.0771 20.6686
" />
<path d="M60.0771 20.6686
L60.2222 20.6686
" />
<path d="M60.2222 20.6686
L60.3190 20.7170
" />
<path d="M60.3190 20.7170
L60.3674 20.7654
" />
<path d="M60.3674 20.7654
L60.4158 20.8621
" />
<path d="M60.4158 20.8621
L60.4158 21.1524
" />
<path d="M60.4158 21.1524
L60.3674 21.2492
" />
<path d="M60.3674 21.2492
L60.3190 21.2976
" />
<path d="M60.3190 21.2976
L60.2222 21.3459
" />
<path d="M60.2222 21.3459
L60.0771 21.3459
" />
<path d="M61.2866 20.6686
L61.2866 21.4911
" />
<path d="M61.2866 21.4911
L61.2382 21.5878
" />
<path d="M61.2382 21.5878
L61.1898 21.6362
" />
<path d="M61.1898 21.6362
L61.0931 21.6846
" />
<path d="M61.0931 21.6846
L60.9479 21.6846
" />
<path d="M60.9479 21.6846
L60.8512 21.6362
" />
<path d="M61.2866 21.2976
L61.1898 21.3459
" />
<path d="M61.1898 21.3459
L60.9963 21.3459
" />
<path d="M60.9963 21.3459
L60.8995 21.2976
" />
<path d="M60.8995 21.2976
L60.8512 21.2492
" />
<path d="M60.8512 21.2492
L60.8028 21.1524
" />
<path d="M60.8028 21.1524
L60.8028 20.8621
" />
<path d="M60.8028 20.8621
L60.8512 20.7654
" />
<path d="M60.8512 20.7654
L60.8995 20.7170
" />
<path d="M60.8995 20.7170
L60.9963 20.6686
" />
<path d="M60.9963 20.6686
L61.1898 20.6686
" />
<path d="M61.1898 20.6686
L61.2866 20.7170
" />
<path d="M61.7704 21.3459
L61.7704 20.6686
" />
<path d="M61.7704 20.3299
L61.7220 20.3783
" />
<path d="M61.7220 20.3783
L61.7704 20.4267
" />
<path d="M61.7704 20.4267
L61.8187 20.3783
" />
<path d="M61.8187 20.3783
L61.7704 20.3299
" />
<path d="M61.7704 20.3299
L61.7704 20.4267
" />
<path d="M62.6896 21.2976
L62.5928 21.3459
" />
<path d="M62.5928 21.3459
L62.3993 21.3459
" />
<path d="M62.3993 21.3459
L62.3025 21.2976
" />
<path d="M62.3025 21.2976
L62.2542 21.2492
" />
<path d="M62.2542 21.2492
L62.2058 21.1524
" />
<path d="M62.2058 21.1524
L62.2058 20.8621
" />
<path d="M62.2058 20.8621
L62.2542 20.7654
" />
<path d="M62.2542 20.7654
L62.3025 20.7170
" />
<path d="M62.3025 20.7170
L62.3993 20.6686
" />
<path d="M62.3993 20.6686
L62.5928 20.6686
" />
<path d="M62.5928 20.6686
L62.6896 20.7170
" />
</g></g>
<g style="fill:none; 
stroke:#0000C2; stroke-width:0.1524; stroke-opacity:1; 
stroke-linecap:round; stroke-linejoin:round;">
<rect x="10.541000" y="1.651000" width="63.500000" height="1.905000" rx="0.000000" />
<rect x="10.541000" y="1.651000" width="63.500000" height="1.905000" rx="0.000000" />
</g>
<g style="fill:none; 
stroke:#FFFFFF; stroke-width:0.1524; stroke-opacity:1; 
stroke-linecap:round; stroke-linejoin:round;">
<text x="42.2910" y="3.0480"
textLength="6.1213" font-size="1.1853" lengthAdjust="spacingAndGlyphs"
text-anchor="middle" opacity="0" stroke-opacity="0">Internals</text>
<g class="stroked-text"><desc>Internals</desc>
<path d="M39.5817 3.0068
L39.5817 2.1178
" />
<path d="M40.0050 2.4141
L40.0050 3.0068
" />
<path d="M40.0050 2.4988
L40.0474 2.4565
" />
<path d="M40.0474 2.4565
L40.1320 2.4141
" />
<path d="M40.1320 2.4141
L40.2590 2.4141
" />
<path d="M40.2590 2.4141
L40.3437 2.4565
" />
<path d="M40.3437 2.4565
L40.3860 2.5411
" />
<path d="M40.3860 2.5411
L40.3860 3.0068
" />
<path d="M40.6823 2.4141
L41.0210 2.4141
" />
<path d="M40.8093 2.1178
L40.8093 2.8798
" />
<path d="M40.8093 2.8798
L40.8517 2.9645
" />
<path d="M40.8517 2.9645
L40.9363 3.0068
" />
<path d="M40.9363 3.0068
L41.0210 3.0068
" />
<path d="M41.6560 2.9645
L41.5713 3.0068
" />
<path d="M41.5713 3.0068
L41.4020 3.0068
" />
<path d="M41.4020 3.0068
L41.3173 2.9645
" />
<path d="M41.3173 2.9645
L41.2750 2.8798
" />
<path d="M41.2750 2.8798
L41.2750 2.5411
" />
<path d="M41.2750 2.5411
L41.3173 2.4565
" />
<path d="M41.3173 2.4565
L41.4020 2.4141
" />
<path d="M41.4020 2.4141
L41.5713 2.4141
" />
<path d="M41.5713 2.4141
L41.6560 2.4565
" />
<path d="M41.6560 2.4565
L41.6983 2.5411
" />
<path d="M41.6983 2.5411
L41.6983 2.6258
" />
<path d="M41.6983 2.6258
L41.2750 2.7105
" />
<path d="M42.0793 3.0068
L42.0793 2.4141
" />
<path d="M42.0793 2.5835
L42.1217 2.4988
" />
<path d="M42.1217 2.4988
L42.1640 2.4565
" />
<path d="M42.1640 2.4565
L42.2487 2.4141
" />
<path d="M42.2487 2.4141
L42.3333 2.4141
" />
<path d="M42.6296 2.4141
L42.6296 3.0068
" />
<path d="M42.6296 2.4988
L42.6720 2.4565
" />
<path d="M42.6720 2.4565
L42.7566 2.4141
" />
<path d="M42.7566 2.4141
L42.8836 2.4141
" />
<path d="M42.8836 2.4141
L42.9683 2.4565
" />
<path d="M42.9683 2.4565
L43.0106 2.5411
" />
<path d="M43.0106 2.5411
L43.0106 3.0068
" />
<path d="M43.8149 3.0068
L43.8149 2.5411
" />
<path d="M43.8149 2.5411
L43.7726 2.4565
" />
<path d="M43.7726 2.4565
L43.6879 2.4141
" />
<path d="M43.6879 2.4141
L43.5186 2.4141
" />
<path d="M43.5186 2.4141
L43.4339 2.4565
" />
<path d="M43.8149 2.9645
L43.7303 3.0068
" />
<path d="M43.7303 3.0068
L43.5186 3.0068
" />
<path d="M43.5186 3.0068
L43.4339 2.9645
" />
<path d="M43.4339 2.9645
L43.3916 2.8798
" />
<path d="M43.3916 2.8798
L43.3916 2.7951
" />
<path d="M43.3916 2.7951
L43.4339 2.7105
" />
<path d="M43.4339 2.7105
L43.5186 2.6681
" />
<path d="M43.5186 2.6681
L43.7303 2.6681
" />
<path d="M43.7303 2.6681
L43.8149 2.6258
" />
<path d="M44.3652 3.0068
L44.2806 2.9645
" />
<path d="M44.2806 2.9645
L44.2382 2.8798
" />
<path d="M44.2382 2.8798
L44.2382 2.1178
" />
<path d="M44.6616 2.9645
L44.7463 3.0068
" />
<path d="M44.7463 3.0068
L44.9156 3.0068
" />
<path d="M44.9156 3.0068
L45.0003 2.9645
" />
<path d="M45.0003 2.9645
L45.0426 2.8798
" />
<path d="M45.0426 2.8798
L45.0426 2.8375
" />
<path d="M45.0426 2.8375
L45.0003 2.7528
" />
<path d="M45.0003 2.7528
L44.9156 2.7105
" />
<path d="M44.9156 2.7105
L44.7886 2.7105
" />
<path d="M44.7886 2.7105
L44.7039 2.6681
" />
<path d="M44.7039 2.6681
L44.6616 2.5835
" />
<path d="M44.6616 2.5835
L44.6616 2.5411
" />
<path d="M44.6616 2.5411
L44.7039 2.4565
" />
<path d="M44.7039 2.4565
L44.7886 2.4141
" />
<path d="M44.7886 2.4141
L44.9156 2.4141
" />
<path d="M44.9156 2.4141
L45.0003 2.4565
" />
</g></g>
<g style="fill:none; 
stroke:#C20000; stroke-width:0.1270; stroke-opacity:1; 
stroke-linecap:round; stroke-linejoin:round;">
<rect x="1.651000" y="18.796000" width="8.890000" height="2.540000" rx="0.000000" />
<rect x="1.651000" y="18.796000" width="8.890000" height="2.540000" rx="0.000000" />
</g>
<g style="fill:none; 
stroke:#C20000; stroke-width:0.1270; stroke-opacity:1; 
stroke-linecap:round; stroke-linejoin:round;">
<rect x="1.651000" y="16.256000" width="8.890000" height="2.540000" rx="0.000000" />
<rect x="1.651000" y="16.256000" width="8.890000" height="2.540000" rx="0.000000" />
</g>
<g style="fill:none; 
stroke:#C20000; stroke-width:0.1270; stroke-opacity:1; 
stroke-linecap:round; stroke-linejoin:round;">
<rect x="1.651000" y="26.416000" width="8.890000" height="2.540000" rx="0.000000" />
<rect x="1.651000" y="26.416000" width="8.890000" height="2.540000" rx="0.000000" />
</g>
<g style="fill:none; 
stroke:#C20000; stroke-width:0.1270; stroke-opacity:1; 
stroke-linecap:round; stroke-linejoin:round;">
<rect x="1.651000" y="21.336000" width="8.890000" height="2.540000" rx="0.000000" />
<rect x="1.651000" y="21.336000" width="8.890000" height="2.540000" rx="0.000000" />
</g>
<g style="fill:none; 
stroke:#C20000; stroke-width:0.1270; stroke-opacity:1; 
stroke-linecap:round; stroke-linejoin:round;">
<rect x="1.651000" y="23.876000" width="8.890000" height="2.540000" rx="0.000000" />
<rect x="1.651000" y="23.876000" width="8.890000" height="2.540000" rx="0.000000" />
</g>
<g style="fill:none; 
stroke:#0000C2; stroke-width:0.1524; stroke-opacity:1; 
stroke-linecap:round; stroke-linejoin:round;">
<rect x="74.041000" y="1.651000" width="8.890000" height="1.905000" rx="0.000000" />
<rect x="74.041000" y="1.651000" width="8.890000" height="1.905000" rx="0.000000" />
</g>
<g style="fill:none; 
stroke:#FFFFFF; stroke-width:0.1524; stroke-opacity:1; 
stroke-linecap:round; stroke-linejoin:round;">
<text x="78.4860" y="3.0480"
textLength="7.3489" font-size="1.1853" lengthAdjust="spacingAndGlyphs"
text-anchor="middle" opacity="0" stroke-opacity="0">Frontpanel</text>
<g class="stroked-text"><desc>Frontpanel</desc>
<path d="M75.4593 2.5411
L75.1629 2.5411
" />
<path d="M75.1629 3.0068
L75.1629 2.1178
" />
<path d="M75.1629 2.1178
L75.5863 2.1178
" />
<path d="M75.9249 3.0068
L75.9249 2.4141
" />
<path d="M75.9249 2.5835
L75.9673 2.4988
" />
<path d="M75.9673 2.4988
L76.0096 2.4565
" />
<path d="M76.0096 2.4565
L76.0943 2.4141
" />
<path d="M76.0943 2.4141
L76.1789 2.4141
" />
<path d="M76.6022 3.0068
L76.5176 2.9645
" />
<path d="M76.5176 2.9645
L76.4752 2.9221
" />
<path d="M76.4752 2.9221
L76.4329 2.8375
" />
<path d="M76.4329 2.8375
L76.4329 2.5835
" />
<path d="M76.4329 2.5835
L76.4752 2.4988
" />
<path d="M76.4752 2.4988
L76.5176 2.4565
" />
<path d="M76.5176 2.4565
L76.6022 2.4141
" />
<path d="M76.6022 2.4141
L76.7292 2.4141
" />
<path d="M76.7292 2.4141
L76.8139 2.4565
" />
<path d="M76.8139 2.4565
L76.8562 2.4988
" />
<path d="M76.8562 2.4988
L76.8986 2.5835
" />
<path d="M76.8986 2.5835
L76.8986 2.8375
" />
<path d="M76.8986 2.8375
L76.8562 2.9221
" />
<path d="M76.8562 2.9221
L76.8139 2.9645
" />
<path d="M76.8139 2.9645
L76.7292 3.0068
" />
<path d="M76.7292 3.0068
L76.6022 3.0068
" />
<path d="M77.2795 2.4141
L77.2795 3.0068
" />
<path d="M77.2795 2.4988
L77.3219 2.4565
" />
<path d="M77.3219 2.4565
L77.4065 2.4141
" />
<path d="M77.4065 2.4141
L77.5335 2.4141
" />
<path d="M77.5335 2.4141
L77.6182 2.4565
" />
<path d="M77.6182 2.4565
L77.6605 2.5411
" />
<path d="M77.6605 2.5411
L77.6605 3.0068
" />
<path d="M77.9568 2.4141
L78.2955 2.4141
" />
<path d="M78.0838 2.1178
L78.0838 2.8798
" />
<path d="M78.0838 2.8798
L78.1262 2.9645
" />
<path d="M78.1262 2.9645
L78.2108 3.0068
" />
<path d="M78.2108 3.0068
L78.2955 3.0068
" />
<path d="M78.5918 2.4141
L78.5918 3.3031
" />
<path d="M78.5918 2.4565
L78.6765 2.4141
" />
<path d="M78.6765 2.4141
L78.8458 2.4141
" />
<path d="M78.8458 2.4141
L78.9305 2.4565
" />
<path d="M78.9305 2.4565
L78.9728 2.4988
" />
<path d="M78.9728 2.4988
L79.0152 2.5835
" />
<path d="M79.0152 2.5835
L79.0152 2.8375
" />
<path d="M79.0152 2.8375
L78.9728 2.9221
" />
<path d="M78.9728 2.9221
L78.9305 2.9645
" />
<path d="M78.9305 2.9645
L78.8458 3.0068
" />
<path d="M78.8458 3.0068
L78.6765 3.0068
" />
<path d="M78.6765 3.0068
L78.5918 2.9645
" />
<path d="M79.7771 3.0068
L79.7771 2.5411
" />
<path d="M79.7771 2.5411
L79.7348 2.4565
" />
<path d="M79.7348 2.4565
L79.6501 2.4141
" />
<path d="M79.6501 2.4141
L79.4808 2.4141
" />
<path d="M79.4808 2.4141
L79.3961 2.4565
" />
<path d="M79.7771 2.9645
L79.6925 3.0068
" />
<path d="M79.6925 3.0068
L79.4808 3.0068
" />
<path d="M79.4808 3.0068
L79.3961 2.9645
" />
<path d="M79.3961 2.9645
L79.3538 2.8798
" />
<path d="M79.3538 2.8798
L79.3538 2.7951
" />
<path d="M79.3538 2.7951
L79.3961 2.7105
" />
<path d="M79.3961 2.7105
L79.4808 2.6681
" />
<path d="M79.4808 2.6681
L79.6925 2.6681
" />
<path d="M79.6925 2.6681
L79.7771 2.6258
" />
<path d="M80.2004 2.4141
L80.2004 3.0068
" />
<path d="M80.2004 2.4988
L80.2428 2.4565
" />
<path d="M80.2428 2.4565
L80.3274 2.4141
" />
<path d="M80.3274 2.4141
L80.4544 2.4141
" />
<path d="M80.4544 2.4141
L80.5391 2.4565
" />
<path d="M80.5391 2.4565
L80.5814 2.5411
" />
<path d="M80.5814 2.5411
L80.5814 3.0068
" />
<path d="M81.3434 2.9645
L81.2587 3.0068
" />
<path d="M81.2587 3.0068
L81.0894 3.0068
" />
<path d="M81.0894 3.0068
L81.0047 2.9645
" />
<path d="M81.0047 2.9645
L80.9624 2.8798
" />
<path d="M80.9624 2.8798
L80.9624 2.5411
" />
<path d="M80.9624 2.5411
L81.0047 2.4565
" />
<path d="M81.0047 2.4565
L81.0894 2.4141
" />
<path d="M81.0894 2.4141
L81.2587 2.4141
" />
<path d="M81.2587 2.4141
L81.3434 2.4565
" />
<path d="M81.3434 2.4565
L81.3857 2.5411
" />
<path d="M81.3857 2.5411
L81.3857 2.6258
" />
<path d="M81.3857 2.6258
L80.9624 2.7105
" />
<path d="M81.8937 3.0068
L81.8091 2.9645
" />
<path d="M81.8091 2.9645
L81.7667 2.8798
" />
<path d="M81.7667 2.8798
L81.7667 2.1178
" />
</g></g>
<g style="fill:none; 
stroke:#008400; stroke-width:0.1524; stroke-opacity:1; 
stroke-linecap:round; stroke-linejoin:round;">
<text x="12.4460" y="27.8805"
textLength="6.5023" font-size="1.1853" lengthAdjust="spacingAndGlyphs"
text-anchor="start" opacity="0" stroke-opacity="0">Loopback</text>
<g class="stroked-text"><desc>Loopback</desc>
<path d="M13.1812 27.8393
L12.7578 27.8393
" />
<path d="M12.7578 27.8393
L12.7578 26.9503
" />
<path d="M13.6045 27.8393
L13.5199 27.7970
" />
<path d="M13.5199 27.7970
L13.4775 27.7546
" />
<path d="M13.4775 27.7546
L13.4352 27.6700
" />
<path d="M13.4352 27.6700
L13.4352 27.4160
" />
<path d="M13.4352 27.4160
L13.4775 27.3313
" />
<path d="M13.4775 27.3313
L13.5199 27.2890
" />
<path d="M13.5199 27.2890
L13.6045 27.2466
" />
<path d="M13.6045 27.2466
L13.7315 27.2466
" />
<path d="M13.7315 27.2466
L13.8162 27.2890
" />
<path d="M13.8162 27.2890
L13.8585 27.3313
" />
<path d="M13.8585 27.3313
L13.9009 27.4160
" />
<path d="M13.9009 27.4160
L13.9009 27.6700
" />
<path d="M13.9009 27.6700
L13.8585 27.7546
" />
<path d="M13.8585 27.7546
L13.8162 27.7970
" />
<path d="M13.8162 27.7970
L13.7315 27.8393
" />
<path d="M13.7315 27.8393
L13.6045 27.8393
" />
<path d="M14.4088 27.8393
L14.3242 27.7970
" />
<path d="M14.3242 27.7970
L14.2818 27.7546
" />
<path d="M14.2818 27.7546
L14.2395 27.6700
" />
<path d="M14.2395 27.6700
L14.2395 27.4160
" />
<path d="M14.2395 27.4160
L14.2818 27.3313
" />
<path d="M14.2818 27.3313
L14.3242 27.2890
" />
<path d="M14.3242 27.2890
L14.4088 27.2466
" />
<path d="M14.4088 27.2466
L14.5358 27.2466
" />
<path d="M14.5358 27.2466
L14.6205 27.2890
" />
<path d="M14.6205 27.2890
L14.6628 27.3313
" />
<path d="M14.6628 27.3313
L14.7052 27.4160
" />
<path d="M14.7052 27.4160
L14.7052 27.6700
" />
<path d="M14.7052 27.6700
L14.6628 27.7546
" />
<path d="M14.6628 27.7546
L14.6205 27.7970
" />
<path d="M14.6205 27.7970
L14.5358 27.8393
" />
<path d="M14.5358 27.8393
L14.4088 27.8393
" />
<path d="M15.0861 27.2466
L15.0861 28.1356
" />
<path d="M15.0861 27.2890
L15.1708 27.2466
" />
<path d="M15.1708 27.2466
L15.3401 27.2466
" />
<path d="M15.3401 27.2466
L15.4248 27.2890
" />
<path d="M15.4248 27.2890
L15.4671 27.3313
" />
<path d="M15.4671 27.3313
L15.5095 27.4160
" />
<path d="M15.5095 27.4160
L15.5095 27.6700
" />
<path d="M15.5095 27.6700
L15.4671 27.7546
" />
<path d="M15.4671 27.7546
L15.4248 27.7970
" />
<path d="M15.4248 27.7970
L15.3401 27.8393
" />
<path d="M15.3401 27.8393
L15.1708 27.8393
" />
<path d="M15.1708 27.8393
L15.0861 27.7970
" />
<path d="M15.8904 27.8393
L15.8904 26.9503
" />
<path d="M15.8904 27.2890
L15.9751 27.2466
" />
<path d="M15.9751 27.2466
L16.1444 27.2466
" />
<path d="M16.1444 27.2466
L16.2291 27.2890
" />
<path d="M16.2291 27.2890
L16.2714 27.3313
" />
<path d="M16.2714 27.3313
L16.3138 27.4160
" />
<path d="M16.3138 27.4160
L16.3138 27.6700
" />
<path d="M16.3138 27.6700
L16.2714 27.7546
" />
<path d="M16.2714 27.7546
L16.2291 27.7970
" />
<path d="M16.2291 27.7970
L16.1444 27.8393
" />
<path d="M16.1444 27.8393
L15.9751 27.8393
" />
<path d="M15.9751 27.8393
L15.8904 27.7970
" />
<path d="M17.0757 27.8393
L17.0757 27.3736
" />
<path d="M17.0757 27.3736
L17.0334 27.2890
" />
<path d="M17.0334 27.2890
L16.9487 27.2466
" />
<path d="M16.9487 27.2466
L16.7794 27.2466
" />
<path d="M16.7794 27.2466
L16.6947 27.2890
" />
<path d="M17.0757 27.7970
L16.9911 27.8393
" />
<path d="M16.9911 27.8393
L16.7794 27.8393
" />
<path d="M16.7794 27.8393
L16.6947 27.7970
" />
<path d="M16.6947 27.7970
L16.6524 27.7123
" />
<path d="M16.6524 27.7123
L16.6524 27.6276
" />
<path d="M16.6524 27.6276
L16.6947 27.5430
" />
<path d="M16.6947 27.5430
L16.7794 27.5006
" />
<path d="M16.7794 27.5006
L16.9911 27.5006
" />
<path d="M16.9911 27.5006
L17.0757 27.4583
" />
<path d="M17.8800 27.7970
L17.7954 27.8393
" />
<path d="M17.7954 27.8393
L17.6260 27.8393
" />
<path d="M17.6260 27.8393
L17.5414 27.7970
" />
<path d="M17.5414 27.7970
L17.4990 27.7546
" />
<path d="M17.4990 27.7546
L17.4567 27.6700
" />
<path d="M17.4567 27.6700
L17.4567 27.4160
" />
<path d="M17.4567 27.4160
L17.4990 27.3313
" />
<path d="M17.4990 27.3313
L17.5414 27.2890
" />
<path d="M17.5414 27.2890
L17.6260 27.2466
" />
<path d="M17.6260 27.2466
L17.7954 27.2466
" />
<path d="M17.7954 27.2466
L17.8800 27.2890
" />
<path d="M18.2610 27.8393
L18.2610 26.9503
" />
<path d="M18.3457 27.5006
L18.5997 27.8393
" />
<path d="M18.5997 27.2466
L18.2610 27.5853
" />
</g></g>
<g style="fill:none; 
stroke:#0000C2; stroke-width:0.1524; stroke-opacity:1; 
stroke-linecap:round; stroke-linejoin:round;">
<rect x="1.651000" y="3.556000" width="8.890000" height="7.620000" rx="0.000000" />
<rect x="1.651000" y="28.956000" width="8.890000" height="7.620000" rx="0.000000" />
<rect x="10.541000" y="3.556000" width="63.500000" height="33.020000" rx="0.000000" />
<line x1="74.0410" y1="1.6510" x2="74.0410" y2="3.5560" />
<rect x="74.041000" y="3.556000" width="8.890000" height="33.020000" rx="0.000000" />
<rect x="74.041000" y="3.556000" width="8.890000" height="33.020000" rx="0.000000" />
</g>
<g style="fill:#009600; fill-opacity:1.0000; 
stroke:#009600; stroke-width:0.1524; stroke-opacity:1; 
stroke-linecap:round; stroke-linejoin:round;">
<circle cx="36.5760" cy="25.1460" r="0.4572" /> 
</g> 
</svg>
