<svg xmlns="http://www.w3.org/2000/svg" width="319.2" height="144" viewBox="0 0 84.455 38.1"><desc>Image generated by Eeschema-SVG</desc><rect width="8.89" height="2.54" x="1.778" y="19.304" rx="0" style="fill:#ffffc2;fill-opacity:1;stroke:none"/><rect width="8.89" height="2.54" x="74.168" y="18.669" rx="0" style="fill:#ffffc2;fill-opacity:1;stroke:none"/><rect width="6.35" height="6.35" x="24.003" y="4.699" rx="0" style="fill:#ffffc2;fill-opacity:1;stroke:none"/><rect width="6.35" height="6.35" x="20.828" y="23.749" rx="0" style="fill:#ffffc2;fill-opacity:1;stroke:none"/><rect width="6.35" height="6.35" x="14.478" y="4.699" rx="0" style="fill:#ffffc2;fill-opacity:1;stroke:none"/><rect width="8.89" height="2.54" x="11.938" y="32.004" rx="0" style="fill:#ffffc2;fill-opacity:1;stroke:none"/><rect width="8.89" height="2.54" x="74.168" y="23.749" rx="0" style="fill:#ffffc2;fill-opacity:1;stroke:none"/><rect width="8.89" height="2.54" x="1.778" y="14.224" rx="0" style="fill:#ffffc2;fill-opacity:1;stroke:none"/><rect width="8.89" height="2.54" x="1.778" y="16.764" rx="0" style="fill:#ffffc2;fill-opacity:1;stroke:none"/><rect width="8.89" height="2.54" x="1.778" y="21.844" rx="0" style="fill:#ffffc2;fill-opacity:1;stroke:none"/><rect width="8.89" height="2.54" x="74.168" y="32.004" rx="0" style="fill:#ffffc2;fill-opacity:1;stroke:none"/><rect width="12.7" height="6.35" x="52.578" y="21.844" rx="0" style="fill:#ffffc2;fill-opacity:1;stroke:none"/><rect width="12.7" height="22.225" x="33.528" y="7.874" rx="0" style="fill:#ffffc2;fill-opacity:1;stroke:none"/><rect width="63.5" height="1.905" x="10.668" y="1.524" rx="0" style="fill:#0000c2;fill-opacity:1;stroke:none"/><rect width="8.89" height="2.54" x="74.168" y="9.779" rx="0" style="fill:#ffffc2;fill-opacity:1;stroke:none"/><rect width="8.89" height="2.54" x="74.168" y="16.129" rx="0" style="fill:#ffffc2;fill-opacity:1;stroke:none"/><rect width="12.7" height="6.35" x="52.578" y="7.874" rx="0" style="fill:#ffffc2;fill-opacity:1;stroke:none"/><rect width="8.89" height="1.905" x="74.168" y="1.524" rx="0" style="fill:#0000c2;fill-opacity:1;stroke:none"/><rect width="8.89" height="2.54" x="1.778" y="24.384" rx="0" style="fill:#ffffc2;fill-opacity:1;stroke:none"/><rect width="8.89" height="2.54" x="1.778" y="26.924" rx="0" style="fill:#ffffc2;fill-opacity:1;stroke:none"/><rect width="8.89" height="1.905" x="1.778" y="1.524" rx="0" style="fill:#0000c2;fill-opacity:1;stroke:none"/><rect width="8.89" height="2.54" x="1.778" y="11.684" rx="0" style="fill:#ffffc2;fill-opacity:1;stroke:none"/><rect width="8.89" height="6.985" x="1.778" y="29.464" rx="0" style="fill:#ffe5bf;fill-opacity:1;stroke:none"/><rect width="8.89" height="3.81" x="74.168" y="12.319" rx="0" style="fill:#ffe5bf;fill-opacity:1;stroke:none"/><rect width="8.89" height="1.905" x="74.168" y="34.544" rx="0" style="fill:#ffe5bf;fill-opacity:1;stroke:none"/><rect width="8.89" height="5.715" x="74.168" y="26.289" rx="0" style="fill:#ffe5bf;fill-opacity:1;stroke:none"/><rect width="8.89" height="8.255" x="1.778" y="3.429" rx="0" style="fill:#ffe5bf;fill-opacity:1;stroke:none"/><rect width="8.89" height="2.54" x="74.168" y="21.209" rx="0" style="fill:#ffe5bf;fill-opacity:1;stroke:none"/><rect width="8.89" height="6.35" x="74.168" y="3.429" rx="0" style="fill:#ffe5bf;fill-opacity:1;stroke:none"/><g style="fill:none;stroke:#725600;stroke-width:.1524;stroke-opacity:1;stroke-linecap:round;stroke-linejoin:round"><g class="stroked-text"><desc>PIO</desc><path d="M34.862 20.977v-.889m0 0h.339m-.001 0 .086.043m0-.001.042.043m0 0 .042.085m0 0v.127m0 0-.042.084m0 .001-.042.042m0 0-.085.042m-.001 0h-.338m.889.423v-.889m.593 0h.17m-.001 0 .085.043m0-.001.084.085m.001 0 .042.17m0 0v.296m0 0-.043.17m.001-.001-.085.085m0 0-.085.042m0 0h-.17m.001 0-.085-.042m.001 0-.085-.085m0 0-.043-.169m0 0v-.296m0 0 .043-.17m0 0 .084-.084m.001-.001.084-.042"/></g><path d="M33.528 20.13h.889v.889h-.889Z" style="stroke:#725600;stroke-width:.1524;stroke-opacity:1;stroke-linecap:round;stroke-linejoin:round;fill:none"/></g><g style="fill:none;stroke:#725600;stroke-width:.1524;stroke-opacity:1;stroke-linecap:round;stroke-linejoin:round"><g class="stroked-text"><desc>UART</desc><path d="M42.057 25.803v.72m0 0 .043.085m0 0 .042.042m0 0 .085.042m0 0h.17m-.001 0 .085-.042m-.001 0 .043-.042m0 0 .042-.085m0 0v-.72m.381.635h.424m-.508.254.296-.889m0 0 .296.89m.805-.001-.297-.423m-.212.423v-.889m0 0h.34m0 0 .084.043m0 0 .042.042m0 0 .043.085m0 0v.127m0 0-.043.084m0 0-.042.043m0 0-.085.042m.001 0h-.34m.763-.466h.508m-.254.889v-.889"/></g><path d="M46.228 25.845h-.889v.889h.889Z" style="stroke:#725600;stroke-width:.1524;stroke-opacity:1;stroke-linecap:round;stroke-linejoin:round;fill:none"/></g><g style="fill:none;stroke:#725600;stroke-width:.1524;stroke-opacity:1;stroke-linecap:round;stroke-linejoin:round"><g class="stroked-text"><desc>I²C</desc><path d="M34.862 23.517v-.889m.381-.211.085-.043m0 0h.127m0 0 .084.043m.001 0 .042.084m0 0v.085m0 0-.043.085m.001-.001-.297.297m0 0h.339m.888.466-.041.042m0 0-.128.042m.001 0h-.085m0 0-.127-.042m0 0-.085-.085m0 0-.042-.084m0 0-.043-.17m0 0v-.127m0 .001.043-.17m0 0 .042-.085m0 0 .085-.084m0-.001.127-.042m0 0h.084m.001 0 .127.043m0-.001.042.043"/></g><path d="M33.528 22.67h.889v.888h-.889Z" style="stroke:#725600;stroke-width:.1524;stroke-opacity:1;stroke-linecap:round;stroke-linejoin:round;fill:none"/></g><g style="fill:none;stroke:#725600;stroke-width:.1524;stroke-opacity:1;stroke-linecap:round;stroke-linejoin:round"><g class="stroked-text"><desc>SPI</desc><path d="m43.116 11.41.127.042m0 0h.211m0 0 .085-.042m0 0 .042-.042m0 0 .043-.085m0 0v-.085m0 0-.043-.084m0 0-.042-.043m0 0-.085-.042m0 0-.169-.042m0 0-.085-.043m0 0-.042-.042m0 0-.042-.085m0 0v-.084m0 0 .042-.085m0 0 .042-.042m0 0 .085-.043m0 0h.212m0 0 .127.043m.381.846v-.889m0 0h.338m0 0 .085.043m0 0 .042.042m0 0 .043.085m0 0v.127m0 0-.043.084m0 0-.042.043m0 0-.085.042m0 0h-.338m.889.423v-.889"/></g><path d="M46.228 10.605h-.889v.888h.889Z" style="stroke:#725600;stroke-width:.1524;stroke-opacity:1;stroke-linecap:round;stroke-linejoin:round;fill:none"/></g><g style="fill:none;stroke:#725600;stroke-width:.1524;stroke-opacity:1;stroke-linecap:round;stroke-linejoin:round"><g class="stroked-text"><desc>RESET</desc><path d="m41.803 17.802-.296-.423m-.212.423v-.889m0 0h.34m-.001 0 .085.043m0 0 .042.042m0 0 .042.085m0 0v.127m0 0-.042.084m0 0-.042.043m0 0-.085.042m0 0h-.339m.889-.042h.297m.127.465h-.424m0 0v-.889m0 0h.424m.338.847.127.042m0 0h.212m0 0 .085-.042m0 0 .042-.042m0 0 .042-.085m0 0v-.085m0 0-.042-.084m0 0-.042-.043m0 0-.085-.042m0 0-.17-.042m.001 0-.085-.043m0 0-.042-.042m0 0-.043-.085m0 0v-.084m0 0 .043-.085m0 0 .042-.042m0 0 .085-.043m0 0h.211m0 0 .127.043m.381.381h.297m.127.465h-.424m0 0v-.889m0 0h.424m.254 0h.508m-.254.889v-.889"/></g><path d="M46.228 16.955h-.889v.889h.889Z" style="stroke:#725600;stroke-width:.1524;stroke-opacity:1;stroke-linecap:round;stroke-linejoin:round;fill:none"/></g><g style="fill:none;stroke:#725600;stroke-width:.1524;stroke-opacity:1;stroke-linecap:round;stroke-linejoin:round"><g class="stroked-text"><desc>SWD</desc><path d="m42.523 24.11.127.042m0 0h.212m0 0 .084-.042m0 0 .043-.042m0 0 .042-.085m0 0v-.085m0 0-.042-.084m0 0-.043-.043m0 0-.084-.042m0 0-.17-.042m0 0-.084-.043m0 0-.043-.042m0 0-.042-.085m0 0v-.084m0 0 .042-.085m0 0 .043-.042m0 0 .084-.043m0 0h.212m0 0 .127.043m.296-.043.212.89m0-.001.17-.635m-.001 0 .17.635m0 0 .211-.889m.339.889v-.889m0 0h.212m0 0 .127.043m0 0 .084.084m0 0 .043.085m0 0 .042.17m0-.001v.127m0 0-.042.17m0-.001-.043.085m0 0-.084.085m0 0-.127.042m0 0h-.212"/></g><path d="M46.228 23.305h-.889v.889h.889Z" style="stroke:#725600;stroke-width:.1524;stroke-opacity:1;stroke-linecap:round;stroke-linejoin:round;fill:none"/></g><g style="fill:none;stroke:#725600;stroke-width:.1524;stroke-opacity:1;stroke-linecap:round;stroke-linejoin:round"><g class="stroked-text"><desc>BOOT</desc><path d="m42.185 19.877.127.042m0 0 .042.042m0 0 .042.085m0 0v.127m0 0-.042.085m0 0-.042.042m0 0-.085.042m0 0h-.339m0 0v-.889m0 0h.297m0 0 .084.043m.001 0 .041.042m.001 0 .042.085m0 0v.084m0 0-.042.085m0 0-.043.042m.001 0-.086.043m.001 0h-.297m1.059-.424h.169m0 0 .084.043m0 0 .085.084m0 0 .043.17m0 0v.296m0 0-.043.17m0-.001-.084.085m-.001 0-.084.042m0 0h-.17m.001 0-.085-.042m0 0-.085-.085m0 0-.042-.169m0 0v-.296m0 0 .042-.17m0 0 .085-.084m0 0 .084-.043m.932 0h.17m-.001 0 .085.043m0 0 .084.084m0 0 .043.17m0 0v.296m0 0-.043.17m0-.001-.084.085m0 0-.085.042m0 0h-.17m.001 0-.085-.042m0 0-.085-.085m0 0-.042-.169m0 0v-.296m0 0 .042-.17m0 0 .085-.084m0 0 .085-.043m.635 0h.508m-.254.889v-.889"/></g><path d="M46.228 19.495h-.889v.889h.889Z" style="stroke:#725600;stroke-width:.1524;stroke-opacity:1;stroke-linecap:round;stroke-linejoin:round;fill:none"/></g><g style="fill:none;stroke:#725600;stroke-width:.1524;stroke-opacity:1;stroke-linecap:round;stroke-linejoin:round"><g class="stroked-text"><desc>USB-A</desc><path d="M76.031 32.584v1.028m0 0 .06.12m.001.001.06.06m0 0 .12.06m.001.001h.242m0 0 .12-.06m.001-.001.06-.06m0 0 .06-.121m.001 0v-1.029m.544 1.21.181.06m.001.001h.302m0 0 .12-.06m.001-.001.06-.06m0 0 .06-.121m.001 0v-.121m0-.001-.06-.12m-.001 0-.06-.06m0 0-.121-.061m0 0-.242-.06m0-.001-.121-.06m0 0-.06-.06m0-.001-.06-.12m-.001-.001v-.12m0-.001.06-.12m.001 0 .06-.061m0 0 .121-.06m0 0h.302m0 0 .182.06m.967.544.182.06m0 .001.06.06m0 .001.06.12m.001 0v.182m0 0-.06.12m-.001.001-.06.06m0 0-.121.06m0 .001h-.484m0 0v-1.27m0 0h.423m0 0 .121.06m0 0 .06.06m.001.001.06.12m0 0v.121m0 0-.06.121m0 0-.06.06m-.001.001-.12.06m-.001 0h-.423m1.27.182h.968m.544.12h.605m-.726.364.423-1.27m0 0 .424 1.27"/></g><path d="m75.438 33.274-.635-.635h-.635v1.27h.635Z" style="stroke:#725600;stroke-width:.1524;stroke-opacity:1;stroke-linecap:round;stroke-linejoin:round;fill:none"/></g><g style="fill:none;stroke:#725600;stroke-width:.1524;stroke-opacity:1;stroke-linecap:round;stroke-linejoin:round"><g class="stroked-text"><desc>USB</desc><path d="M5.6 24.964v1.028m0 0 .06.12m0 .001.06.06m0 0 .122.06m0 .001h.241m0 0 .121-.06m0-.001.06-.06m.001 0 .06-.121m0 0v-1.029m.545 1.21.181.06m0 .001h.303m0 0 .12-.06m0-.001.06-.06m.001 0 .06-.121m0 0v-.121m0-.001-.06-.12m0 0-.06-.06m-.001 0-.12-.061m0 0-.242-.06m0-.001-.121-.06m-.001 0-.06-.06m0-.001-.06-.12m0-.001v-.12m0-.001.06-.12m0 0 .06-.061m0 0 .122-.06m0 0h.302m0 0 .181.06m.968.544.181.06m0 .001.06.06m.001.001.06.12m0 0v.182m0 0-.06.12m0 .001-.06.06m-.001 0-.12.06m-.001.001H8.14m0 0v-1.27m0 0h.423m0 0 .12.06m.001 0 .06.06m0 .001.06.12m.001 0v.121m0 0-.06.121m-.001 0-.06.06m0 .001-.121.06m0 0H8.14"/></g><path d="m9.398 25.654.635.635h.635v-1.27h-.635Z" style="stroke:#725600;stroke-width:.1524;stroke-opacity:1;stroke-linecap:round;stroke-linejoin:round;fill:none"/></g><g style="fill:none;stroke:#725600;stroke-width:.1524;stroke-opacity:1;stroke-linecap:round;stroke-linejoin:round"><g class="stroked-text"><desc>USB</desc><path d="M5.6 27.504v1.028m0 0 .06.12m0 .001.06.06m0 0 .122.06m0 .001h.241m0 0 .121-.06m0-.001.06-.06m.001 0 .06-.121m0 0v-1.029m.545 1.21.181.06m0 .001h.303m0 0 .12-.06m0-.001.06-.06m.001 0 .06-.121m0 0v-.121m0-.001-.06-.12m0 0-.06-.06m-.001 0-.12-.061m0 0-.242-.06m0-.001-.121-.06m-.001 0-.06-.06m0-.001-.06-.12m0-.001v-.12m0-.001.06-.12m0 0 .06-.061m0 0 .122-.06m0 0h.302m0 0 .181.06m.968.544.181.06m0 .001.06.06m.001.001.06.12m0 0v.182m0 0-.06.12m0 .001-.06.06m-.001 0-.12.06m-.001.001H8.14m0 0v-1.27m0 0h.423m0 0 .12.06m.001 0 .06.06m0 .001.06.12m.001 0v.121m0 0-.06.121m-.001 0-.06.06m0 .001-.121.06m0 0H8.14"/></g><path d="m9.398 28.194.635.635h.635v-1.27h-.635Z" style="stroke:#725600;stroke-width:.1524;stroke-opacity:1;stroke-linecap:round;stroke-linejoin:round;fill:none"/></g><g style="fill:none;stroke:#725600;stroke-width:.1524;stroke-opacity:1;stroke-linecap:round;stroke-linejoin:round"><g class="stroked-text"><desc>PIO</desc><path d="M34.862 18.437v-.889m0 0h.339m-.001 0 .086.043m0-.001.042.043m0 0 .042.085m0 0v.127m0 0-.042.084m0 .001-.042.042m0 0-.085.042m-.001 0h-.338m.889.423v-.889m.593 0h.17m-.001 0 .085.043m0-.001.084.085m.001 0 .042.17m0 0v.296m0 0-.043.17m.001-.001-.085.085m0 0-.085.042m0 0h-.17m.001 0-.085-.042m.001 0-.085-.085m0 0-.043-.169m0 0v-.296m0 0 .043-.17m0 0 .084-.084m.001-.001.084-.042"/></g><path d="M33.528 17.59h.889v.889h-.889Z" style="stroke:#725600;stroke-width:.1524;stroke-opacity:1;stroke-linecap:round;stroke-linejoin:round;fill:none"/></g><g style="fill:none;stroke:#725600;stroke-width:.1524;stroke-opacity:1;stroke-linecap:round;stroke-linejoin:round"><g class="stroked-text"><desc>BOOT</desc><path d="m76.236 19.861.163.055m.001 0 .053.054m.001 0 .054.109m0 0v.163m0 0-.054.109m0-.001-.055.055m.001 0-.11.055m0 0h-.435m0 0v-1.143m0 0h.38m.001 0 .109.054m0 0 .054.055m.001 0 .053.109m.001 0v.108m0 0-.055.11m.001-.001-.055.055m0 0-.11.054m.001 0h-.381m1.361-.544h.217m0 0 .11.054m-.001 0 .109.11m-.001-.001.055.218m0 0v.38m0 .001-.054.218m-.001 0-.108.108m0 0-.109.055m0 0h-.218m.001 0-.11-.055m.001 0-.11-.108m.001 0-.055-.218m0 0v-.381m0 0 .055-.218m0 0 .109-.109m0 0 .109-.054m1.197 0h.218m-.001 0 .11.054m0 0 .108.11m0-.001.055.218m0 0v.38m0 .001-.055.218m0 0-.108.108m0 0-.11.055m0 0h-.217m0 0-.109-.055m0 0-.109-.108m0 0-.054-.218m-.001 0v-.381m0 0 .055-.218m0 0 .11-.109m-.001 0 .109-.054m.817 0h.652m-.326 1.143v-1.143"/></g><path d="m74.168 19.939.572.572h.571v-1.143h-.572Z" style="stroke:#725600;stroke-width:.1524;stroke-opacity:1;stroke-linecap:round;stroke-linejoin:round;fill:none"/></g><g style="fill:none;stroke:#725600;stroke-width:.1524;stroke-opacity:1;stroke-linecap:round;stroke-linejoin:round"><g class="stroked-text"><desc>HSTX</desc><path d="M34.862 15.897v-.889m0 .424h.508m0 .465v-.889m.381.847.127.042m0 0h.212m0 0 .084-.042m.001 0 .042-.042m0 0 .042-.085m.001 0v-.085m0 0-.043-.084m0 0-.042-.043m0 0-.085-.042m0 0-.17-.042m0 0-.084-.043m0 .001-.042-.043m0 0-.043-.085m0 0v-.084m0 0 .043-.085m0 0 .042-.042m0-.001.084-.042m0 0h.212m0 0 .127.043m.254-.043h.508m-.254.889v-.889m.466 0 .593.89m0-.89-.593.89"/></g><path d="M33.528 15.05h.889v.888h-.889Z" style="stroke:#725600;stroke-width:.1524;stroke-opacity:1;stroke-linecap:round;stroke-linejoin:round;fill:none"/></g><g style="fill:none;stroke:#725600;stroke-width:.1524;stroke-opacity:1;stroke-linecap:round;stroke-linejoin:round"><g class="stroked-text"><desc>USB Host</desc><path d="M34.862 26.438v.72m0 0 .043.085m0 0 .042.042m0 0 .085.042m0 0h.169m-.001 0 .086-.042m0 0 .042-.042m0 0 .042-.085m0 0v-.72m.381.847.127.042m0 0h.212m0 0 .084-.042m.001 0 .042-.042m0 0 .042-.085m.001 0v-.085m0 0-.043-.084m0 0-.042-.043m0 0-.085-.042m0 0-.17-.042m0 0-.084-.043m0 .001-.042-.043m0 0-.043-.085m0 0v-.084m0 0 .043-.085m0 0 .042-.042m0-.001.084-.042m0 0h.212m0 0 .127.043m.678.381.127.042m0 0 .042.042m0 0 .042.085m0 0v.127m0 0-.042.085m0 0-.042.042m0 0-.085.042m0 0h-.339m0 0v-.889m0 0h.297m0 0 .084.043m0-.001.043.043m0 0 .042.085m0 0v.084m0 0-.042.085m0 0-.043.042m0 .001-.084.042m0 0h-.297m1.567.465v-.889m0 .424h.508m0 .465v-.889m.55.889-.085-.042m0 0-.042-.042m0 0-.042-.085m0 0v-.254m0 0 .042-.085m0 .001.042-.043m0 0 .085-.042m0 0h.127m0 0 .084.042m.001 0 .042.042m0 .001.042.084m0 0v.254m0 0-.042.085m0 0-.042.042m0 0-.085.042m0 0h-.127m.635-.042.084.042m.001 0h.169m0 0 .084-.042m.001 0 .042-.085m-.001 0v-.042m0 0-.041-.085m0 0-.085-.042m0 0h-.127m0 0-.085-.042m0 0-.042-.085m0 0v-.042m0 0 .042-.085m0 0 .085-.042m0 0h.127m0 0 .084.042m.297-.042h.339m-.212-.297v.762m0 0 .042.085m0 0 .085.042m0 0h.084"/></g><path d="M33.528 26.48h.889v.889h-.889Z" style="stroke:#725600;stroke-width:.1524;stroke-opacity:1;stroke-linecap:round;stroke-linejoin:round;fill:none"/></g><g style="fill:none;stroke:#725600;stroke-width:.1524;stroke-opacity:1;stroke-linecap:round;stroke-linejoin:round"><g class="stroked-text"><desc>QSPI</desc><path d="m35.455 13.442-.085-.042m0 0-.084-.085m0 0-.127-.127m0 0-.085-.042m0 0h-.085m.043.211-.085-.042m0 0-.085-.085m0 0-.042-.169m0 0v-.296m0 0 .042-.17m0 0 .085-.084m0-.001.085-.042m0 0h.169m-.001 0 .086.043m0-.001.084.085m0 0 .043.17m0 0v.296m0 0-.043.17m0-.001-.084.085m0 0-.085.042m-.001 0h-.168m.719-.042.127.042m0 0h.212m0 0 .084-.042m.001 0 .042-.042m0 0 .042-.085m.001 0v-.085m0 0-.043-.084m0 0-.042-.043m0 0-.085-.042m0 0-.17-.042m0 0-.084-.043m0 .001-.042-.043m0 0-.043-.085m0 0v-.084m0 0 .043-.085m0 0 .042-.042m0-.001.084-.042m0 0h.212m0 0 .127.043m.381.846v-.889m0 0h.339m0 0 .085.043m0-.001.042.043m0 0 .042.085m0 0v.127m0 0-.042.084m0 .001-.042.042m0 0-.085.042m0 0h-.339m.89.423v-.889"/></g><path d="M33.528 12.51h.889v.889h-.889Z" style="stroke:#725600;stroke-width:.1524;stroke-opacity:1;stroke-linecap:round;stroke-linejoin:round;fill:none"/></g><g style="fill:none;stroke:#725600;stroke-width:.1524;stroke-opacity:1;stroke-linecap:round;stroke-linejoin:round"><g class="stroked-text"><desc>I²C</desc><path d="M6.567 23.694v-1.27m.545-.303.12-.06m.001-.001h.18m.001 0 .12.061m.001 0 .06.121m0 0v.121m0 0-.06.121m0 0-.423.423m0 0h.483m1.27.666-.06.06m0 0-.182.06m0 .001h-.12m0 0-.182-.06m0-.001-.12-.12m-.001-.001-.06-.12m0-.001-.06-.242m0 .001v-.182m0 0 .06-.242m0 0 .06-.121m0 0 .121-.121m0 0 .181-.06m.001 0h.12m0 0 .182.06m0 0 .06.06"/></g><path d="m10.668 23.114-.635-.635-.635.635.635.635Z" style="stroke:#725600;stroke-width:.1524;stroke-opacity:1;stroke-linecap:round;stroke-linejoin:round;fill:none"/></g><g style="fill:none;stroke:#725600;stroke-width:.1524;stroke-opacity:1;stroke-linecap:round;stroke-linejoin:round"><g class="stroked-text"><desc>Audio</desc><path d="M4.209 18.25h.605m-.726.364.423-1.27m0 0 .423 1.27m.968-.847v.846m-.544-.846v.665m0 0 .06.121m0 0 .121.06m.001.001h.18m0 0 .122-.06m0-.001.06-.06m1.149.121v-1.27m0 1.209-.12.06m-.001.001h-.242m0 0-.12-.06m-.001-.001-.06-.06m0 0-.06-.121m-.001 0v-.363m0 0 .06-.121m.001 0 .06-.06m0-.001.121-.06m0 0h.242m0 0 .121.06m.605.787v-.847m0-.423-.06.06m-.001 0 .06.06m.001.001.06-.061m0 0-.06-.06m0 0v.12m.786 1.15-.12-.06m-.001-.001-.06-.06m-.001 0-.06-.121m0 0v-.363m0 0 .06-.121m0 0 .061-.06m0-.001.121-.06m0 0h.181m.001 0 .12.06m0 0 .06.06m.001.001.06.12m0 .001v.363m0 0-.06.12m0 .001-.06.06m-.001 0-.12.06m0 .001h-.182"/></g><path d="m9.398 18.034.635.635h.635v-1.27h-.635Z" style="stroke:#725600;stroke-width:.1524;stroke-opacity:1;stroke-linecap:round;stroke-linejoin:round;fill:none"/></g><g style="fill:none;stroke:#725600;stroke-width:.1524;stroke-opacity:1;stroke-linecap:round;stroke-linejoin:round"><g class="stroked-text"><desc>SBLink</desc><path d="m3.06 21.093.181.06m0 .001h.302m.001 0 .12-.06m0-.001.06-.06m.001 0 .06-.121m0 0v-.121m0-.001-.06-.12m0 0-.06-.06m-.001 0-.12-.061m0 0-.242-.06m0-.001-.121-.06m-.001 0-.06-.06m0-.001-.06-.12m0-.001v-.12m0-.001.06-.12m0 0 .06-.061m0 0 .122-.06m0 0h.302m0 0 .181.06m.968.544.181.06m0 .001.06.06m.001.001.06.12m0 0v.182m0 0-.06.12m0 .001-.06.06m-.001 0-.12.06m-.001.001H4.33m0 0v-1.27m0 0h.423m0 0 .12.06m.001 0 .06.06m0 .001.06.12m.001 0v.121m0 0-.06.121m-.001 0-.06.06m0 .001-.121.06m0 0H4.33m1.874.666H5.6m0 0v-1.27m1.028 1.27v-.847m0-.423-.06.06m-.001 0 .06.06m.001.001.06-.061m0 0-.06-.06m0 0v.12m.605.303v.847m0-.726.06-.06m0-.001.121-.06m0 0h.181m0 0 .121.06m0 0 .06.121m.001 0v.666m.605 0v-1.27m.121.786.362.483m0-.846-.483.484"/></g><path d="m10.668 20.574-.635-.635-.635.635.635.635Z" style="stroke:#725600;stroke-width:.1524;stroke-opacity:1;stroke-linecap:round;stroke-linejoin:round;fill:none"/></g><g style="fill:none;stroke:#725600;stroke-width:.1524;stroke-opacity:1;stroke-linecap:round;stroke-linejoin:round"><g class="stroked-text"><desc>USB A</desc><path d="M13.703 32.584v1.028m0 0 .06.12m.001.001.06.06m0 0 .121.06m0 .001h.242m0 0 .121-.06m0-.001.06-.06m.001 0 .06-.121m.001 0v-1.029m.544 1.21.18.06m.001.001h.302m0 0 .121-.06m0-.001.06-.06m.001 0 .06-.121m.001 0v-.121m0-.001-.061-.12m0 0-.06-.06m-.001 0-.12-.061m-.001 0-.242-.06m0-.001-.12-.06m-.001 0-.06-.06m0-.001-.06-.12m0-.001v-.12m0-.001.06-.12m0 0 .06-.061m0 0 .121-.06m0 0h.303m0 0 .181.06m.968.544.181.06m0 .001.06.06m.001.001.06.12m.001 0v.182m0 0-.061.12m0 .001-.06.06m-.001 0-.12.06m-.001.001h-.484m0 0v-1.27m0 0h.424m0 0 .12.06m.001 0 .06.06m0 .001.06.12m.001 0v.121m0 0-.06.121m-.001 0-.06.06m0 .001-.121.06m0 0h-.424m2.177.302h.605m-.725.364.423-1.27m0 0 .423 1.27"/></g><path d="m19.558 33.274.635.635h.635v-1.27h-.635Z" style="stroke:#725600;stroke-width:.1524;stroke-opacity:1;stroke-linecap:round;stroke-linejoin:round;fill:none"/></g><g style="fill:none;stroke:#725600;stroke-width:.1524;stroke-opacity:1;stroke-linecap:round;stroke-linejoin:round"><g class="stroked-text"><desc>Video</desc><path d="m4.148 14.804.424 1.27m0 0 .423-1.27m.423 1.27v-.847m0-.423-.06.06m0 0 .06.06m0 .001.06-.061m.001 0-.06-.06m-.001 0v.12m1.149 1.15v-1.27m0 1.209-.12.06m-.001.001h-.241m0 0-.122-.06m.001-.001-.061-.06m0 0-.06-.121m0 0v-.363m0 0 .06-.121m0 0 .06-.06m.001-.001.12-.06m.001 0h.241m0 0 .121.06m1.089.726-.121.06m0 .001h-.242m0 0-.121-.06m0-.001-.06-.12m0-.001v-.484m0 0 .06-.12m0-.001.121-.06m0 0h.242m0 0 .12.06m.001 0 .06.121m0 0v.121m0 .001-.604.12m1.33.424-.12-.06m-.001-.001-.06-.06m-.001 0-.06-.121m0 0v-.363m0 0 .06-.121m0 0 .061-.06m0-.001.121-.06m0 0h.181m.001 0 .12.06m0 0 .06.06m.001.001.06.12m0 .001v.363m0 0-.06.12m0 .001-.06.06m-.001 0-.12.06m0 .001h-.182"/></g><path d="m9.398 15.494.635.635h.635v-1.27h-.635Z" style="stroke:#725600;stroke-width:.1524;stroke-opacity:1;stroke-linecap:round;stroke-linejoin:round;fill:none"/></g><g style="fill:none;stroke:#725600;stroke-width:.1524;stroke-opacity:1;stroke-linecap:round;stroke-linejoin:round"><g class="stroked-text"><desc>Power</desc><path d="M3.785 13.534v-1.27m0 0h.484m.001 0 .12.06m0 0 .06.06m0 .001.061.12m0 0v.182m0 0-.06.12m-.001.001-.06.06m0 0-.12.06m0 .001h-.485m1.452.605-.121-.06m0-.001-.06-.06m-.001 0-.06-.121m0 0v-.363m0 0 .06-.121m0 0 .06-.06m.001-.001.12-.06m.001 0h.181m0 0 .121.06m.001 0 .06.06m0 .001.06.12m0 .001v.363m0 0-.06.12m0 .001-.06.06m0 0-.122.06m0 .001h-.181m.846-.847.242.847m0 0 .242-.605m0 0 .242.604m.001.001.241-.847m.968.786-.121.06m0 .001h-.242m0 0-.121-.06m0-.001-.06-.12m-.001-.001v-.484m0 0 .06-.12m.001-.001.12-.06m.001 0h.242m0 0 .12.06m.001 0 .06.121m.001 0v.121m0 .001-.606.12m1.149.424v-.847m0 .242.06-.121m.001 0 .06-.06m0-.001.121-.06m0 0h.121"/></g><path d="m10.668 12.954-.635-.635h-.635v1.27h.635Z" style="stroke:#725600;stroke-width:.1524;stroke-opacity:1;stroke-linecap:round;stroke-linejoin:round;fill:none"/></g><g style="fill:none;stroke:#725600;stroke-width:.1524;stroke-opacity:1;stroke-linecap:round;stroke-linejoin:round"><g class="stroked-text"><desc>Ethernet</desc><path d="M75.855 10.971h.38m.165.599h-.545m0 0v-1.143m0 0h.544m.327.381h.435m-.272-.381v.98m0 0 .054.108m0 0 .11.055m-.001 0h.109m.381 0v-1.143m.49 1.143v-.599m0 0-.055-.109m0 0-.108-.054m0 0h-.164m0 0-.109.054m0 0-.054.055m1.47.598-.11.055m.001 0h-.218m0 0-.109-.055m0 0-.054-.109m0 .001v-.436m0 0 .054-.109m0 0 .109-.054m0 0h.218m0 0 .108.054m.001 0 .054.11m0-.001v.109m0 0-.544.109m1.034.381v-.762m0 .218.054-.11m0 .001.055-.055m0 0 .108-.054m.001 0h.108m.381 0v.762m0-.653.055-.055m0 0 .109-.054m0 0h.163m0 0 .109.054m0 0 .054.11m0-.001v.599m.98-.055-.109.055m0 0h-.218m0 0-.109-.055m.001 0-.055-.109m0 .001v-.436m0 0 .055-.109m0 0 .108-.054m0 0h.218m0 0 .109.054m0 0 .054.11m0-.001v.109m0 0-.544.109m.871-.381h.435m-.272-.381v.98m0 0 .055.108m0 0 .109.055m-.001 0h.11"/></g><path d="m75.311 11.049-.572-.572h-.571v1.143h.572Z" style="stroke:#725600;stroke-width:.1524;stroke-opacity:1;stroke-linecap:round;stroke-linejoin:round;fill:none"/></g><g style="fill:none;stroke:#725600;stroke-width:.1524;stroke-opacity:1;stroke-linecap:round;stroke-linejoin:round"><g class="stroked-text"><desc>RESET</desc><path d="m76.508 17.92-.381-.545m-.272.545v-1.143m0 0h.435m0 0 .11.054m0 0 .053.055m.001 0 .054.108m0 .001v.163m0 0-.054.109m0 0-.055.054m.001 0-.11.054m0 .001h-.435m1.143-.055h.38m.164.599h-.544m0 0v-1.143m0 0h.544m.436 1.088.163.055m-.001 0h.273m0 0 .109-.055m0 0 .054-.054m0-.001.055-.108m-.001 0v-.109m0 0-.054-.109m0 0-.054-.054m0 0-.11-.055m.001.001-.218-.055m0 0-.109-.054m0 0-.054-.055m0 0-.054-.109m0 0v-.109m0 .001.054-.11m0 .001.054-.055m0 0 .11-.054m-.001 0h.272m0 0 .164.054m.489.49h.381m.164.599h-.544m-.001 0v-1.143m0 0h.545m.326 0h.653m-.326 1.143v-1.143"/></g><path d="m74.168 17.399.572.572h.571v-1.143h-.572Z" style="stroke:#725600;stroke-width:.1524;stroke-opacity:1;stroke-linecap:round;stroke-linejoin:round;fill:none"/></g><g style="fill:none;stroke:#725600;stroke-width:.1524;stroke-opacity:1;stroke-linecap:round;stroke-linejoin:round"><g class="stroked-text"><desc>USB-C</desc><path d="M76.031 24.329v1.028m0 0 .06.12m.001.001.06.06m0 0 .12.06m.001.001h.242m0 0 .12-.06m.001-.001.06-.06m0 0 .06-.121m.001 0v-1.029m.544 1.21.181.06m.001.001h.302m0 0 .12-.06m.001-.001.06-.06m0 0 .06-.121m.001 0v-.121m0 0-.06-.121m-.001 0-.06-.06m0-.001-.121-.06m0 0-.242-.06m0-.001-.121-.06m0 0-.06-.06m0-.001-.06-.12m-.001-.001v-.12m0-.001.06-.12m.001 0 .06-.061m0 0 .121-.06m0 0h.302m0 0 .182.06m.967.544.182.06m0 .001.06.06m0 0 .06.121m.001 0v.182m0 0-.06.12m-.001.001-.06.06m0 0-.121.06m0 .001h-.484m0 0v-1.27m0 0h.423m0 0 .121.06m0 0 .06.06m.001.001.06.12m0 0v.121m0 0-.06.121m0 0-.06.06m-.001.001-.12.06m-.001 0h-.423m1.27.182h.968m1.331.363-.061.06m0 0-.182.06m0 .001h-.12m-.001 0-.181-.06m0-.001-.121-.12m0-.001-.06-.12m-.001-.001-.06-.242m0 0v-.181m0 0 .06-.242m0-.001.06-.12m.001 0 .12-.121m.001 0 .181-.06m0 0h.121m0 0 .182.06m0 0 .06.06"/></g><path d="m74.168 25.019.635.635h.635v-1.27h-.635Z" style="stroke:#725600;stroke-width:.1524;stroke-opacity:1;stroke-linecap:round;stroke-linejoin:round;fill:none"/></g><path d="M33.528 12.954h-6.35m0 0h-9.525m9.525-1.905v1.905m-9.525-1.905v1.905" style="fill:none;stroke:#000084;stroke-width:.3048;stroke-opacity:1;stroke-linecap:round;stroke-linejoin:round"/><path d="M46.228 19.939h27.94m-51.435 10.16v3.175m-12.065-20.32h1.905m12.7 17.145v3.175m-2.54 0h-1.905m-10.16-7.62h10.16m-10.16 2.54h10.16m25.4-10.795h27.94M25.273 33.274h48.895m-8.89-22.225h8.89m-63.5 12.065h22.86m-22.86-2.54h22.86m-20.32-7.62h.635m-3.175 5.08h22.86m-22.86-2.54h22.86m-19.05-2.54h.635m12.065 13.97h6.35m12.7-15.875h6.35m12.7 13.97h8.89m-27.94 1.27h6.35m-6.35-2.54h6.35" style="fill:none;stroke:#009600;stroke-width:.1524;stroke-opacity:1;stroke-linecap:round;stroke-linejoin:round"/><g style="fill:none;stroke:#c20000;stroke-width:.127;stroke-opacity:1;stroke-linecap:round;stroke-linejoin:round"><rect width="8.89" height="2.54" x="1.778" y="19.304" rx="0"/><rect width="8.89" height="2.54" x="1.778" y="19.304" rx="0"/></g><g style="fill:none;stroke:#c20000;stroke-width:.127;stroke-opacity:1;stroke-linecap:round;stroke-linejoin:round"><rect width="8.89" height="2.54" x="74.168" y="18.669" rx="0"/><rect width="8.89" height="2.54" x="74.168" y="18.669" rx="0"/></g><g style="fill:none;stroke:#c20000;stroke-width:.127;stroke-opacity:1;stroke-linecap:round;stroke-linejoin:round"><rect width="6.35" height="6.35" x="24.003" y="4.699" rx="0"/><rect width="6.35" height="6.35" x="24.003" y="4.699" rx="0"/></g><g class="stroked-text" style="fill:none;stroke:#000084;stroke-width:.1524;stroke-opacity:1;stroke-linecap:round;stroke-linejoin:round"><desc>PSRAM</desc><path d="M24.904 8.336V7.32m0 0h.387m0 0 .097.048m0 0 .048.049m0 0 .049.097m0 0v.145m0 0-.049.096m0 .001-.048.048m0 0-.097.048m0 0h-.387m.968.436.145.048m0 0h.242m0 0 .096-.048m.001 0 .048-.049m0 .001.048-.098m0 .001v-.097m0 0-.048-.097m0 0-.049-.048m.001-.001-.097-.048m0 0-.194-.048m0 0-.097-.049m0 .001-.048-.049m0 0-.048-.097m0 0v-.096m0 0 .048-.097m0 0 .048-.049m0 0 .097-.048m0 0h.242m0 0 .145.048m1.016.968-.338-.484m-.242.484V7.32m0 0h.387m0 0 .097.048m0 0 .048.049m0 0 .048.097m0 0v.145m0 0-.048.096m0 .001-.049.048m.001 0-.097.048m0 0h-.387m.967.194h.484m-.58.29.338-1.016m0 0 .339 1.016m.339 0V7.32m0 0 .338.726m0 0 .339-.726m0 0v1.016"/></g><g style="fill:none;stroke:#c20000;stroke-width:.127;stroke-opacity:1;stroke-linecap:round;stroke-linejoin:round"><rect width="6.35" height="6.35" x="20.828" y="23.749" rx="0"/><rect width="6.35" height="6.35" x="20.828" y="23.749" rx="0"/></g><g style="fill:none;stroke:#000084;stroke-width:.1524;stroke-opacity:1;stroke-linecap:round;stroke-linejoin:round"><g class="stroked-text"><desc>USB</desc><path d="M22.72 25.552v.823m0 0 .05.096m0 .001.048.048m0 0 .096.048m0 0h.194m0 0 .097-.048m0 0 .048-.049m0 .001.048-.097m0 0v-.823m.436.968.145.048m0 0h.242m0 0 .097-.048m-.001 0 .05-.049m0 .001.047-.097m0 0v-.097m0 0-.048-.097m.001 0-.05-.048m0 0-.096-.049m0 0-.194-.048m0 0-.096-.048m0 0-.049-.049m0 .001-.048-.098m0 .001v-.097m0 0 .048-.097m0 0 .049-.048m0-.001.096-.048m0 0h.242m0 0 .145.049m.775.435.145.048m0 0 .048.049m0 0 .048.097m0 0v.145m0 0-.048.096m0 .001-.048.048m0 0-.097.048m0 0h-.387m0 0v-1.016m0 0h.338m.001 0 .096.049m0-.001.049.049m0 0 .048.097m0 0v.097m0 0-.048.096m0 .001-.049.048m0 0-.096.048m0 0h-.34"/></g><g class="stroked-text"><desc>Hub</desc><path d="M22.794 28.204v-1.016m0 .484h.58m0 .532v-1.016m.919.339v.677m-.435-.677v.532m0 0 .048.097m0 0 .097.048m0 0h.145m0 0 .097-.048m0 0 .048-.049m.484.097v-1.016m0 .387.097-.048m0 0h.193m0 0 .097.048m0 0 .048.048m.001 0 .048.097m-.001 0v.29m0 0-.048.097m.001 0-.049.049m0 0-.097.048m0 0h-.193m0 0-.097-.048"/></g></g><g style="fill:none;stroke:#c20000;stroke-width:.127;stroke-opacity:1;stroke-linecap:round;stroke-linejoin:round"><rect width="6.35" height="6.35" x="14.478" y="4.699" rx="0"/><rect width="6.35" height="6.35" x="14.478" y="4.699" rx="0"/></g><g class="stroked-text" style="fill:none;stroke:#000084;stroke-width:.1524;stroke-opacity:1;stroke-linecap:round;stroke-linejoin:round"><desc>Flash</desc><path d="M16.202 7.804h-.34m.001.532V7.32m0 0h.484m.532 1.016-.097-.048m0 0-.048-.097m0-.001v-.87m.967 1.016v-.532m0 0-.048-.097m0 0-.097-.048m0 0h-.193m0 0-.097.048m.435.581-.096.048m0 0h-.242m0 0-.097-.048m0 0-.048-.097m0-.001v-.096m0 0 .048-.097m0 0 .097-.048m0 0h.242m0 0 .096-.048m.436.387.096.048m.001 0h.193m0 0 .097-.048m0 0 .048-.097m0-.001v-.047m0 0-.048-.097m0 0-.097-.049m0 0h-.145m0 0-.097-.048m0 0-.048-.097m0 0v-.048m0 0 .048-.097m0 0 .097-.048m0 0h.145m0 0 .097.048m.484.629V7.32m.435 1.016v-.532m0 0-.048-.097m0 0-.097-.048m0 0h-.145m0 0-.097.048m0 0-.048.048"/></g><g style="fill:none;stroke:#c20000;stroke-width:.127;stroke-opacity:1;stroke-linecap:round;stroke-linejoin:round"><rect width="8.89" height="2.54" x="11.938" y="32.004" rx="0"/><rect width="8.89" height="2.54" x="11.938" y="32.004" rx="0"/></g><g style="fill:none;stroke:#c20000;stroke-width:.127;stroke-opacity:1;stroke-linecap:round;stroke-linejoin:round"><rect width="8.89" height="2.54" x="74.168" y="23.749" rx="0"/><rect width="8.89" height="2.54" x="74.168" y="23.749" rx="0"/></g><g style="fill:none;stroke:#c20000;stroke-width:.127;stroke-opacity:1;stroke-linecap:round;stroke-linejoin:round"><rect width="8.89" height="2.54" x="1.778" y="14.224" rx="0"/><rect width="8.89" height="2.54" x="1.778" y="14.224" rx="0"/></g><g style="fill:none;stroke:#c20000;stroke-width:.127;stroke-opacity:1;stroke-linecap:round;stroke-linejoin:round"><rect width="8.89" height="2.54" x="1.778" y="16.764" rx="0"/><rect width="8.89" height="2.54" x="1.778" y="16.764" rx="0"/></g><g style="fill:none;stroke:#c20000;stroke-width:.127;stroke-opacity:1;stroke-linecap:round;stroke-linejoin:round"><rect width="8.89" height="2.54" x="1.778" y="21.844" rx="0"/><rect width="8.89" height="2.54" x="1.778" y="21.844" rx="0"/></g><g style="fill:none;stroke:#c20000;stroke-width:.127;stroke-opacity:1;stroke-linecap:round;stroke-linejoin:round"><rect width="8.89" height="2.54" x="74.168" y="32.004" rx="0"/><rect width="8.89" height="2.54" x="74.168" y="32.004" rx="0"/></g><g style="fill:none;stroke:#c20000;stroke-width:.127;stroke-opacity:1;stroke-linecap:round;stroke-linejoin:round"><rect width="12.7" height="6.35" x="52.578" y="21.844" rx="0"/><rect width="12.7" height="6.35" x="52.578" y="21.844" rx="0"/></g><g class="stroked-text" style="fill:none;stroke:#000084;stroke-width:.1524;stroke-opacity:1;stroke-linecap:round;stroke-linejoin:round"><desc>Debug Probe</desc><path d="M54.284 25.481v-1.016m0 0h.241m0 0 .145.048m0 0 .097.097m0 0 .049.097m0 0 .048.194m0-.001v.146m0 0-.048.193m0 .001-.049.096m0 0-.097.097m0 0-.145.048m0 0h-.242m1.404-.048-.097.048m0 0h-.194m0 0-.096-.048m0 0-.049-.097m0 0v-.387m0 0 .049-.097m0 0 .096-.048m0 0h.194m0 0 .096.048m.001 0 .048.097m0 0v.097m0 0-.484.096m.919.339v-1.016m0 .387.097-.048m0 0h.194m-.001 0 .097.048m0 0 .049.049m0-.001.048.097m0 0v.29m0 .001-.048.096m0 0-.049.049m0 0-.096.048m-.001 0h-.193m0 0-.097-.048m1.355-.629v.677m-.435-.677v.532m0 0 .048.097m0 0 .097.048m0 0h.145m0 0 .097-.048m0 0 .048-.049m.919-.58v.822m0 0-.048.097m0 0-.049.048m0 0-.096.049m-.001 0h-.145m.001 0-.097-.049m.435-.338-.097.048m0 0h-.193m0 0-.097-.048m0 0-.048-.049m0 0-.049-.096m0 0v-.29m0-.001.049-.096m0-.001.048-.048m0 0 .097-.048m0 0h.193m0 0 .097.048m1.258.629v-1.016m0 0h.387m.001 0 .096.048m0 0 .048.049m0 0 .049.097m0 0v.145m0 0-.049.097m0-.001-.048.049m0 0-.097.048m.001 0h-.388m1.016.484v-.677m0 .193.048-.096m0-.001.049-.048m0 0 .097-.048m0 0h.096m.484.677-.097-.048m0 0-.048-.049m0 0-.048-.096m0 0v-.29m0-.001.048-.096m0-.001.048-.048m0 0 .097-.048m0 0h.145m0 0 .097.048m0 0 .048.049m.001-.001.048.097m-.001 0v.29m0 .001-.047.096m0 0-.049.049m0 0-.097.048m0 0h-.145m.774 0v-1.016m0 .387.097-.048m0 0h.194m0 0 .096.048m0 0 .049.049m0-.001.048.097m0 0v.29m0 .001-.048.096m0 0-.049.049m0 0-.096.048m0 0h-.194m0 0-.097-.048m1.307 0-.097.048m0 0h-.194m0 0-.096-.048m0 0-.049-.097m0 0v-.387m0 0 .048-.097m.001 0 .096-.048m0 0h.194m0 0 .096.048m.001 0 .048.097m-.001 0v.097m0 0-.483.096"/></g><g style="fill:none;stroke:#c20000;stroke-width:.127;stroke-opacity:1;stroke-linecap:round;stroke-linejoin:round"><rect width="12.7" height="22.225" x="33.528" y="7.874" rx="0"/><rect width="12.7" height="22.225" x="33.528" y="7.874" rx="0"/></g><g class="stroked-text" style="fill:none;stroke:#000084;stroke-width:.1524;stroke-opacity:1;stroke-linecap:round;stroke-linejoin:round"><desc>RP2350</desc><path d="m37.75 9.883-.34-.484m-.241.484V8.867m0 0h.387m0 0 .097.048m0 0 .048.049m-.001 0 .05.096m0 0v.146m0 0-.05.096m0 0-.047.049m0-.001-.097.049m0 0h-.387m1.016.484V8.867m0 0h.387m0 0 .096.048m.001 0 .048.049m0 0 .048.096m0 0v.146m0 0-.048.096m0 0-.048.049m0-.001-.097.049m0 0h-.387m.967-.435.049-.049m-.001 0 .097-.048m0 0h.242m.001 0 .096.048m0 0 .048.049m.001 0 .048.096m0 0v.097m0 0-.048.145m0 0-.581.58m0 .001h.629m.339-1.016h.628m0 0-.338.387m0 0h.145m0 0 .097.048m0 0 .048.049m0-.001.048.097m0 0v.242m0 .001-.048.096m0 0-.048.049m0 0-.097.048m0 0h-.29m0 0-.097-.048m0 0-.048-.049m1.548-.919h-.484m0 0-.049.484m.001-.001.048-.048m0 0 .097-.048m0 0h.242m0 0 .096.048m0 0 .049.049m0-.001.048.097m0 0v.242m0 .001-.048.096m0 0-.049.049m0 0-.096.048m0 0h-.242m0 0-.097-.048m0 0-.049-.049m1.21-.919h.097m0 0 .096.048m0 0 .049.049m0 0 .048.096m0 0 .049.194m0 0v.242m0 0-.049.193m0 .001-.048.096m0 0-.049.049m0 0-.096.048m0 0h-.097m0 0-.097-.048m0 0-.048-.049m0 0-.049-.097m.001.001-.049-.194m0 0v-.242m0 0 .048-.194m.001 0 .048-.096m0 0 .048-.049m0 0 .097-.048"/></g><g style="fill:none;stroke:#0000c2;stroke-width:.1524;stroke-opacity:1;stroke-linecap:round;stroke-linejoin:round"><rect width="63.5" height="1.905" x="10.668" y="1.524" rx="0"/><rect width="63.5" height="1.905" x="10.668" y="1.524" rx="0"/></g><g class="stroked-text" style="fill:none;stroke:#fff;stroke-width:.1524;stroke-opacity:1;stroke-linecap:round;stroke-linejoin:round"><desc>Internals</desc><path d="M39.709 2.88v-.89m.423.297v.593m0-.508.042-.042m0 0 .085-.043m0 0h.127m0 0 .085.042m-.001.001.043.084m0 0v.466m.297-.593h.338m-.212-.297v.763m0 0 .043.084m0 .001.084.042m0 0h.085m.635-.042-.085.042m0 0h-.169m0 0-.085-.042m0 0-.042-.085m0 0v-.339m0 0 .042-.085m0 .001.085-.043m0 0h.17m-.001 0 .085.042m0 .001.042.084m0 0V2.5m0-.001-.423.084m.804.297v-.593m0 .17.043-.085m0 0 .042-.042m0 0 .085-.043m0 0h.084m.297 0v.593m0-.508.042-.042m0 0 .085-.043m0 0h.127m-.001 0 .085.042m0 .001.043.084m0 0v.466m.804 0v-.466m0 0L43.9 2.33m0 0-.085-.043m0 0h-.17m.001 0-.085.042m.381.509-.085.042m0 0h-.211m0 0-.085-.042m-.001 0-.041-.085m0 0v-.085m0 0 .042-.085m-.001.001.086-.043m0 0h.211m0 0 .085-.042m.55.381-.084-.042m0 0-.043-.085m0 0V1.99m.424.848.084.042m0 0h.17m0 0 .084-.042m0 0 .043-.085m0 0V2.71m0 0-.043-.084m0 0-.084-.042m0 0h-.127m0 0-.085-.043m-.001 0-.041-.084m0 0v-.043m0 0 .042-.085m-.001.001.086-.043m0 0h.127m0 0 .084.042"/></g><g style="fill:none;stroke:#c20000;stroke-width:.127;stroke-opacity:1;stroke-linecap:round;stroke-linejoin:round"><rect width="8.89" height="2.54" x="74.168" y="9.779" rx="0"/><rect width="8.89" height="2.54" x="74.168" y="9.779" rx="0"/></g><g style="fill:none;stroke:#c20000;stroke-width:.127;stroke-opacity:1;stroke-linecap:round;stroke-linejoin:round"><rect width="8.89" height="2.54" x="74.168" y="16.129" rx="0"/><rect width="8.89" height="2.54" x="74.168" y="16.129" rx="0"/></g><g style="fill:none;stroke:#c20000;stroke-width:.127;stroke-opacity:1;stroke-linecap:round;stroke-linejoin:round"><rect width="12.7" height="6.35" x="52.578" y="7.874" rx="0"/><rect width="12.7" height="6.35" x="52.578" y="7.874" rx="0"/></g><g class="stroked-text" style="fill:none;stroke:#000084;stroke-width:.1524;stroke-opacity:1;stroke-linecap:round;stroke-linejoin:round"><desc>ENC424J600</desc><path d="M54.38 10.979h.339m.145.532h-.484m0 0v-1.016m0 0h.484m.436 1.016v-1.016m0 0 .58 1.016m0 0v-1.016m1.064.919-.048.049m0 0-.145.048m-.001 0h-.096m0 0-.145-.048m0 0-.097-.097m0 0-.048-.097m0 .001-.048-.194m0 0v-.146m0 0 .048-.193m0 0 .048-.097m0 0 .097-.097m0 0 .145-.048m0 0h.097m-.001 0 .146.048m0 0 .048.049m.871.242v.677m-.242-1.064-.242.725m.001 0h.628m.34-.58.047-.049m.001 0 .096-.048m0 0h.242m0 0 .097.048m0 0 .048.049m0 0 .049.097m0 0v.096m0 0-.049.146m0-.001-.58.581m-.001 0h.63m.87-.677v.677m-.241-1.064-.242.725m0 0h.629m.677-.677v.726m0-.001-.048.146m0 0-.097.097m0 0-.145.048m0 0h-.097m1.306-1.016H61.3m-.001 0-.097.048m0 0-.048.049m0 0-.097.145m0 0-.049.194m0-.001v.388m0 0 .049.096m0 0 .048.049m0 0 .097.048m0 0h.193m0 0 .097-.048m0 0 .049-.049m-.001 0 .049-.096m0 0v-.242m0 0-.048-.097m-.001 0-.048-.048m0-.001-.097-.048m0 0h-.193m0 0-.097.049m0-.001-.048.049m0 0-.049.097m1.21-.581h.097m0 0 .096.048m0 0 .049.049m0 0 .048.097m0 0 .048.193m.001 0v.242m0 0-.049.194m0 0-.048.096m0 0-.049.049m0 0-.096.048m0 0h-.097m0 0-.097-.048m0 0-.048-.049m0 0-.049-.096m0 0-.048-.194m0 0v-.242m0 0 .048-.193m0 0 .049-.097m0 0 .048-.049m0 0 .097-.048m.968 0h.096m0 0 .097.048m0 0 .048.049m0 0 .049.097m0 0 .048.193m0 0v.242m0 0-.048.194m0 0-.049.096m0 0-.048.049m0 0-.097.048m0 0h-.096m0 0-.097-.048m0 0-.049-.049m0 0-.048-.096m0 0-.048-.194m0 0v-.242m0 0 .048-.193m0 0 .048-.097m0 0 .049-.049m0 0 .096-.048"/></g><g style="fill:none;stroke:#0000c2;stroke-width:.1524;stroke-opacity:1;stroke-linecap:round;stroke-linejoin:round"><rect width="8.89" height="1.905" x="74.168" y="1.524" rx="0"/><rect width="8.89" height="1.905" x="74.168" y="1.524" rx="0"/></g><g class="stroked-text" style="fill:none;stroke:#fff;stroke-width:.1524;stroke-opacity:1;stroke-linecap:round;stroke-linejoin:round"><desc>Frontpanel</desc><path d="M75.586 2.414h-.296m0 .466v-.89m0 0h.423m.339.89v-.593m0 .17.042-.085m0 0 .043-.042m0 0 .084-.043m0 0h.085m.424.593-.085-.042m0 0-.043-.043m0 0-.042-.084m0-.001v-.253m0 0 .042-.085m0 0 .043-.042m0 0 .084-.043m.001 0h.126m0 0 .085.042m-.001.001.043.042m0 0 .043.085m0 0v.254m0-.001-.043.085m0 0-.042.042m-.001.001-.084.042m0 0h-.127m.678-.593v.593m0-.508.042-.042m0 0 .085-.043m0 0h.126m0 0 .085.042m0 .001.042.084m.001 0v.466m.296-.593h.338m-.212-.297v.763m0 0 .043.084m0 .001.085.042m0 0h.085m.296-.593v.89m0-.847.085-.043m0 0h.169m0 0 .085.042m0 .001.042.042m0 0 .042.085m0 0v.254m0-.001-.042.085m0 0-.042.042m0 .001-.085.042m0 0h-.17m.001 0-.085-.042m1.185.042v-.466m0 0-.042-.085m0 .001-.085-.043m0 0h-.17m.001 0-.085.042m.381.509-.084.042m0 0h-.212m0 0-.085-.042m0 0-.042-.085m-.001 0v-.085m0 0 .043-.085m0 .001.085-.043m0 0h.212m0 0 .084-.042m.423-.212v.593m0-.508.043-.042m0 0 .084-.043m0 0h.127m0 0 .085.042m0 .001.042.084m0 0v.466m.762-.042-.084.042m0 0h-.17m0 0-.084-.042m0 0-.043-.085m.001 0v-.339m0 0 .042-.085m0 .001.084-.043m0 0h.17m0 0 .084.042m0 .001.043.084m0 0V2.5m0-.001-.424.084m.931.297-.084-.042m0 0-.042-.085m0 0V1.99"/></g><g style="fill:none;stroke:#c20000;stroke-width:.127;stroke-opacity:1;stroke-linecap:round;stroke-linejoin:round"><rect width="8.89" height="2.54" x="1.778" y="24.384" rx="0"/><rect width="8.89" height="2.54" x="1.778" y="24.384" rx="0"/></g><g style="fill:none;stroke:#c20000;stroke-width:.127;stroke-opacity:1;stroke-linecap:round;stroke-linejoin:round"><rect width="8.89" height="2.54" x="1.778" y="26.924" rx="0"/><rect width="8.89" height="2.54" x="1.778" y="26.924" rx="0"/></g><g style="fill:none;stroke:#0000c2;stroke-width:.1524;stroke-opacity:1;stroke-linecap:round;stroke-linejoin:round"><rect width="8.89" height="1.905" x="1.778" y="1.524" rx="0"/><rect width="8.89" height="1.905" x="1.778" y="1.524" rx="0"/></g><g class="stroked-text" style="fill:none;stroke:#fff;stroke-width:.1524;stroke-opacity:1;stroke-linecap:round;stroke-linejoin:round"><desc>Mainboard</desc><path d="M3.027 2.88v-.89m0 0 .296.636m0 0 .297-.635m0-.001v.89m.804 0v-.466m0 0-.042-.085m0 .001-.085-.043m0 0h-.17m.001 0-.085.042m.381.509-.085.042m.001 0h-.212m0 0-.085-.042m0 0L4 2.753m0 0v-.085m0 0 .043-.085m0 .001.085-.043m0 0h.211m.001 0 .084-.042m.423.381v-.593m0-.297-.042.043m0 0 .042.042m0 .001.043-.043m0 0-.043-.042m0-.001v.085m.423.212v.593m0-.508.043-.042m0 0 .085-.043m0 0h.127m0 0 .084.042m.001.001.042.084m0 0v.466m.423 0v-.89m0 .34.085-.043m0 0h.169m0 0 .085.042m0 .001.042.042m0 0 .042.085m0 0v.254m0-.001-.042.085m0 0-.043.042m.001.001-.085.042m0 0h-.17m.001 0-.085-.042m.931.042-.085-.042m.001 0-.043-.043m.001 0-.043-.084m0-.001v-.253m0 0 .042-.085m.001 0 .042-.042m0 0 .084-.043m0 0h.127m0 0 .085.042m0 .001.042.042m0 0 .043.085m0 0v.254m0-.001-.043.085m0 0-.042.042m0 .001-.085.042m0 0h-.127m1.058 0v-.466m0 0-.042-.085m0 .001-.085-.043m0 0h-.169m0 0-.085.042m.381.509-.084.042m0 0h-.212m0 0-.085-.042m0 0-.042-.085m0 0v-.085m0 0 .042-.085m0 .001.085-.043m0 0h.212m0 0 .084-.042m.424.381v-.593m0 .17.042-.085m0 0 .042-.042m0 0 .085-.043m0 0h.085m.677.593v-.89m0 .848-.085.042m0 0h-.169m0 0-.085-.042m0 0-.042-.043m0 0-.042-.084m0-.001v-.253m0 0 .042-.085m0 0 .042-.042m0 0 .085-.043m0 0h.17m-.001 0 .085.042"/></g><g style="fill:none;stroke:#c20000;stroke-width:.127;stroke-opacity:1;stroke-linecap:round;stroke-linejoin:round"><rect width="8.89" height="2.54" x="1.778" y="11.684" rx="0"/><rect width="8.89" height="2.54" x="1.778" y="11.684" rx="0"/></g><g style="fill:none;stroke:#0000c2;stroke-width:.1524;stroke-opacity:1;stroke-linecap:round;stroke-linejoin:round"><path d="M74.168 1.524v1.905"/><rect width="8.89" height="6.985" x="1.778" y="29.464" rx="0"/><rect width="8.89" height="3.81" x="74.168" y="12.319" rx="0"/><rect width="8.89" height="1.905" x="74.168" y="34.544" rx="0"/><rect width="8.89" height="5.715" x="74.168" y="26.289" rx="0"/><rect width="8.89" height="8.255" x="1.778" y="3.429" rx="0"/><rect width="8.89" height="33.02" x="1.778" y="3.429" rx="0"/><rect width="63.5" height="33.02" x="10.668" y="3.429" rx="0"/><rect width="8.89" height="2.54" x="74.168" y="21.209" rx="0"/><rect width="8.89" height="6.35" x="74.168" y="3.429" rx="0"/></g><circle cx="27.178" cy="12.954" r=".457" style="fill:#000084;fill-opacity:1;stroke:#000084;stroke-width:.1524;stroke-opacity:1;stroke-linecap:round;stroke-linejoin:round"/></svg>